<?xml version="1.0" standalone="no"?>
 <!DOCTYPE svg PUBLIC "-//W3C//DTD SVG 1.1//EN" 
 "http://www.w3.org/Graphics/SVG/1.1/DTD/svg11.dtd"> 
<svg
  xmlns:svg="http://www.w3.org/2000/svg"
  xmlns="http://www.w3.org/2000/svg"
  xmlns:xlink="http://www.w3.org/1999/xlink"
  version="1.1"
  width="29.700220cm" height="21.000720cm" viewBox="0 0 116930 82680">
<title>SVG Picture created as MinecraftPad-B_CrtYd.svg date 2021/04/01 17:07:24 </title>
  <desc>Picture generated by PCBNEW </desc>
<g style="fill:#000000; fill-opacity:1;stroke:#000000; stroke-opacity:1;
stroke-linecap:round; stroke-linejoin:round;"
 transform="translate(0 0) scale(1 1)">
</g>
<g style="fill:#000000; fill-opacity:0.0; 
stroke:#000000; stroke-width:-0.000393701; stroke-opacity:1; 
stroke-linecap:round; stroke-linejoin:round;">
</g>
<g style="fill:#000000; fill-opacity:0.0; 
stroke:#000000; stroke-width:19.685; stroke-opacity:1; 
stroke-linecap:round; stroke-linejoin:round;">
<path d="M-190220 1338
L-195417 1338
" />
<path d="M-195417 1338
L-195417 6535
" />
<path d="M-195417 6535
L-190220 6535
" />
<path d="M-190220 6535
L-190220 1338
" />
<path d="M-180472 4566
L-180472 -629
" />
<path d="M-185669 4566
L-180472 4566
" />
<path d="M-185669 -629
L-185669 4566
" />
<path d="M-180472 -629
L-185669 -629
" />
<path d="M-172598 2598
L-172598 -2598
" />
<path d="M-177795 2598
L-172598 2598
" />
<path d="M-177795 -2598
L-177795 2598
" />
<path d="M-172598 -2598
L-177795 -2598
" />
<path d="M-164724 4566
L-164724 -629
" />
<path d="M-169921 4566
L-164724 4566
" />
<path d="M-169921 -629
L-169921 4566
" />
<path d="M-164724 -629
L-169921 -629
" />
<path d="M-156850 6535
L-156850 1338
" />
<path d="M-162047 6535
L-156850 6535
" />
<path d="M-162047 1338
L-162047 6535
" />
<path d="M-156850 1338
L-162047 1338
" />
<path d="M-188346 -1338
L-188346 -6535
" />
<path d="M-193543 -1338
L-188346 -1338
" />
<path d="M-193543 -6535
L-193543 -1338
" />
<path d="M-188346 -6535
L-193543 -6535
" />
<path d="M-180472 -3307
L-180472 -8503
" />
<path d="M-185669 -3307
L-180472 -3307
" />
<path d="M-185669 -8503
L-185669 -3307
" />
<path d="M-180472 -8503
L-185669 -8503
" />
<path d="M-172598 -5275
L-172598 -10472
" />
<path d="M-177795 -5275
L-172598 -5275
" />
<path d="M-177795 -10472
L-177795 -5275
" />
<path d="M-172598 -10472
L-177795 -10472
" />
<path d="M-164724 -3307
L-164724 -8503
" />
<path d="M-169921 -3307
L-164724 -3307
" />
<path d="M-169921 -8503
L-169921 -3307
" />
<path d="M-164724 -8503
L-169921 -8503
" />
<path d="M-156850 -1338
L-156850 -6535
" />
<path d="M-162047 -1338
L-156850 -1338
" />
<path d="M-162047 -6535
L-162047 -1338
" />
<path d="M-156850 -6535
L-162047 -6535
" />
<path d="M-188346 -9212
L-188346 -14409
" />
<path d="M-193543 -9212
L-188346 -9212
" />
<path d="M-193543 -14409
L-193543 -9212
" />
<path d="M-188346 -14409
L-193543 -14409
" />
<path d="M-180472 -11181
L-180472 -16377
" />
<path d="M-185669 -11181
L-180472 -11181
" />
<path d="M-185669 -16377
L-185669 -11181
" />
<path d="M-180472 -16377
L-185669 -16377
" />
<path d="M-172598 -13149
L-172598 -18346
" />
<path d="M-177795 -13149
L-172598 -13149
" />
<path d="M-177795 -18346
L-177795 -13149
" />
<path d="M-172598 -18346
L-177795 -18346
" />
<path d="M-164724 -11181
L-164724 -16377
" />
<path d="M-169921 -11181
L-164724 -11181
" />
<path d="M-169921 -16377
L-169921 -11181
" />
<path d="M-164724 -16377
L-169921 -16377
" />
<path d="M-156850 -9181
L-156850 -14377
" />
<path d="M-162047 -9181
L-156850 -9181
" />
<path d="M-162047 -14377
L-162047 -9181
" />
<path d="M-156850 -14377
L-162047 -14377
" />
<path d="M-188346 -17086
L-188346 -22283
" />
<path d="M-193543 -17086
L-188346 -17086
" />
<path d="M-193543 -22283
L-193543 -17086
" />
<path d="M-188346 -22283
L-193543 -22283
" />
<path d="M-180472 -19055
L-180472 -24251
" />
<path d="M-185669 -19055
L-180472 -19055
" />
<path d="M-185669 -24251
L-185669 -19055
" />
<path d="M-180472 -24251
L-185669 -24251
" />
<path d="M-172598 -21023
L-172598 -26220
" />
<path d="M-177795 -21023
L-172598 -21023
" />
<path d="M-177795 -26220
L-177795 -21023
" />
<path d="M-172598 -26220
L-177795 -26220
" />
<path d="M-164724 -19055
L-164724 -24251
" />
<path d="M-169921 -19055
L-164724 -19055
" />
<path d="M-169921 -24251
L-169921 -19055
" />
<path d="M-164724 -24251
L-169921 -24251
" />
<path d="M-156850 -17086
L-156850 -22283
" />
<path d="M-162047 -17086
L-156850 -17086
" />
<path d="M-162047 -22283
L-162047 -17086
" />
<path d="M-156850 -22283
L-162047 -22283
" />
<g >
</g>
<g >
</g>
<g >
</g>
<g >
</g>
<g >
</g>
<g >
</g>
<g >
</g>
<g >
</g>
<g >
</g>
<g >
</g>
<g >
</g>
<g >
</g>
<g >
</g>
<g >
</g>
<g >
</g>
<g >
</g>
<g >
</g>
<g >
</g>
<g >
</g>
<g >
</g>
<g >
</g>
<g >
</g>
<g >
</g>
<g >
</g>
<g >
</g>
<g >
</g>
<g >
</g>
<g >
</g>
<g >
</g>
<g >
</g>
<g >
</g>
<g >
</g>
<g >
</g>
<g >
</g>
<g >
</g>
<g >
</g>
<g >
</g>
<g >
</g>
<g >
</g>
<g >
</g>
<g >
</g>
<g >
</g>
<g >
</g>
<g >
</g>
<g >
</g>
<g >
</g>
</g> 
</svg>
