<?xml version="1.0" standalone="no"?>
 <!DOCTYPE svg PUBLIC "-//W3C//DTD SVG 1.1//EN" 
 "http://www.w3.org/Graphics/SVG/1.1/DTD/svg11.dtd"> 
<svg
  xmlns:svg="http://www.w3.org/2000/svg"
  xmlns="http://www.w3.org/2000/svg"
  xmlns:xlink="http://www.w3.org/1999/xlink"
  version="1.1"
  width="29.700220cm" height="21.000720cm" viewBox="0 0 116930 82680">
<title>SVG Picture created as MinecraftPad-B_Fab.svg date 2021/04/01 17:07:24 </title>
  <desc>Picture generated by PCBNEW </desc>
<g style="fill:#000000; fill-opacity:1;stroke:#000000; stroke-opacity:1;
stroke-linecap:round; stroke-linejoin:round;"
 transform="translate(0 0) scale(1 1)">
</g>
<g style="fill:#000000; fill-opacity:0.0; 
stroke:#000000; stroke-width:-0.000393701; stroke-opacity:1; 
stroke-linecap:round; stroke-linejoin:round;">
</g>
<g style="fill:#000000; fill-opacity:0.0; 
stroke:#000000; stroke-width:39.3701; stroke-opacity:1; 
stroke-linecap:round; stroke-linejoin:round;">
<path d="M-190318 6437
L-190318 1437
" />
<path d="M-195318 6437
L-190318 6437
" />
<path d="M-195318 1437
L-195318 6437
" />
<path d="M-190318 1437
L-195318 1437
" />
<path d="M-180570 -531
L-185570 -531
" />
<path d="M-185570 -531
L-185570 4468
" />
<path d="M-185570 4468
L-180570 4468
" />
<path d="M-180570 4468
L-180570 -531
" />
<path d="M-172696 -2500
L-177696 -2500
" />
<path d="M-177696 -2500
L-177696 2500
" />
<path d="M-177696 2500
L-172696 2500
" />
<path d="M-172696 2500
L-172696 -2500
" />
<path d="M-164822 -531
L-169822 -531
" />
<path d="M-169822 -531
L-169822 4468
" />
<path d="M-169822 4468
L-164822 4468
" />
<path d="M-164822 4468
L-164822 -531
" />
<path d="M-156948 1437
L-161948 1437
" />
<path d="M-161948 1437
L-161948 6437
" />
<path d="M-161948 6437
L-156948 6437
" />
<path d="M-156948 6437
L-156948 1437
" />
<path d="M-188444 -6437
L-193444 -6437
" />
<path d="M-193444 -6437
L-193444 -1437
" />
<path d="M-193444 -1437
L-188444 -1437
" />
<path d="M-188444 -1437
L-188444 -6437
" />
<path d="M-180570 -8405
L-185570 -8405
" />
<path d="M-185570 -8405
L-185570 -3405
" />
<path d="M-185570 -3405
L-180570 -3405
" />
<path d="M-180570 -3405
L-180570 -8405
" />
<path d="M-172696 -10374
L-177696 -10374
" />
<path d="M-177696 -10374
L-177696 -5374
" />
<path d="M-177696 -5374
L-172696 -5374
" />
<path d="M-172696 -5374
L-172696 -10374
" />
<path d="M-164822 -8405
L-169822 -8405
" />
<path d="M-169822 -8405
L-169822 -3405
" />
<path d="M-169822 -3405
L-164822 -3405
" />
<path d="M-164822 -3405
L-164822 -8405
" />
<path d="M-156948 -6437
L-161948 -6437
" />
<path d="M-161948 -6437
L-161948 -1437
" />
<path d="M-161948 -1437
L-156948 -1437
" />
<path d="M-156948 -1437
L-156948 -6437
" />
<path d="M-188444 -14311
L-193444 -14311
" />
<path d="M-193444 -14311
L-193444 -9311
" />
<path d="M-193444 -9311
L-188444 -9311
" />
<path d="M-188444 -9311
L-188444 -14311
" />
<path d="M-180570 -16279
L-185570 -16279
" />
<path d="M-185570 -16279
L-185570 -11279
" />
<path d="M-185570 -11279
L-180570 -11279
" />
<path d="M-180570 -11279
L-180570 -16279
" />
<path d="M-172696 -18248
L-177696 -18248
" />
<path d="M-177696 -18248
L-177696 -13248
" />
<path d="M-177696 -13248
L-172696 -13248
" />
<path d="M-172696 -13248
L-172696 -18248
" />
<path d="M-164822 -16279
L-169822 -16279
" />
<path d="M-169822 -16279
L-169822 -11279
" />
<path d="M-169822 -11279
L-164822 -11279
" />
<path d="M-164822 -11279
L-164822 -16279
" />
<path d="M-156948 -14279
L-161948 -14279
" />
<path d="M-161948 -14279
L-161948 -9279
" />
<path d="M-161948 -9279
L-156948 -9279
" />
<path d="M-156948 -9279
L-156948 -14279
" />
<path d="M-188444 -22185
L-193444 -22185
" />
<path d="M-193444 -22185
L-193444 -17185
" />
<path d="M-193444 -17185
L-188444 -17185
" />
<path d="M-188444 -17185
L-188444 -22185
" />
<path d="M-180570 -24153
L-185570 -24153
" />
<path d="M-185570 -24153
L-185570 -19153
" />
<path d="M-185570 -19153
L-180570 -19153
" />
<path d="M-180570 -19153
L-180570 -24153
" />
<path d="M-172696 -26122
L-177696 -26122
" />
<path d="M-177696 -26122
L-177696 -21122
" />
<path d="M-177696 -21122
L-172696 -21122
" />
<path d="M-172696 -21122
L-172696 -26122
" />
<path d="M-164822 -24153
L-169822 -24153
" />
<path d="M-169822 -24153
L-169822 -19153
" />
<path d="M-169822 -19153
L-164822 -19153
" />
<path d="M-164822 -19153
L-164822 -24153
" />
<path d="M-156948 -22185
L-161948 -22185
" />
<path d="M-161948 -22185
L-161948 -17185
" />
<path d="M-161948 -17185
L-156948 -17185
" />
<path d="M-156948 -17185
L-156948 -22185
" />
<g >
</g>
<g >
</g>
<g >
</g>
<g >
</g>
<g >
</g>
<g >
</g>
<g >
</g>
<g >
</g>
<g >
</g>
<g >
</g>
<g >
</g>
<g >
</g>
<g >
</g>
<g >
</g>
<g >
</g>
<g >
</g>
<g >
</g>
<g >
</g>
<g >
</g>
<g >
</g>
<g >
</g>
<g >
</g>
<g >
</g>
<g >
</g>
<g >
</g>
<g >
</g>
<g >
</g>
<g >
</g>
<g >
</g>
<g >
</g>
<g >
</g>
<g >
</g>
<g >
</g>
<g >
</g>
<g >
</g>
<g >
</g>
<g >
</g>
<g >
</g>
<g >
</g>
<g >
</g>
<g >
</g>
<g >
</g>
<g >
</g>
<g >
</g>
<g >
</g>
<g >
</g>
</g> 
</svg>
