<?xml version="1.0" standalone="no"?>
 <!DOCTYPE svg PUBLIC "-//W3C//DTD SVG 1.1//EN" 
 "http://www.w3.org/Graphics/SVG/1.1/DTD/svg11.dtd"> 
<svg
  xmlns:svg="http://www.w3.org/2000/svg"
  xmlns="http://www.w3.org/2000/svg"
  xmlns:xlink="http://www.w3.org/1999/xlink"
  version="1.1"
  width="29.700220cm" height="21.000720cm" viewBox="0 0 116930 82680">
<title>SVG Picture created as MinecraftPad-F_SilkS.svg date 2021/04/01 17:07:24 </title>
  <desc>Picture generated by PCBNEW </desc>
<g style="fill:#000000; fill-opacity:1;stroke:#000000; stroke-opacity:1;
stroke-linecap:round; stroke-linejoin:round;"
 transform="translate(0 0) scale(1 1)">
</g>
<g style="fill:#000000; fill-opacity:0.0; 
stroke:#000000; stroke-width:-0.000393701; stroke-opacity:1; 
stroke-linecap:round; stroke-linejoin:round;">
</g>
<g style="fill:#000000; fill-opacity:0.0; 
stroke:#000000; stroke-width:47.2441; stroke-opacity:1; 
stroke-linecap:round; stroke-linejoin:round;">
<path d="M-183970 4383
L-182440 4383
" />
<path d="M-183970 3490
L-183970 4383
" />
<path d="M-182440 3490
L-183970 3490
" />
<path d="M-176096 2415
L-174566 2415
" />
<path d="M-176096 1521
L-176096 2415
" />
<path d="M-174566 1521
L-176096 1521
" />
<path d="M-168222 4383
L-166692 4383
" />
<path d="M-168222 3490
L-168222 4383
" />
<path d="M-166692 3490
L-168222 3490
" />
<path d="M-160348 446
L-158818 446
" />
<path d="M-160348 -446
L-160348 446
" />
<path d="M-158818 -446
L-160348 -446
" />
<path d="M-191844 -1521
L-190314 -1521
" />
<path d="M-191844 -2415
L-191844 -1521
" />
<path d="M-190314 -2415
L-191844 -2415
" />
<path d="M-183970 -3490
L-182440 -3490
" />
<path d="M-183970 -4383
L-183970 -3490
" />
<path d="M-182440 -4383
L-183970 -4383
" />
<path d="M-176096 -5458
L-174566 -5458
" />
<path d="M-176096 -6352
L-176096 -5458
" />
<path d="M-174566 -6352
L-176096 -6352
" />
<path d="M-168222 -3490
L-166692 -3490
" />
<path d="M-168222 -4383
L-168222 -3490
" />
<path d="M-166692 -4383
L-168222 -4383
" />
<path d="M-160348 -1521
L-158818 -1521
" />
<path d="M-160348 -2415
L-160348 -1521
" />
<path d="M-158818 -2415
L-160348 -2415
" />
<path d="M-191819 -9395
L-190290 -9395
" />
<path d="M-191819 -10289
L-191819 -9395
" />
<path d="M-190290 -10289
L-191819 -10289
" />
<path d="M-183970 -11364
L-182440 -11364
" />
<path d="M-183970 -12257
L-183970 -11364
" />
<path d="M-182440 -12257
L-183970 -12257
" />
<path d="M-176096 -13332
L-174566 -13332
" />
<path d="M-176096 -14226
L-176096 -13332
" />
<path d="M-174566 -14226
L-176096 -14226
" />
<path d="M-168222 -11364
L-166692 -11364
" />
<path d="M-168222 -12257
L-168222 -11364
" />
<path d="M-166692 -12257
L-168222 -12257
" />
<path d="M-160323 -9395
L-158794 -9395
" />
<path d="M-160323 -10289
L-160323 -9395
" />
<path d="M-158794 -10289
L-160323 -10289
" />
<path d="M-191844 -17663
L-190314 -17663
" />
<path d="M-191844 -18557
L-191844 -17663
" />
<path d="M-190314 -18557
L-191844 -18557
" />
<path d="M-183945 -19238
L-182416 -19238
" />
<path d="M-183945 -20131
L-183945 -19238
" />
<path d="M-182416 -20131
L-183945 -20131
" />
<path d="M-176096 -21206
L-174566 -21206
" />
<path d="M-176096 -22100
L-176096 -21206
" />
<path d="M-174566 -22100
L-176096 -22100
" />
<path d="M-168222 -19238
L-166692 -19238
" />
<path d="M-168222 -20131
L-168222 -19238
" />
<path d="M-166692 -20131
L-168222 -20131
" />
<path d="M-160323 -17269
L-158794 -17269
" />
<path d="M-160323 -18163
L-160323 -17269
" />
<path d="M-158794 -18163
L-160323 -18163
" />
<path d="M-189482 2415
L-187952 2415
" />
<path d="M-189482 1521
L-189482 2415
" />
<path d="M-187952 1521
L-189482 1521
" />
</g>
<g style="fill:#000000; fill-opacity:0.0; 
stroke:#000000; stroke-width:150; stroke-opacity:1; 
stroke-linecap:round; stroke-linejoin:round;">
<path d="M-194444 -25685
L-194444 -13685
" />
<path d="M-194444 -13685
L-187444 -13685
" />
<path d="M-187444 -13685
L-187444 -25685
" />
<path d="M-193444 -25685
L-193444 -24685
" />
<path d="M-193444 -24685
L-194444 -24685
" />
</g>
<g style="fill:#000000; fill-opacity:1.0; 
stroke:#000000; stroke-width:59.0551; stroke-opacity:1; 
stroke-linecap:round; stroke-linejoin:round;">
<path style="fill:#000000; fill-opacity:1.0; 
stroke:#000000; stroke-width:59.0551; stroke-opacity:1; 
stroke-linecap:round; stroke-linejoin:round;fill-rule:evenodd;"
d="M -189003,-23370.3
-189003,-23252.2
-189043,-23252.2
-189043,-23370.3
" /> 
<path style="fill:#000000; fill-opacity:1.0; 
stroke:#000000; stroke-width:59.0551; stroke-opacity:1; 
stroke-linecap:round; stroke-linejoin:round;fill-rule:evenodd;"
d="M -189082,-23212.9
-189082,-23173.5
-189121,-23173.5
-189121,-23212.9
" /> 
<path style="fill:#000000; fill-opacity:1.0; 
stroke:#000000; stroke-width:59.0551; stroke-opacity:1; 
stroke-linecap:round; stroke-linejoin:round;fill-rule:evenodd;"
d="M -189003,-23370.3
-189003,-23331
-189200,-23331
-189200,-23370.3
" /> 
<path style="fill:#000000; fill-opacity:1.0; 
stroke:#000000; stroke-width:59.0551; stroke-opacity:1; 
stroke-linecap:round; stroke-linejoin:round;fill-rule:evenodd;"
d="M -189161,-23370.3
-189161,-23055.4
-189200,-23055.4
-189200,-23370.3
" /> 
<path style="fill:#000000; fill-opacity:1.0; 
stroke:#000000; stroke-width:59.0551; stroke-opacity:1; 
stroke-linecap:round; stroke-linejoin:round;fill-rule:evenodd;"
d="M -189003,-23134.1
-189003,-23055.4
-189043,-23055.4
-189043,-23134.1
" /> 
</g>
<g style="fill:#000000; fill-opacity:1.0; 
stroke:#000000; stroke-width:150; stroke-opacity:1; 
stroke-linecap:round; stroke-linejoin:round;">
</g>
<g style="fill:#000000; fill-opacity:0.0; 
stroke:#000000; stroke-width:150; stroke-opacity:1; 
stroke-linecap:round; stroke-linejoin:round;">
<path d="M-187444 -25685
L-187444 -26685
" />
<path d="M-187444 -26685
L-194444 -26685
" />
<path d="M-194444 -26685
L-194444 -25685
" />
<path d="M-193444 -25685
L-194444 -25685
" />
</g>
<g style="fill:#000000; fill-opacity:0.0; 
stroke:#000000; stroke-width:59.0551; stroke-opacity:1; 
stroke-linecap:round; stroke-linejoin:round;">
<text x="-192351" y="-25027.6"
textLength="1843.83" font-size="419.947" lengthAdjust="spacingAndGlyphs"
text-anchor="middle" opacity="0">TX0/D3</text>
<path d="M-193213 -25357
L-193033 -25357
" />
<path d="M-193123 -25042
L-193123 -25357
" />
<path d="M-192958 -25357
L-192748 -25042
" />
<path d="M-192748 -25357
L-192958 -25042
" />
<path d="M-192568 -25357
L-192538 -25357
L-192508 -25342
L-192493 -25327
L-192478 -25297
L-192463 -25237
L-192463 -25162
L-192478 -25102
L-192493 -25072
L-192508 -25057
L-192538 -25042
L-192568 -25042
L-192598 -25057
L-192613 -25072
L-192628 -25102
L-192643 -25162
L-192643 -25237
L-192628 -25297
L-192613 -25327
L-192598 -25342
L-192568 -25357
" />
<path d="M-192103 -25372
L-192373 -24967
" />
<path d="M-191998 -25042
L-191998 -25357
L-191923 -25357
L-191878 -25342
L-191848 -25312
L-191833 -25282
L-191818 -25222
L-191818 -25177
L-191833 -25117
L-191848 -25087
L-191878 -25057
L-191923 -25042
L-191998 -25042
" />
<path d="M-191713 -25357
L-191518 -25357
L-191623 -25237
L-191578 -25237
L-191548 -25222
L-191533 -25207
L-191518 -25177
L-191518 -25102
L-191533 -25072
L-191548 -25057
L-191578 -25042
L-191668 -25042
L-191698 -25057
L-191713 -25072
" />
<text x="-193095" y="-24027.6"
textLength="691.695" font-size="419.947" lengthAdjust="spacingAndGlyphs"
text-anchor="middle" opacity="0">D2</text>
<path d="M-193327 -24042
L-193327 -24357
L-193252 -24357
L-193207 -24342
L-193177 -24312
L-193162 -24282
L-193147 -24222
L-193147 -24177
L-193162 -24117
L-193177 -24087
L-193207 -24057
L-193252 -24042
L-193327 -24042
" />
<path d="M-193027 -24327
L-193012 -24342
L-192982 -24357
L-192907 -24357
L-192877 -24342
L-192862 -24327
L-192847 -24297
L-192847 -24267
L-192862 -24222
L-193042 -24042
L-192847 -24042
" />
<text x="-193095" y="-20027.6"
textLength="691.695" font-size="419.947" lengthAdjust="spacingAndGlyphs"
text-anchor="middle" opacity="0">D0</text>
<path d="M-193327 -20042
L-193327 -20357
L-193252 -20357
L-193207 -20342
L-193177 -20312
L-193162 -20282
L-193147 -20222
L-193147 -20177
L-193162 -20117
L-193177 -20087
L-193207 -20057
L-193252 -20042
L-193327 -20042
" />
<path d="M-192952 -20357
L-192922 -20357
L-192892 -20342
L-192877 -20327
L-192862 -20297
L-192847 -20237
L-192847 -20162
L-192862 -20102
L-192877 -20072
L-192892 -20057
L-192922 -20042
L-192952 -20042
L-192982 -20057
L-192997 -20072
L-193012 -20102
L-193027 -20162
L-193027 -20237
L-193012 -20297
L-192997 -20327
L-192982 -20342
L-192952 -20357
" />
<text x="-193095" y="-21027.6"
textLength="691.695" font-size="419.947" lengthAdjust="spacingAndGlyphs"
text-anchor="middle" opacity="0">D1</text>
<path d="M-193327 -21042
L-193327 -21357
L-193252 -21357
L-193207 -21342
L-193177 -21312
L-193162 -21282
L-193147 -21222
L-193147 -21177
L-193162 -21117
L-193177 -21087
L-193207 -21057
L-193252 -21042
L-193327 -21042
" />
<path d="M-192847 -21042
L-193027 -21042
" />
<path d="M-192937 -21042
L-192937 -21357
L-192967 -21312
L-192997 -21282
L-193027 -21267
" />
<text x="-193095" y="-22027.6"
textLength="1036.65" font-size="419.947" lengthAdjust="spacingAndGlyphs"
text-anchor="middle" opacity="0">GND</text>
<path d="M-193334 -22342
L-193364 -22357
L-193409 -22357
L-193454 -22342
L-193484 -22312
L-193499 -22282
L-193514 -22222
L-193514 -22177
L-193499 -22117
L-193484 -22087
L-193454 -22057
L-193409 -22042
L-193379 -22042
L-193334 -22057
L-193319 -22072
L-193319 -22177
L-193379 -22177
" />
<path d="M-193184 -22042
L-193184 -22357
L-193004 -22042
L-193004 -22357
" />
<path d="M-192854 -22042
L-192854 -22357
L-192779 -22357
L-192734 -22342
L-192704 -22312
L-192689 -22282
L-192674 -22222
L-192674 -22177
L-192689 -22117
L-192704 -22087
L-192734 -22057
L-192779 -22042
L-192854 -22042
" />
<text x="-193095" y="-23027.6"
textLength="1036.65" font-size="419.947" lengthAdjust="spacingAndGlyphs"
text-anchor="middle" opacity="0">GND</text>
<path d="M-193334 -23342
L-193364 -23357
L-193409 -23357
L-193454 -23342
L-193484 -23312
L-193499 -23282
L-193514 -23222
L-193514 -23177
L-193499 -23117
L-193484 -23087
L-193454 -23057
L-193409 -23042
L-193379 -23042
L-193334 -23057
L-193319 -23072
L-193319 -23177
L-193379 -23177
" />
<path d="M-193184 -23042
L-193184 -23357
L-193004 -23042
L-193004 -23357
" />
<path d="M-192854 -23042
L-192854 -23357
L-192779 -23357
L-192734 -23342
L-192704 -23312
L-192689 -23282
L-192674 -23222
L-192674 -23177
L-192689 -23117
L-192704 -23087
L-192734 -23057
L-192779 -23042
L-192854 -23042
" />
<text x="-193095" y="-19027.6"
textLength="691.695" font-size="419.947" lengthAdjust="spacingAndGlyphs"
text-anchor="middle" opacity="0">D4</text>
<path d="M-193327 -19042
L-193327 -19357
L-193252 -19357
L-193207 -19342
L-193177 -19312
L-193162 -19282
L-193147 -19222
L-193147 -19177
L-193162 -19117
L-193177 -19087
L-193207 -19057
L-193252 -19042
L-193327 -19042
" />
<path d="M-192877 -19252
L-192877 -19042
" />
<path d="M-192952 -19372
L-193027 -19147
L-192832 -19147
" />
<text x="-193095" y="-18027.6"
textLength="691.695" font-size="419.947" lengthAdjust="spacingAndGlyphs"
text-anchor="middle" opacity="0">C6</text>
<path d="M-193147 -18072
L-193162 -18057
L-193207 -18042
L-193237 -18042
L-193282 -18057
L-193312 -18087
L-193327 -18117
L-193342 -18177
L-193342 -18222
L-193327 -18282
L-193312 -18312
L-193282 -18342
L-193237 -18357
L-193207 -18357
L-193162 -18342
L-193147 -18327
" />
<path d="M-192877 -18357
L-192937 -18357
L-192967 -18342
L-192982 -18327
L-193012 -18282
L-193027 -18222
L-193027 -18102
L-193012 -18072
L-192997 -18057
L-192967 -18042
L-192907 -18042
L-192877 -18057
L-192862 -18072
L-192847 -18102
L-192847 -18177
L-192862 -18207
L-192877 -18222
L-192907 -18237
L-192967 -18237
L-192997 -18222
L-193012 -18207
L-193027 -18177
" />
<text x="-193095" y="-17027.6"
textLength="691.695" font-size="419.947" lengthAdjust="spacingAndGlyphs"
text-anchor="middle" opacity="0">D7</text>
<path d="M-193327 -17042
L-193327 -17357
L-193252 -17357
L-193207 -17342
L-193177 -17312
L-193162 -17282
L-193147 -17222
L-193147 -17177
L-193162 -17117
L-193177 -17087
L-193207 -17057
L-193252 -17042
L-193327 -17042
" />
<path d="M-193042 -17357
L-192832 -17357
L-192967 -17042
" />
<text x="-193095" y="-16027.6"
textLength="661.698" font-size="419.947" lengthAdjust="spacingAndGlyphs"
text-anchor="middle" opacity="0">E6</text>
<path d="M-193312 -16207
L-193207 -16207
" />
<path d="M-193162 -16042
L-193312 -16042
L-193312 -16357
L-193162 -16357
" />
<path d="M-192892 -16357
L-192952 -16357
L-192982 -16342
L-192997 -16327
L-193027 -16282
L-193042 -16222
L-193042 -16102
L-193027 -16072
L-193012 -16057
L-192982 -16042
L-192922 -16042
L-192892 -16057
L-192877 -16072
L-192862 -16102
L-192862 -16177
L-192877 -16207
L-192892 -16222
L-192922 -16237
L-192982 -16237
L-193012 -16222
L-193027 -16207
L-193042 -16177
" />
<text x="-193095" y="-15027.6"
textLength="691.695" font-size="419.947" lengthAdjust="spacingAndGlyphs"
text-anchor="middle" opacity="0">B4</text>
<path d="M-193222 -15207
L-193177 -15192
L-193162 -15177
L-193147 -15147
L-193147 -15102
L-193162 -15072
L-193177 -15057
L-193207 -15042
L-193327 -15042
L-193327 -15357
L-193222 -15357
L-193192 -15342
L-193177 -15327
L-193162 -15297
L-193162 -15267
L-193177 -15237
L-193192 -15222
L-193222 -15207
L-193327 -15207
" />
<path d="M-192877 -15252
L-192877 -15042
" />
<path d="M-192952 -15372
L-193027 -15147
L-192832 -15147
" />
<text x="-193095" y="-14027.6"
textLength="691.695" font-size="419.947" lengthAdjust="spacingAndGlyphs"
text-anchor="middle" opacity="0">B5</text>
<path d="M-193222 -14207
L-193177 -14192
L-193162 -14177
L-193147 -14147
L-193147 -14102
L-193162 -14072
L-193177 -14057
L-193207 -14042
L-193327 -14042
L-193327 -14357
L-193222 -14357
L-193192 -14342
L-193177 -14327
L-193162 -14297
L-193162 -14267
L-193177 -14237
L-193192 -14222
L-193222 -14207
L-193327 -14207
" />
<path d="M-192862 -14357
L-193012 -14357
L-193027 -14207
L-193012 -14222
L-192982 -14237
L-192907 -14237
L-192877 -14222
L-192862 -14207
L-192847 -14177
L-192847 -14102
L-192862 -14072
L-192877 -14057
L-192907 -14042
L-192982 -14042
L-193012 -14057
L-193027 -14072
" />
<text x="-188795" y="-14027.6"
textLength="691.695" font-size="419.947" lengthAdjust="spacingAndGlyphs"
text-anchor="middle" opacity="0">B6</text>
<path d="M-188922 -14207
L-188877 -14192
L-188862 -14177
L-188847 -14147
L-188847 -14102
L-188862 -14072
L-188877 -14057
L-188907 -14042
L-189027 -14042
L-189027 -14357
L-188922 -14357
L-188892 -14342
L-188877 -14327
L-188862 -14297
L-188862 -14267
L-188877 -14237
L-188892 -14222
L-188922 -14207
L-189027 -14207
" />
<path d="M-188577 -14357
L-188637 -14357
L-188667 -14342
L-188682 -14327
L-188712 -14282
L-188727 -14222
L-188727 -14102
L-188712 -14072
L-188697 -14057
L-188667 -14042
L-188607 -14042
L-188577 -14057
L-188562 -14072
L-188547 -14102
L-188547 -14177
L-188562 -14207
L-188577 -14222
L-188607 -14237
L-188667 -14237
L-188697 -14222
L-188712 -14207
L-188727 -14177
" />
<text x="-188795" y="-16027.6"
textLength="691.695" font-size="419.947" lengthAdjust="spacingAndGlyphs"
text-anchor="middle" opacity="0">B3</text>
<path d="M-188922 -16207
L-188877 -16192
L-188862 -16177
L-188847 -16147
L-188847 -16102
L-188862 -16072
L-188877 -16057
L-188907 -16042
L-189027 -16042
L-189027 -16357
L-188922 -16357
L-188892 -16342
L-188877 -16327
L-188862 -16297
L-188862 -16267
L-188877 -16237
L-188892 -16222
L-188922 -16207
L-189027 -16207
" />
<path d="M-188742 -16357
L-188547 -16357
L-188652 -16237
L-188607 -16237
L-188577 -16222
L-188562 -16207
L-188547 -16177
L-188547 -16102
L-188562 -16072
L-188577 -16057
L-188607 -16042
L-188697 -16042
L-188727 -16057
L-188742 -16072
" />
<text x="-188795" y="-17027.6"
textLength="691.695" font-size="419.947" lengthAdjust="spacingAndGlyphs"
text-anchor="middle" opacity="0">B1</text>
<path d="M-188922 -17207
L-188877 -17192
L-188862 -17177
L-188847 -17147
L-188847 -17102
L-188862 -17072
L-188877 -17057
L-188907 -17042
L-189027 -17042
L-189027 -17357
L-188922 -17357
L-188892 -17342
L-188877 -17327
L-188862 -17297
L-188862 -17267
L-188877 -17237
L-188892 -17222
L-188922 -17207
L-189027 -17207
" />
<path d="M-188547 -17042
L-188727 -17042
" />
<path d="M-188637 -17042
L-188637 -17357
L-188667 -17312
L-188697 -17282
L-188727 -17267
" />
<text x="-188795" y="-21027.6"
textLength="646.7" font-size="419.947" lengthAdjust="spacingAndGlyphs"
text-anchor="middle" opacity="0">F4</text>
<path d="M-188899 -21207
L-189004 -21207
" />
<path d="M-189004 -21042
L-189004 -21357
L-188854 -21357
" />
<path d="M-188599 -21252
L-188599 -21042
" />
<path d="M-188674 -21372
L-188749 -21147
L-188554 -21147
" />
<text x="-188795" y="-22027.6"
textLength="976.659" font-size="419.947" lengthAdjust="spacingAndGlyphs"
text-anchor="middle" opacity="0">VCC</text>
<path d="M-189214 -22357
L-189109 -22042
L-189004 -22357
" />
<path d="M-188719 -22072
L-188734 -22057
L-188779 -22042
L-188809 -22042
L-188854 -22057
L-188884 -22087
L-188899 -22117
L-188914 -22177
L-188914 -22222
L-188899 -22282
L-188884 -22312
L-188854 -22342
L-188809 -22357
L-188779 -22357
L-188734 -22342
L-188719 -22327
" />
<path d="M-188404 -22072
L-188419 -22057
L-188464 -22042
L-188494 -22042
L-188539 -22057
L-188569 -22087
L-188584 -22117
L-188599 -22177
L-188599 -22222
L-188584 -22282
L-188569 -22312
L-188539 -22342
L-188494 -22357
L-188464 -22357
L-188419 -22342
L-188404 -22327
" />
<text x="-188688" y="-23039.4"
textLength="616.704" font-size="419.947" lengthAdjust="spacingAndGlyphs"
text-anchor="middle" opacity="0">ST</text>
<path d="M-188897 -23069
L-188852 -23054
L-188777 -23054
L-188747 -23069
L-188732 -23084
L-188717 -23114
L-188717 -23144
L-188732 -23174
L-188747 -23189
L-188777 -23204
L-188837 -23219
L-188867 -23234
L-188882 -23249
L-188897 -23279
L-188897 -23309
L-188882 -23339
L-188867 -23354
L-188837 -23369
L-188762 -23369
L-188717 -23354
" />
<path d="M-188627 -23369
L-188447 -23369
" />
<path d="M-188537 -23054
L-188537 -23369
" />
<text x="-188795" y="-24027.6"
textLength="1036.65" font-size="419.947" lengthAdjust="spacingAndGlyphs"
text-anchor="middle" opacity="0">GND</text>
<path d="M-189034 -24342
L-189064 -24357
L-189109 -24357
L-189154 -24342
L-189184 -24312
L-189199 -24282
L-189214 -24222
L-189214 -24177
L-189199 -24117
L-189184 -24087
L-189154 -24057
L-189109 -24042
L-189079 -24042
L-189034 -24057
L-189019 -24072
L-189019 -24177
L-189079 -24177
" />
<path d="M-188884 -24042
L-188884 -24357
L-188704 -24042
L-188704 -24357
" />
<path d="M-188554 -24042
L-188554 -24357
L-188479 -24357
L-188434 -24342
L-188404 -24312
L-188389 -24282
L-188374 -24222
L-188374 -24177
L-188389 -24117
L-188404 -24087
L-188434 -24057
L-188479 -24042
L-188554 -24042
" />
<text x="-188795" y="-25027.6"
textLength="1021.65" font-size="419.947" lengthAdjust="spacingAndGlyphs"
text-anchor="middle" opacity="0">RAW</text>
<path d="M-189012 -25042
L-189117 -25192
" />
<path d="M-189192 -25042
L-189192 -25357
L-189072 -25357
L-189042 -25342
L-189027 -25327
L-189012 -25297
L-189012 -25252
L-189027 -25222
L-189042 -25207
L-189072 -25192
L-189192 -25192
" />
<path d="M-188892 -25132
L-188742 -25132
" />
<path d="M-188922 -25042
L-188817 -25357
L-188712 -25042
" />
<path d="M-188637 -25357
L-188562 -25042
L-188502 -25267
L-188442 -25042
L-188367 -25357
" />
<text x="-188795" y="-20027.6"
textLength="646.7" font-size="419.947" lengthAdjust="spacingAndGlyphs"
text-anchor="middle" opacity="0">F5</text>
<path d="M-188899 -20207
L-189004 -20207
" />
<path d="M-189004 -20042
L-189004 -20357
L-188854 -20357
" />
<path d="M-188584 -20357
L-188734 -20357
L-188749 -20207
L-188734 -20222
L-188704 -20237
L-188629 -20237
L-188599 -20222
L-188584 -20207
L-188569 -20177
L-188569 -20102
L-188584 -20072
L-188599 -20057
L-188629 -20042
L-188704 -20042
L-188734 -20057
L-188749 -20072
" />
<text x="-188795" y="-19027.6"
textLength="646.7" font-size="419.947" lengthAdjust="spacingAndGlyphs"
text-anchor="middle" opacity="0">F6</text>
<path d="M-188899 -19207
L-189004 -19207
" />
<path d="M-189004 -19042
L-189004 -19357
L-188854 -19357
" />
<path d="M-188599 -19357
L-188659 -19357
L-188689 -19342
L-188704 -19327
L-188734 -19282
L-188749 -19222
L-188749 -19102
L-188734 -19072
L-188719 -19057
L-188689 -19042
L-188629 -19042
L-188599 -19057
L-188584 -19072
L-188569 -19102
L-188569 -19177
L-188584 -19207
L-188599 -19222
L-188629 -19237
L-188689 -19237
L-188719 -19222
L-188734 -19207
L-188749 -19177
" />
<text x="-188795" y="-18027.6"
textLength="646.7" font-size="419.947" lengthAdjust="spacingAndGlyphs"
text-anchor="middle" opacity="0">F7</text>
<path d="M-188899 -18207
L-189004 -18207
" />
<path d="M-189004 -18042
L-189004 -18357
L-188854 -18357
" />
<path d="M-188764 -18357
L-188554 -18357
L-188689 -18042
" />
<text x="-188795" y="-15027.6"
textLength="691.695" font-size="419.947" lengthAdjust="spacingAndGlyphs"
text-anchor="middle" opacity="0">B2</text>
<path d="M-188922 -15207
L-188877 -15192
L-188862 -15177
L-188847 -15147
L-188847 -15102
L-188862 -15072
L-188877 -15057
L-188907 -15042
L-189027 -15042
L-189027 -15357
L-188922 -15357
L-188892 -15342
L-188877 -15327
L-188862 -15297
L-188862 -15267
L-188877 -15237
L-188892 -15222
L-188922 -15207
L-189027 -15207
" />
<path d="M-188727 -15327
L-188712 -15342
L-188682 -15357
L-188607 -15357
L-188577 -15342
L-188562 -15327
L-188547 -15297
L-188547 -15267
L-188562 -15222
L-188742 -15042
L-188547 -15042
" />
<g >
</g>
</g> 
</svg>
