  0
SECTION
  2
HEADER
  9
$ANGBASE
  50
0.0
  9
$ANGDIR
  70
1
  9
$MEASUREMENT
  70
0
  0
ENDSEC
  0
SECTION
  2
TABLES
  0
TABLE
  2
LTYPE
  70
4
  0
LTYPE
  5
40F
  2
CONTINUOUS
  70
0
  3
Solid line
  72
65
  73
0
  40
0.0
  0
LTYPE
  5
410
  2
DASHDOT
 70
0
  3
Dash Dot ____ _ ____ _
 72
65
 73
4
 40
2.0
 49
1.25
 49
-0.25
 49
0.25
 49
-0.25
  0
LTYPE
  5
411
  2
DASHED
 70
0
  3
Dashed __ __ __ __ __
 72
65
 73
2
 40
0.75
 49
0.5
 49
-0.25
  0
LTYPE
  5
43B
  2
DOTTED
 70
0
  3
Dotted .  .  .  .
 72
65
 73
2
 40
0.2
 49
0.0
 49
-0.2
  0
ENDTAB
  0
TABLE
  2
STYLE
  70
4
  0
STYLE
  2
KICAD
  70
0
  40
0
  41
1
  42
1
  50
0
  71
0
  3
isocp.shx
  0
STYLE
  2
KICADB
  70
0
  40
0
  41
1
  42
1
  50
0
  71
0
  3
isocp.shx
  0
STYLE
  2
KICADI
  70
0
  40
0
  41
1
  42
1
  50
15
  71
0
  3
isocp.shx
  0
STYLE
  2
KICADBI
  70
0
  40
0
  41
1
  42
1
  50
15
  71
0
  3
isocp.shx
  0
ENDTAB
  0
TABLE
  2
LAYER
  70
1
  0
LAYER
  2
BLACK
  70
0
  62
7
  6
CONTINUOUS
  0
ENDTAB
  0
ENDSEC
  0
SECTION
  2
ENTITIES
0
LINE
8
BLACK
6
CONTINUOUS
10
-19.4884
20
-0.710621
11
-19.4884
21
-0.710621
0
LINE
8
BLACK
6
CONTINUOUS
10
-19.4884
20
-0.710621
11
-19.5113
21
-0.708371
0
LINE
8
BLACK
6
CONTINUOUS
10
-19.5113
20
-0.708371
11
-19.5113
21
-0.708371
0
LINE
8
BLACK
6
CONTINUOUS
10
-19.5113
20
-0.708371
11
-19.5113
21
-0.708371
0
LINE
8
BLACK
6
CONTINUOUS
10
-19.5113
20
-0.708371
11
-19.5113
21
-0.708368
0
LINE
8
BLACK
6
CONTINUOUS
10
-19.5113
20
-0.708368
11
-19.5115
21
-0.708332
0
LINE
8
BLACK
6
CONTINUOUS
10
-19.5115
20
-0.708332
11
-19.5117
21
-0.708296
0
LINE
8
BLACK
6
CONTINUOUS
10
-19.5117
20
-0.708296
11
-19.5338
21
-0.701634
0
LINE
8
BLACK
6
CONTINUOUS
10
-19.5338
20
-0.701634
11
-19.5338
21
-0.701634
0
LINE
8
BLACK
6
CONTINUOUS
10
-19.5338
20
-0.701634
11
-19.5338
21
-0.701634
0
LINE
8
BLACK
6
CONTINUOUS
10
-19.5338
20
-0.701634
11
-19.5338
21
-0.701626
0
LINE
8
BLACK
6
CONTINUOUS
10
-19.5338
20
-0.701626
11
-19.534
21
-0.701557
0
LINE
8
BLACK
6
CONTINUOUS
10
-19.534
20
-0.701557
11
-19.5341
21
-0.701488
0
LINE
8
BLACK
6
CONTINUOUS
10
-19.5341
20
-0.701488
11
-19.5545
21
-0.690666
0
LINE
8
BLACK
6
CONTINUOUS
10
-19.5545
20
-0.690666
11
-19.5545
21
-0.690666
0
LINE
8
BLACK
6
CONTINUOUS
10
-19.5545
20
-0.690666
11
-19.5545
21
-0.690653
0
LINE
8
BLACK
6
CONTINUOUS
10
-19.5545
20
-0.690653
11
-19.5546
21
-0.690552
0
LINE
8
BLACK
6
CONTINUOUS
10
-19.5546
20
-0.690552
11
-19.5548
21
-0.690453
0
LINE
8
BLACK
6
CONTINUOUS
10
-19.5548
20
-0.690453
11
-19.5727
21
-0.675884
0
LINE
8
BLACK
6
CONTINUOUS
10
-19.5727
20
-0.675884
11
-19.5727
21
-0.675884
0
LINE
8
BLACK
6
CONTINUOUS
10
-19.5727
20
-0.675884
11
-19.5727
21
-0.675884
0
LINE
8
BLACK
6
CONTINUOUS
10
-19.5727
20
-0.675884
11
-19.5727
21
-0.675867
0
LINE
8
BLACK
6
CONTINUOUS
10
-19.5727
20
-0.675867
11
-19.5728
21
-0.67574
0
LINE
8
BLACK
6
CONTINUOUS
10
-19.5728
20
-0.67574
11
-19.5729
21
-0.675614
0
LINE
8
BLACK
6
CONTINUOUS
10
-19.5729
20
-0.675614
11
-19.5876
21
-0.657852
0
LINE
8
BLACK
6
CONTINUOUS
10
-19.5876
20
-0.657852
11
-19.5876
21
-0.657831
0
LINE
8
BLACK
6
CONTINUOUS
10
-19.5876
20
-0.657831
11
-19.5877
21
-0.657682
0
LINE
8
BLACK
6
CONTINUOUS
10
-19.5877
20
-0.657682
11
-19.5878
21
-0.657534
0
LINE
8
BLACK
6
CONTINUOUS
10
-19.5878
20
-0.657534
11
-19.5988
21
-0.637257
0
LINE
8
BLACK
6
CONTINUOUS
10
-19.5988
20
-0.637257
11
-19.5988
21
-0.637257
0
LINE
8
BLACK
6
CONTINUOUS
10
-19.5988
20
-0.637257
11
-19.5988
21
-0.637257
0
LINE
8
BLACK
6
CONTINUOUS
10
-19.5988
20
-0.637257
11
-19.5988
21
-0.637233
0
LINE
8
BLACK
6
CONTINUOUS
10
-19.5988
20
-0.637233
11
-19.5989
21
-0.637068
0
LINE
8
BLACK
6
CONTINUOUS
10
-19.5989
20
-0.637068
11
-19.599
21
-0.636903
0
LINE
8
BLACK
6
CONTINUOUS
10
-19.599
20
-0.636903
11
-19.6058
21
-0.614883
0
LINE
8
BLACK
6
CONTINUOUS
10
-19.6058
20
-0.614883
11
-19.6058
21
-0.614856
0
LINE
8
BLACK
6
CONTINUOUS
10
-19.6058
20
-0.614856
11
-19.6058
21
-0.614681
0
LINE
8
BLACK
6
CONTINUOUS
10
-19.6058
20
-0.614681
11
-19.6058
21
-0.614506
0
LINE
8
BLACK
6
CONTINUOUS
10
-19.6058
20
-0.614506
11
-19.6083
21
-0.591581
0
LINE
8
BLACK
6
CONTINUOUS
10
-19.6083
20
-0.591581
11
-19.6083
21
-0.591554
0
LINE
8
BLACK
6
CONTINUOUS
10
-19.6083
20
-0.591554
11
-19.6083
21
-0.591468
0
LINE
8
BLACK
6
CONTINUOUS
10
-19.6083
20
-0.591468
11
-19.6083
21
-0.591383
0
LINE
8
BLACK
6
CONTINUOUS
10
-19.6083
20
-0.591383
11
-19.6083
21
-0.590651
0
LINE
8
BLACK
6
CONTINUOUS
10
-19.6083
20
-0.590651
11
-19.6083
21
-0.590648
0
LINE
8
BLACK
6
CONTINUOUS
10
-19.6083
20
-0.590648
11
-19.6083
21
2.55915
0
LINE
8
BLACK
6
CONTINUOUS
10
-19.6083
20
2.55915
11
-19.6083
21
2.55925
0
LINE
8
BLACK
6
CONTINUOUS
10
-19.6083
20
2.55925
11
-19.6083
21
2.55925
0
LINE
8
BLACK
6
CONTINUOUS
10
-19.6083
20
2.55925
11
-19.606
21
2.58219
0
LINE
8
BLACK
6
CONTINUOUS
10
-19.606
20
2.58219
11
-19.606
21
2.58219
0
LINE
8
BLACK
6
CONTINUOUS
10
-19.606
20
2.58219
11
-19.606
21
2.58219
0
LINE
8
BLACK
6
CONTINUOUS
10
-19.606
20
2.58219
11
-19.606
21
2.58222
0
LINE
8
BLACK
6
CONTINUOUS
10
-19.606
20
2.58222
11
-19.606
21
2.58239
0
LINE
8
BLACK
6
CONTINUOUS
10
-19.606
20
2.58239
11
-19.6059
21
2.58257
0
LINE
8
BLACK
6
CONTINUOUS
10
-19.6059
20
2.58257
11
-19.5993
21
2.60463
0
LINE
8
BLACK
6
CONTINUOUS
10
-19.5993
20
2.60463
11
-19.5993
21
2.60466
0
LINE
8
BLACK
6
CONTINUOUS
10
-19.5993
20
2.60466
11
-19.5992
21
2.60482
0
LINE
8
BLACK
6
CONTINUOUS
10
-19.5992
20
2.60482
11
-19.5991
21
2.60499
0
LINE
8
BLACK
6
CONTINUOUS
10
-19.5991
20
2.60499
11
-19.5883
21
2.62534
0
LINE
8
BLACK
6
CONTINUOUS
10
-19.5883
20
2.62534
11
-19.5883
21
2.62534
0
LINE
8
BLACK
6
CONTINUOUS
10
-19.5883
20
2.62534
11
-19.5883
21
2.62534
0
LINE
8
BLACK
6
CONTINUOUS
10
-19.5883
20
2.62534
11
-19.5883
21
2.62536
0
LINE
8
BLACK
6
CONTINUOUS
10
-19.5883
20
2.62536
11
-19.5882
21
2.62551
0
LINE
8
BLACK
6
CONTINUOUS
10
-19.5882
20
2.62551
11
-19.5881
21
2.62566
0
LINE
8
BLACK
6
CONTINUOUS
10
-19.5881
20
2.62566
11
-19.5735
21
2.64352
0
LINE
8
BLACK
6
CONTINUOUS
10
-19.5735
20
2.64352
11
-19.5735
21
2.64354
0
LINE
8
BLACK
6
CONTINUOUS
10
-19.5735
20
2.64354
11
-19.5734
21
2.64367
0
LINE
8
BLACK
6
CONTINUOUS
10
-19.5734
20
2.64367
11
-19.5733
21
2.6438
0
LINE
8
BLACK
6
CONTINUOUS
10
-19.5733
20
2.6438
11
-19.5555
21
2.65849
0
LINE
8
BLACK
6
CONTINUOUS
10
-19.5555
20
2.65849
11
-19.5555
21
2.65849
0
LINE
8
BLACK
6
CONTINUOUS
10
-19.5555
20
2.65849
11
-19.5555
21
2.65849
0
LINE
8
BLACK
6
CONTINUOUS
10
-19.5555
20
2.65849
11
-19.5555
21
2.65851
0
LINE
8
BLACK
6
CONTINUOUS
10
-19.5555
20
2.65851
11
-19.5553
21
2.6586
0
LINE
8
BLACK
6
CONTINUOUS
10
-19.5553
20
2.6586
11
-19.5552
21
2.6587
0
LINE
8
BLACK
6
CONTINUOUS
10
-19.5552
20
2.6587
11
-19.5349
21
2.66967
0
LINE
8
BLACK
6
CONTINUOUS
10
-19.5349
20
2.66967
11
-19.5349
21
2.66967
0
LINE
8
BLACK
6
CONTINUOUS
10
-19.5349
20
2.66967
11
-19.5349
21
2.66967
0
LINE
8
BLACK
6
CONTINUOUS
10
-19.5349
20
2.66967
11
-19.5349
21
2.66968
0
LINE
8
BLACK
6
CONTINUOUS
10
-19.5349
20
2.66968
11
-19.5347
21
2.66975
0
LINE
8
BLACK
6
CONTINUOUS
10
-19.5347
20
2.66975
11
-19.5345
21
2.66982
0
LINE
8
BLACK
6
CONTINUOUS
10
-19.5345
20
2.66982
11
-19.5125
21
2.67663
0
LINE
8
BLACK
6
CONTINUOUS
10
-19.5125
20
2.67663
11
-19.5125
21
2.67663
0
LINE
8
BLACK
6
CONTINUOUS
10
-19.5125
20
2.67663
11
-19.5125
21
2.67664
0
LINE
8
BLACK
6
CONTINUOUS
10
-19.5125
20
2.67664
11
-19.5123
21
2.67667
0
LINE
8
BLACK
6
CONTINUOUS
10
-19.5123
20
2.67667
11
-19.5121
21
2.67671
0
LINE
8
BLACK
6
CONTINUOUS
10
-19.5121
20
2.67671
11
-19.4892
21
2.67912
0
LINE
8
BLACK
6
CONTINUOUS
10
-19.4892
20
2.67912
11
-19.4892
21
2.67912
0
LINE
8
BLACK
6
CONTINUOUS
10
-19.4892
20
2.67912
11
-19.4891
21
2.67912
0
LINE
8
BLACK
6
CONTINUOUS
10
-19.4891
20
2.67912
11
-19.489
21
2.67913
0
LINE
8
BLACK
6
CONTINUOUS
10
-19.489
20
2.67913
11
-19.4883
21
2.67913
0
LINE
8
BLACK
6
CONTINUOUS
10
-19.4883
20
2.67913
11
-19.4883
21
2.67913
0
LINE
8
BLACK
6
CONTINUOUS
10
-19.4883
20
2.67913
11
-15.7873
21
2.67913
0
LINE
8
BLACK
6
CONTINUOUS
10
-15.7873
20
2.67913
11
-15.7872
21
2.67912
0
LINE
8
BLACK
6
CONTINUOUS
10
-15.7872
20
2.67912
11
-15.7872
21
2.67912
0
LINE
8
BLACK
6
CONTINUOUS
10
-15.7872
20
2.67912
11
-15.7643
21
2.67688
0
LINE
8
BLACK
6
CONTINUOUS
10
-15.7643
20
2.67688
11
-15.7643
21
2.67688
0
LINE
8
BLACK
6
CONTINUOUS
10
-15.7643
20
2.67688
11
-15.7643
21
2.67687
0
LINE
8
BLACK
6
CONTINUOUS
10
-15.7643
20
2.67687
11
-15.7642
21
2.67687
0
LINE
8
BLACK
6
CONTINUOUS
10
-15.7642
20
2.67687
11
-15.7641
21
2.67684
0
LINE
8
BLACK
6
CONTINUOUS
10
-15.7641
20
2.67684
11
-15.7639
21
2.6768
0
LINE
8
BLACK
6
CONTINUOUS
10
-15.7639
20
2.6768
11
-15.7418
21
2.67014
0
LINE
8
BLACK
6
CONTINUOUS
10
-15.7418
20
2.67014
11
-15.7418
21
2.67013
0
LINE
8
BLACK
6
CONTINUOUS
10
-15.7418
20
2.67013
11
-15.7416
21
2.67006
0
LINE
8
BLACK
6
CONTINUOUS
10
-15.7416
20
2.67006
11
-15.7415
21
2.66999
0
LINE
8
BLACK
6
CONTINUOUS
10
-15.7415
20
2.66999
11
-15.7211
21
2.65917
0
LINE
8
BLACK
6
CONTINUOUS
10
-15.7211
20
2.65917
11
-15.7211
21
2.65917
0
LINE
8
BLACK
6
CONTINUOUS
10
-15.7211
20
2.65917
11
-15.7211
21
2.65917
0
LINE
8
BLACK
6
CONTINUOUS
10
-15.7211
20
2.65917
11
-15.7211
21
2.65916
0
LINE
8
BLACK
6
CONTINUOUS
10
-15.7211
20
2.65916
11
-15.7209
21
2.65906
0
LINE
8
BLACK
6
CONTINUOUS
10
-15.7209
20
2.65906
11
-15.7208
21
2.65896
0
LINE
8
BLACK
6
CONTINUOUS
10
-15.7208
20
2.65896
11
-15.7029
21
2.64439
0
LINE
8
BLACK
6
CONTINUOUS
10
-15.7029
20
2.64439
11
-15.7029
21
2.64437
0
LINE
8
BLACK
6
CONTINUOUS
10
-15.7029
20
2.64437
11
-15.7028
21
2.64424
0
LINE
8
BLACK
6
CONTINUOUS
10
-15.7028
20
2.64424
11
-15.7027
21
2.64412
0
LINE
8
BLACK
6
CONTINUOUS
10
-15.7027
20
2.64412
11
-15.688
21
2.62636
0
LINE
8
BLACK
6
CONTINUOUS
10
-15.688
20
2.62636
11
-15.688
21
2.62636
0
LINE
8
BLACK
6
CONTINUOUS
10
-15.688
20
2.62636
11
-15.688
21
2.62636
0
LINE
8
BLACK
6
CONTINUOUS
10
-15.688
20
2.62636
11
-15.6879
21
2.62634
0
LINE
8
BLACK
6
CONTINUOUS
10
-15.6879
20
2.62634
11
-15.6879
21
2.62619
0
LINE
8
BLACK
6
CONTINUOUS
10
-15.6879
20
2.62619
11
-15.6878
21
2.62604
0
LINE
8
BLACK
6
CONTINUOUS
10
-15.6878
20
2.62604
11
-15.6768
21
2.60576
0
LINE
8
BLACK
6
CONTINUOUS
10
-15.6768
20
2.60576
11
-15.6768
21
2.60576
0
LINE
8
BLACK
6
CONTINUOUS
10
-15.6768
20
2.60576
11
-15.6768
21
2.60576
0
LINE
8
BLACK
6
CONTINUOUS
10
-15.6768
20
2.60576
11
-15.6768
21
2.60574
0
LINE
8
BLACK
6
CONTINUOUS
10
-15.6768
20
2.60574
11
-15.6767
21
2.60557
0
LINE
8
BLACK
6
CONTINUOUS
10
-15.6767
20
2.60557
11
-15.6766
21
2.60541
0
LINE
8
BLACK
6
CONTINUOUS
10
-15.6766
20
2.60541
11
-15.6698
21
2.58339
0
LINE
8
BLACK
6
CONTINUOUS
10
-15.6698
20
2.58339
11
-15.6698
21
2.58336
0
LINE
8
BLACK
6
CONTINUOUS
10
-15.6698
20
2.58336
11
-15.6698
21
2.58319
0
LINE
8
BLACK
6
CONTINUOUS
10
-15.6698
20
2.58319
11
-15.6697
21
2.58301
0
LINE
8
BLACK
6
CONTINUOUS
10
-15.6697
20
2.58301
11
-15.6673
21
2.56009
0
LINE
8
BLACK
6
CONTINUOUS
10
-15.6673
20
2.56009
11
-15.6673
21
2.56006
0
LINE
8
BLACK
6
CONTINUOUS
10
-15.6673
20
2.56006
11
-15.6673
21
2.55997
0
LINE
8
BLACK
6
CONTINUOUS
10
-15.6673
20
2.55997
11
-15.6673
21
2.55989
0
LINE
8
BLACK
6
CONTINUOUS
10
-15.6673
20
2.55989
11
-15.6673
21
2.55915
0
LINE
8
BLACK
6
CONTINUOUS
10
-15.6673
20
2.55915
11
-15.6673
21
2.55915
0
LINE
8
BLACK
6
CONTINUOUS
10
-15.6673
20
2.55915
11
-15.6673
21
-0.590648
0
LINE
8
BLACK
6
CONTINUOUS
10
-15.6673
20
-0.590648
11
-15.6673
21
-0.590743
0
LINE
8
BLACK
6
CONTINUOUS
10
-15.6673
20
-0.590743
11
-15.6673
21
-0.590743
0
LINE
8
BLACK
6
CONTINUOUS
10
-15.6673
20
-0.590743
11
-15.6696
21
-0.613684
0
LINE
8
BLACK
6
CONTINUOUS
10
-15.6696
20
-0.613684
11
-15.6696
21
-0.613684
0
LINE
8
BLACK
6
CONTINUOUS
10
-15.6696
20
-0.613684
11
-15.6696
21
-0.613685
0
LINE
8
BLACK
6
CONTINUOUS
10
-15.6696
20
-0.613685
11
-15.6696
21
-0.613712
0
LINE
8
BLACK
6
CONTINUOUS
10
-15.6696
20
-0.613712
11
-15.6696
21
-0.613884
0
LINE
8
BLACK
6
CONTINUOUS
10
-15.6696
20
-0.613884
11
-15.6697
21
-0.614061
0
LINE
8
BLACK
6
CONTINUOUS
10
-15.6697
20
-0.614061
11
-15.6763
21
-0.636128
0
LINE
8
BLACK
6
CONTINUOUS
10
-15.6763
20
-0.636128
11
-15.6763
21
-0.636128
0
LINE
8
BLACK
6
CONTINUOUS
10
-15.6763
20
-0.636128
11
-15.6763
21
-0.636129
0
LINE
8
BLACK
6
CONTINUOUS
10
-15.6763
20
-0.636129
11
-15.6763
21
-0.636155
0
LINE
8
BLACK
6
CONTINUOUS
10
-15.6763
20
-0.636155
11
-15.6764
21
-0.636316
0
LINE
8
BLACK
6
CONTINUOUS
10
-15.6764
20
-0.636316
11
-15.6765
21
-0.636484
0
LINE
8
BLACK
6
CONTINUOUS
10
-15.6765
20
-0.636484
11
-15.6873
21
-0.656837
0
LINE
8
BLACK
6
CONTINUOUS
10
-15.6873
20
-0.656837
11
-15.6873
21
-0.656861
0
LINE
8
BLACK
6
CONTINUOUS
10
-15.6873
20
-0.656861
11
-15.6874
21
-0.657008
0
LINE
8
BLACK
6
CONTINUOUS
10
-15.6874
20
-0.657008
11
-15.6875
21
-0.657157
0
LINE
8
BLACK
6
CONTINUOUS
10
-15.6875
20
-0.657157
11
-15.7021
21
-0.67502
0
LINE
8
BLACK
6
CONTINUOUS
10
-15.7021
20
-0.67502
11
-15.7021
21
-0.67502
0
LINE
8
BLACK
6
CONTINUOUS
10
-15.7021
20
-0.67502
11
-15.7021
21
-0.67502
0
LINE
8
BLACK
6
CONTINUOUS
10
-15.7021
20
-0.67502
11
-15.7021
21
-0.675041
0
LINE
8
BLACK
6
CONTINUOUS
10
-15.7021
20
-0.675041
11
-15.7022
21
-0.675165
0
LINE
8
BLACK
6
CONTINUOUS
10
-15.7022
20
-0.675165
11
-15.7023
21
-0.675292
0
LINE
8
BLACK
6
CONTINUOUS
10
-15.7023
20
-0.675292
11
-15.7201
21
-0.689986
0
LINE
8
BLACK
6
CONTINUOUS
10
-15.7201
20
-0.689986
11
-15.7201
21
-0.690003
0
LINE
8
BLACK
6
CONTINUOUS
10
-15.7201
20
-0.690003
11
-15.7203
21
-0.690101
0
LINE
8
BLACK
6
CONTINUOUS
10
-15.7203
20
-0.690101
11
-15.7204
21
-0.690201
0
LINE
8
BLACK
6
CONTINUOUS
10
-15.7204
20
-0.690201
11
-15.7407
21
-0.701164
0
LINE
8
BLACK
6
CONTINUOUS
10
-15.7407
20
-0.701164
11
-15.7407
21
-0.701164
0
LINE
8
BLACK
6
CONTINUOUS
10
-15.7407
20
-0.701164
11
-15.7407
21
-0.701164
0
LINE
8
BLACK
6
CONTINUOUS
10
-15.7407
20
-0.701164
11
-15.7407
21
-0.701177
0
LINE
8
BLACK
6
CONTINUOUS
10
-15.7407
20
-0.701177
11
-15.7409
21
-0.701244
0
LINE
8
BLACK
6
CONTINUOUS
10
-15.7409
20
-0.701244
11
-15.741
21
-0.701313
0
LINE
8
BLACK
6
CONTINUOUS
10
-15.741
20
-0.701313
11
-15.7631
21
-0.70813
0
LINE
8
BLACK
6
CONTINUOUS
10
-15.7631
20
-0.70813
11
-15.7631
21
-0.708137
0
LINE
8
BLACK
6
CONTINUOUS
10
-15.7631
20
-0.708137
11
-15.7633
21
-0.708171
0
LINE
8
BLACK
6
CONTINUOUS
10
-15.7633
20
-0.708171
11
-15.7634
21
-0.708207
0
LINE
8
BLACK
6
CONTINUOUS
10
-15.7634
20
-0.708207
11
-15.7864
21
-0.710616
0
LINE
8
BLACK
6
CONTINUOUS
10
-15.7864
20
-0.710616
11
-15.7864
21
-0.710619
0
LINE
8
BLACK
6
CONTINUOUS
10
-15.7864
20
-0.710619
11
-15.7865
21
-0.710618
0
LINE
8
BLACK
6
CONTINUOUS
10
-15.7865
20
-0.710618
11
-15.7866
21
-0.710627
0
LINE
8
BLACK
6
CONTINUOUS
10
-15.7866
20
-0.710627
11
-15.7873
21
-0.71063
0
LINE
8
BLACK
6
CONTINUOUS
10
-15.7873
20
-0.71063
11
-15.7873
21
-0.71063
0
LINE
8
BLACK
6
CONTINUOUS
10
-15.7873
20
-0.71063
11
-19.4883
21
-0.71063
0
LINE
8
BLACK
6
CONTINUOUS
10
-19.4883
20
-0.71063
11
-19.4884
21
-0.710621
0
LINE
8
BLACK
6
CONTINUOUS
10
-19.4882
20
2.6752
11
-19.4889
21
2.67519
0
LINE
8
BLACK
6
CONTINUOUS
10
-19.4889
20
2.67519
11
-19.5115
21
2.67282
0
LINE
8
BLACK
6
CONTINUOUS
10
-19.5115
20
2.67282
11
-19.5332
21
2.66611
0
LINE
8
BLACK
6
CONTINUOUS
10
-19.5332
20
2.66611
11
-19.5531
21
2.65533
0
LINE
8
BLACK
6
CONTINUOUS
10
-19.5531
20
2.65533
11
-19.5706
21
2.64089
0
LINE
8
BLACK
6
CONTINUOUS
10
-19.5706
20
2.64089
11
-19.5849
21
2.62332
0
LINE
8
BLACK
6
CONTINUOUS
10
-19.5849
20
2.62332
11
-19.5956
21
2.60331
0
LINE
8
BLACK
6
CONTINUOUS
10
-19.5956
20
2.60331
11
-19.6021
21
2.58161
0
LINE
8
BLACK
6
CONTINUOUS
10
-19.6021
20
2.58161
11
-19.6043
21
2.55896
0
LINE
8
BLACK
6
CONTINUOUS
10
-19.6043
20
2.55896
11
-19.6043
21
-0.590544
0
LINE
8
BLACK
6
CONTINUOUS
10
-19.6043
20
-0.590544
11
-19.6043
21
-0.591269
0
LINE
8
BLACK
6
CONTINUOUS
10
-19.6043
20
-0.591269
11
-19.6019
21
-0.613903
0
LINE
8
BLACK
6
CONTINUOUS
10
-19.6019
20
-0.613903
11
-19.5952
21
-0.635554
0
LINE
8
BLACK
6
CONTINUOUS
10
-19.5952
20
-0.635554
11
-19.5845
21
-0.655491
0
LINE
8
BLACK
6
CONTINUOUS
10
-19.5845
20
-0.655491
11
-19.57
21
-0.672955
0
LINE
8
BLACK
6
CONTINUOUS
10
-19.57
20
-0.672955
11
-19.5525
21
-0.68728
0
LINE
8
BLACK
6
CONTINUOUS
10
-19.5525
20
-0.68728
11
-19.5324
21
-0.697921
0
LINE
8
BLACK
6
CONTINUOUS
10
-19.5324
20
-0.697921
11
-19.5107
21
-0.704472
0
LINE
8
BLACK
6
CONTINUOUS
10
-19.5107
20
-0.704472
11
-19.4881
21
-0.706693
0
LINE
8
BLACK
6
CONTINUOUS
10
-19.4881
20
-0.706693
11
-15.7874
21
-0.706693
0
LINE
8
BLACK
6
CONTINUOUS
10
-15.7874
20
-0.706693
11
-15.7867
21
-0.70669
0
LINE
8
BLACK
6
CONTINUOUS
10
-15.7867
20
-0.70669
11
-15.764
21
-0.704311
0
LINE
8
BLACK
6
CONTINUOUS
10
-15.764
20
-0.704311
11
-15.7424
21
-0.697609
0
LINE
8
BLACK
6
CONTINUOUS
10
-15.7424
20
-0.697609
11
-15.7225
21
-0.686829
0
LINE
8
BLACK
6
CONTINUOUS
10
-15.7225
20
-0.686829
11
-15.705
21
-0.672382
0
LINE
8
BLACK
6
CONTINUOUS
10
-15.705
20
-0.672382
11
-15.6907
21
-0.654818
0
LINE
8
BLACK
6
CONTINUOUS
10
-15.6907
20
-0.654818
11
-15.68
21
-0.634806
0
LINE
8
BLACK
6
CONTINUOUS
10
-15.68
20
-0.634806
11
-15.6735
21
-0.613108
0
LINE
8
BLACK
6
CONTINUOUS
10
-15.6735
20
-0.613108
11
-15.6713
21
-0.590455
0
LINE
8
BLACK
6
CONTINUOUS
10
-15.6713
20
-0.590455
11
-15.6713
21
2.55905
0
LINE
8
BLACK
6
CONTINUOUS
10
-15.6713
20
2.55905
11
-15.6713
21
2.55977
0
LINE
8
BLACK
6
CONTINUOUS
10
-15.6713
20
2.55977
11
-15.6736
21
2.58241
0
LINE
8
BLACK
6
CONTINUOUS
10
-15.6736
20
2.58241
11
-15.6803
21
2.60406
0
LINE
8
BLACK
6
CONTINUOUS
10
-15.6803
20
2.60406
11
-15.6911
21
2.624
0
LINE
8
BLACK
6
CONTINUOUS
10
-15.6911
20
2.624
11
-15.7056
21
2.64146
0
LINE
8
BLACK
6
CONTINUOUS
10
-15.7056
20
2.64146
11
-15.7231
21
2.65578
0
LINE
8
BLACK
6
CONTINUOUS
10
-15.7231
20
2.65578
11
-15.7431
21
2.66642
0
LINE
8
BLACK
6
CONTINUOUS
10
-15.7431
20
2.66642
11
-15.7648
21
2.67298
0
LINE
8
BLACK
6
CONTINUOUS
10
-15.7648
20
2.67298
11
-15.7875
21
2.6752
0
LINE
8
BLACK
6
CONTINUOUS
10
-15.7875
20
2.6752
11
-19.4882
21
2.6752
  0
ENDSEC
  0
EOF
