<?xml version="1.0" standalone="no"?>
 <!DOCTYPE svg PUBLIC "-//W3C//DTD SVG 1.1//EN" 
 "http://www.w3.org/Graphics/SVG/1.1/DTD/svg11.dtd"> 
<svg
  xmlns:svg="http://www.w3.org/2000/svg"
  xmlns="http://www.w3.org/2000/svg"
  xmlns:xlink="http://www.w3.org/1999/xlink"
  version="1.1"
  width="29.700220cm" height="21.000720cm" viewBox="0 0 116930 82680">
<title>SVG Picture created as MinecraftPad-Dwgs_User.svg date 2021/04/01 17:07:24 </title>
  <desc>Picture generated by PCBNEW </desc>
<g style="fill:#000000; fill-opacity:1;stroke:#000000; stroke-opacity:1;
stroke-linecap:round; stroke-linejoin:round;"
 transform="translate(0 0) scale(1 1)">
</g>
<g style="fill:#000000; fill-opacity:0.0; 
stroke:#000000; stroke-width:-0.000393701; stroke-opacity:1; 
stroke-linecap:round; stroke-linejoin:round;">
</g>
<g style="fill:#000000; fill-opacity:0.0; 
stroke:#000000; stroke-width:47.2441; stroke-opacity:1; 
stroke-linecap:round; stroke-linejoin:round;">
<path d="M-198228 7874
L-155511 7874
" />
<path d="M-198228 7874
L-198228 -27559
" />
<path d="M-155511 -27559
L-155511 7874
" />
<path d="M-198228 -27559
L-155511 -27559
" />
</g>
<g style="fill:#000000; fill-opacity:0.0; 
stroke:#000000; stroke-width:59.0551; stroke-opacity:1; 
stroke-linecap:round; stroke-linejoin:round;">
<path d="M-189068 7687
L-189068 187
" />
<path d="M-196568 7687
L-189068 7687
" />
<path d="M-196568 187
L-196568 7687
" />
<path d="M-189068 187
L-196568 187
" />
<path d="M-179320 -1781
L-186820 -1781
" />
<path d="M-186820 -1781
L-186820 5718
" />
<path d="M-186820 5718
L-179320 5718
" />
<path d="M-179320 5718
L-179320 -1781
" />
<path d="M-171446 -3750
L-178946 -3750
" />
<path d="M-178946 -3750
L-178946 3750
" />
<path d="M-178946 3750
L-171446 3750
" />
<path d="M-171446 3750
L-171446 -3750
" />
<path d="M-163572 -1781
L-171072 -1781
" />
<path d="M-171072 -1781
L-171072 5718
" />
<path d="M-171072 5718
L-163572 5718
" />
<path d="M-163572 5718
L-163572 -1781
" />
<path d="M-155698 187
L-163198 187
" />
<path d="M-163198 187
L-163198 7687
" />
<path d="M-163198 7687
L-155698 7687
" />
<path d="M-155698 7687
L-155698 187
" />
<path d="M-187194 -7687
L-194694 -7687
" />
<path d="M-194694 -7687
L-194694 -187
" />
<path d="M-194694 -187
L-187194 -187
" />
<path d="M-187194 -187
L-187194 -7687
" />
<path d="M-179320 -9655
L-186820 -9655
" />
<path d="M-186820 -9655
L-186820 -2155
" />
<path d="M-186820 -2155
L-179320 -2155
" />
<path d="M-179320 -2155
L-179320 -9655
" />
<path d="M-171446 -11624
L-178946 -11624
" />
<path d="M-178946 -11624
L-178946 -4124
" />
<path d="M-178946 -4124
L-171446 -4124
" />
<path d="M-171446 -4124
L-171446 -11624
" />
<path d="M-163572 -9655
L-171072 -9655
" />
<path d="M-171072 -9655
L-171072 -2155
" />
<path d="M-171072 -2155
L-163572 -2155
" />
<path d="M-163572 -2155
L-163572 -9655
" />
<path d="M-155698 -7687
L-163198 -7687
" />
<path d="M-163198 -7687
L-163198 -187
" />
<path d="M-163198 -187
L-155698 -187
" />
<path d="M-155698 -187
L-155698 -7687
" />
<path d="M-187194 -15561
L-194694 -15561
" />
<path d="M-194694 -15561
L-194694 -8061
" />
<path d="M-194694 -8061
L-187194 -8061
" />
<path d="M-187194 -8061
L-187194 -15561
" />
<path d="M-179320 -17529
L-186820 -17529
" />
<path d="M-186820 -17529
L-186820 -10029
" />
<path d="M-186820 -10029
L-179320 -10029
" />
<path d="M-179320 -10029
L-179320 -17529
" />
<path d="M-171446 -19498
L-178946 -19498
" />
<path d="M-178946 -19498
L-178946 -11998
" />
<path d="M-178946 -11998
L-171446 -11998
" />
<path d="M-171446 -11998
L-171446 -19498
" />
<path d="M-163572 -17529
L-171072 -17529
" />
<path d="M-171072 -17529
L-171072 -10029
" />
<path d="M-171072 -10029
L-163572 -10029
" />
<path d="M-163572 -10029
L-163572 -17529
" />
<path d="M-155698 -15529
L-163198 -15529
" />
<path d="M-163198 -15529
L-163198 -8029
" />
<path d="M-163198 -8029
L-155698 -8029
" />
<path d="M-155698 -8029
L-155698 -15529
" />
<path d="M-187194 -23435
L-194694 -23435
" />
<path d="M-194694 -23435
L-194694 -15935
" />
<path d="M-194694 -15935
L-187194 -15935
" />
<path d="M-187194 -15935
L-187194 -23435
" />
<path d="M-179320 -25403
L-186820 -25403
" />
<path d="M-186820 -25403
L-186820 -17903
" />
<path d="M-186820 -17903
L-179320 -17903
" />
<path d="M-179320 -17903
L-179320 -25403
" />
<path d="M-171446 -27372
L-178946 -27372
" />
<path d="M-178946 -27372
L-178946 -19872
" />
<path d="M-178946 -19872
L-171446 -19872
" />
<path d="M-171446 -19872
L-171446 -27372
" />
<path d="M-163572 -25403
L-171072 -25403
" />
<path d="M-171072 -25403
L-171072 -17903
" />
<path d="M-171072 -17903
L-163572 -17903
" />
<path d="M-163572 -17903
L-163572 -25403
" />
<path d="M-155698 -23435
L-163198 -23435
" />
<path d="M-163198 -23435
L-163198 -15935
" />
<path d="M-163198 -15935
L-155698 -15935
" />
<path d="M-155698 -15935
L-155698 -23435
" />
</g>
<g style="fill:#000000; fill-opacity:0.0; 
stroke:#000000; stroke-width:78.7402; stroke-opacity:1; 
stroke-linecap:round; stroke-linejoin:round;">
<path d="M-189544 -25285
L-192444 -25285
" />
<path d="M-192444 -25285
L-192444 -27285
" />
<path d="M-192444 -27285
L-189544 -27285
" />
<path d="M-189544 -27285
L-189544 -25285
" />
<g >
</g>
<g >
</g>
<g >
</g>
<g >
</g>
<g >
</g>
<g >
</g>
<g >
</g>
<g >
</g>
<g >
</g>
<g >
</g>
<g >
</g>
<g >
</g>
<g >
</g>
<g >
</g>
<g >
</g>
<g >
</g>
<g >
</g>
<g >
</g>
<g >
</g>
<g >
</g>
<g >
</g>
<g >
</g>
<g >
</g>
<g >
</g>
<g >
</g>
<g >
</g>
<g >
</g>
<g >
</g>
<g >
</g>
<g >
</g>
<g >
</g>
<g >
</g>
<g >
</g>
<g >
</g>
<g >
</g>
<g >
</g>
<g >
</g>
<g >
</g>
<g >
</g>
<g >
</g>
<g >
</g>
<g >
</g>
<g >
</g>
<g >
</g>
<g >
</g>
<g >
</g>
</g> 
</svg>
