<?xml version="1.0" standalone="no"?>
 <!DOCTYPE svg PUBLIC "-//W3C//DTD SVG 1.1//EN" 
 "http://www.w3.org/Graphics/SVG/1.1/DTD/svg11.dtd"> 
<svg
  xmlns:svg="http://www.w3.org/2000/svg"
  xmlns="http://www.w3.org/2000/svg"
  xmlns:xlink="http://www.w3.org/1999/xlink"
  version="1.1"
  width="29.700220cm" height="21.000720cm" viewBox="0 0 116930 82680">
<title>SVG Picture created as MinecraftPad-F_CrtYd.svg date 2021/04/01 17:07:24 </title>
  <desc>Picture generated by PCBNEW </desc>
<g style="fill:#000000; fill-opacity:1;stroke:#000000; stroke-opacity:1;
stroke-linecap:round; stroke-linejoin:round;"
 transform="translate(0 0) scale(1 1)">
</g>
<g style="fill:#000000; fill-opacity:0.0; 
stroke:#000000; stroke-width:-0.000393701; stroke-opacity:1; 
stroke-linecap:round; stroke-linejoin:round;">
</g>
<g style="fill:#000000; fill-opacity:0.0; 
stroke:#000000; stroke-width:19.685; stroke-opacity:1; 
stroke-linecap:round; stroke-linejoin:round;">
<circle cx="-175197" cy="5905.51" r="1358.27" /> 
<circle cx="-159449" cy="-25590.6" r="1358.27" /> 
<circle cx="-179134" cy="-9842.52" r="1358.27" /> 
<circle cx="-185827" cy="-25590.6" r="1358.27" /> 
<path d="M-182173 4377
L-183968 4377
" />
<path d="M-182173 3496
L-182173 4377
" />
<path d="M-183968 3496
L-182173 3496
" />
<path d="M-183968 4377
L-183968 3496
" />
<path d="M-174299 2409
L-176094 2409
" />
<path d="M-174299 1527
L-174299 2409
" />
<path d="M-176094 1527
L-174299 1527
" />
<path d="M-176094 2409
L-176094 1527
" />
<path d="M-166425 4377
L-168220 4377
" />
<path d="M-166425 3496
L-166425 4377
" />
<path d="M-168220 3496
L-166425 3496
" />
<path d="M-168220 4377
L-168220 3496
" />
<path d="M-158551 440
L-160346 440
" />
<path d="M-158551 -440
L-158551 440
" />
<path d="M-160346 -440
L-158551 -440
" />
<path d="M-160346 440
L-160346 -440
" />
<path d="M-190047 -1527
L-191842 -1527
" />
<path d="M-190047 -2409
L-190047 -1527
" />
<path d="M-191842 -2409
L-190047 -2409
" />
<path d="M-191842 -1527
L-191842 -2409
" />
<path d="M-182173 -3496
L-183968 -3496
" />
<path d="M-182173 -4377
L-182173 -3496
" />
<path d="M-183968 -4377
L-182173 -4377
" />
<path d="M-183968 -3496
L-183968 -4377
" />
<path d="M-174299 -5464
L-176094 -5464
" />
<path d="M-174299 -6346
L-174299 -5464
" />
<path d="M-176094 -6346
L-174299 -6346
" />
<path d="M-176094 -5464
L-176094 -6346
" />
<path d="M-166425 -3496
L-168220 -3496
" />
<path d="M-166425 -4377
L-166425 -3496
" />
<path d="M-168220 -4377
L-166425 -4377
" />
<path d="M-168220 -3496
L-168220 -4377
" />
<path d="M-158551 -1527
L-160346 -1527
" />
<path d="M-158551 -2409
L-158551 -1527
" />
<path d="M-160346 -2409
L-158551 -2409
" />
<path d="M-160346 -1527
L-160346 -2409
" />
<path d="M-190022 -9401
L-191817 -9401
" />
<path d="M-190022 -10283
L-190022 -9401
" />
<path d="M-191817 -10283
L-190022 -10283
" />
<path d="M-191817 -9401
L-191817 -10283
" />
<path d="M-182173 -11370
L-183968 -11370
" />
<path d="M-182173 -12251
L-182173 -11370
" />
<path d="M-183968 -12251
L-182173 -12251
" />
<path d="M-183968 -11370
L-183968 -12251
" />
<path d="M-174299 -13338
L-176094 -13338
" />
<path d="M-174299 -14220
L-174299 -13338
" />
<path d="M-176094 -14220
L-174299 -14220
" />
<path d="M-176094 -13338
L-176094 -14220
" />
<path d="M-166425 -11370
L-168220 -11370
" />
<path d="M-166425 -12251
L-166425 -11370
" />
<path d="M-168220 -12251
L-166425 -12251
" />
<path d="M-168220 -11370
L-168220 -12251
" />
<path d="M-158526 -9401
L-160321 -9401
" />
<path d="M-158526 -10283
L-158526 -9401
" />
<path d="M-160321 -10283
L-158526 -10283
" />
<path d="M-160321 -9401
L-160321 -10283
" />
<path d="M-190047 -17669
L-191842 -17669
" />
<path d="M-190047 -18551
L-190047 -17669
" />
<path d="M-191842 -18551
L-190047 -18551
" />
<path d="M-191842 -17669
L-191842 -18551
" />
<path d="M-182148 -19244
L-183943 -19244
" />
<path d="M-182148 -20125
L-182148 -19244
" />
<path d="M-183943 -20125
L-182148 -20125
" />
<path d="M-183943 -19244
L-183943 -20125
" />
<path d="M-174299 -21212
L-176094 -21212
" />
<path d="M-174299 -22094
L-174299 -21212
" />
<path d="M-176094 -22094
L-174299 -22094
" />
<path d="M-176094 -21212
L-176094 -22094
" />
<path d="M-166425 -19244
L-168220 -19244
" />
<path d="M-166425 -20125
L-166425 -19244
" />
<path d="M-168220 -20125
L-166425 -20125
" />
<path d="M-168220 -19244
L-168220 -20125
" />
<path d="M-158526 -17275
L-160321 -17275
" />
<path d="M-158526 -18157
L-158526 -17275
" />
<path d="M-160321 -18157
L-158526 -18157
" />
<path d="M-160321 -17275
L-160321 -18157
" />
<path d="M-187685 2409
L-189480 2409
" />
<path d="M-187685 1527
L-187685 2409
" />
<path d="M-189480 1527
L-187685 1527
" />
<path d="M-189480 2409
L-189480 1527
" />
<g >
</g>
<g >
</g>
<g >
</g>
<g >
</g>
<g >
</g>
<g >
</g>
<g >
</g>
<g >
</g>
<g >
</g>
<g >
</g>
<g >
</g>
<g >
</g>
<g >
</g>
<g >
</g>
<g >
</g>
<g >
</g>
<g >
</g>
<g >
</g>
<g >
</g>
<g >
</g>
<g >
</g>
<g >
</g>
<g >
</g>
<g >
</g>
<g >
</g>
<g >
</g>
<g >
</g>
<g >
</g>
<g >
</g>
<g >
</g>
<g >
</g>
<g >
</g>
<g >
</g>
<g >
</g>
<g >
</g>
<g >
</g>
<g >
</g>
<g >
</g>
<g >
</g>
<g >
</g>
<g >
</g>
<g >
</g>
<g >
</g>
<g >
</g>
<g >
</g>
<g >
</g>
</g> 
</svg>
