<?xml version="1.0" standalone="no"?>
 <!DOCTYPE svg PUBLIC "-//W3C//DTD SVG 1.1//EN" 
 "http://www.w3.org/Graphics/SVG/1.1/DTD/svg11.dtd"> 
<svg
  xmlns:svg="http://www.w3.org/2000/svg"
  xmlns="http://www.w3.org/2000/svg"
  xmlns:xlink="http://www.w3.org/1999/xlink"
  version="1.1"
  width="29.700220cm" height="21.000720cm" viewBox="0 0 116930 82680">
<title>SVG Picture created as MinecraftPad-F_Fab.svg date 2021/04/01 17:07:24 </title>
  <desc>Picture generated by PCBNEW </desc>
<g style="fill:#000000; fill-opacity:1;stroke:#000000; stroke-opacity:1;
stroke-linecap:round; stroke-linejoin:round;"
 transform="translate(0 0) scale(1 1)">
</g>
<g style="fill:#000000; fill-opacity:0.0; 
stroke:#000000; stroke-width:-0.000393701; stroke-opacity:1; 
stroke-linecap:round; stroke-linejoin:round;">
</g>
<g style="fill:#000000; fill-opacity:0.0; 
stroke:#000000; stroke-width:39.3701; stroke-opacity:1; 
stroke-linecap:round; stroke-linejoin:round;">
<path d="M-182440 4251
L-182440 3622
" />
<path d="M-183700 4251
L-182440 4251
" />
<path d="M-183700 3779
L-183700 4251
" />
<path d="M-183543 3622
L-183700 3779
" />
<path d="M-182440 3622
L-183543 3622
" />
<path d="M-174566 2283
L-174566 1653
" />
<path d="M-175826 2283
L-174566 2283
" />
<path d="M-175826 1811
L-175826 2283
" />
<path d="M-175669 1653
L-175826 1811
" />
<path d="M-174566 1653
L-175669 1653
" />
<path d="M-166692 4251
L-166692 3622
" />
<path d="M-167952 4251
L-166692 4251
" />
<path d="M-167952 3779
L-167952 4251
" />
<path d="M-167795 3622
L-167952 3779
" />
<path d="M-166692 3622
L-167795 3622
" />
<path d="M-158818 314
L-158818 -314
" />
<path d="M-160078 314
L-158818 314
" />
<path d="M-160078 -157
L-160078 314
" />
<path d="M-159921 -314
L-160078 -157
" />
<path d="M-158818 -314
L-159921 -314
" />
<path d="M-190314 -1653
L-190314 -2283
" />
<path d="M-191574 -1653
L-190314 -1653
" />
<path d="M-191574 -2125
L-191574 -1653
" />
<path d="M-191417 -2283
L-191574 -2125
" />
<path d="M-190314 -2283
L-191417 -2283
" />
<path d="M-182440 -3622
L-182440 -4251
" />
<path d="M-183700 -3622
L-182440 -3622
" />
<path d="M-183700 -4094
L-183700 -3622
" />
<path d="M-183543 -4251
L-183700 -4094
" />
<path d="M-182440 -4251
L-183543 -4251
" />
<path d="M-174566 -5590
L-174566 -6220
" />
<path d="M-175826 -5590
L-174566 -5590
" />
<path d="M-175826 -6062
L-175826 -5590
" />
<path d="M-175669 -6220
L-175826 -6062
" />
<path d="M-174566 -6220
L-175669 -6220
" />
<path d="M-166692 -3622
L-166692 -4251
" />
<path d="M-167952 -3622
L-166692 -3622
" />
<path d="M-167952 -4094
L-167952 -3622
" />
<path d="M-167795 -4251
L-167952 -4094
" />
<path d="M-166692 -4251
L-167795 -4251
" />
<path d="M-158818 -1653
L-158818 -2283
" />
<path d="M-160078 -1653
L-158818 -1653
" />
<path d="M-160078 -2125
L-160078 -1653
" />
<path d="M-159921 -2283
L-160078 -2125
" />
<path d="M-158818 -2283
L-159921 -2283
" />
<path d="M-190290 -9527
L-190290 -10157
" />
<path d="M-191550 -9527
L-190290 -9527
" />
<path d="M-191550 -10000
L-191550 -9527
" />
<path d="M-191392 -10157
L-191550 -10000
" />
<path d="M-190290 -10157
L-191392 -10157
" />
<path d="M-182440 -11496
L-182440 -12125
" />
<path d="M-183700 -11496
L-182440 -11496
" />
<path d="M-183700 -11968
L-183700 -11496
" />
<path d="M-183543 -12125
L-183700 -11968
" />
<path d="M-182440 -12125
L-183543 -12125
" />
<path d="M-174566 -13464
L-174566 -14094
" />
<path d="M-175826 -13464
L-174566 -13464
" />
<path d="M-175826 -13937
L-175826 -13464
" />
<path d="M-175669 -14094
L-175826 -13937
" />
<path d="M-174566 -14094
L-175669 -14094
" />
<path d="M-166692 -11496
L-166692 -12125
" />
<path d="M-167952 -11496
L-166692 -11496
" />
<path d="M-167952 -11968
L-167952 -11496
" />
<path d="M-167795 -12125
L-167952 -11968
" />
<path d="M-166692 -12125
L-167795 -12125
" />
<path d="M-158794 -9527
L-158794 -10157
" />
<path d="M-160054 -9527
L-158794 -9527
" />
<path d="M-160054 -10000
L-160054 -9527
" />
<path d="M-159896 -10157
L-160054 -10000
" />
<path d="M-158794 -10157
L-159896 -10157
" />
<path d="M-190314 -17795
L-190314 -18425
" />
<path d="M-191574 -17795
L-190314 -17795
" />
<path d="M-191574 -18267
L-191574 -17795
" />
<path d="M-191417 -18425
L-191574 -18267
" />
<path d="M-190314 -18425
L-191417 -18425
" />
<path d="M-182416 -19370
L-182416 -20000
" />
<path d="M-183676 -19370
L-182416 -19370
" />
<path d="M-183676 -19842
L-183676 -19370
" />
<path d="M-183518 -20000
L-183676 -19842
" />
<path d="M-182416 -20000
L-183518 -20000
" />
<path d="M-174566 -21338
L-174566 -21968
" />
<path d="M-175826 -21338
L-174566 -21338
" />
<path d="M-175826 -21811
L-175826 -21338
" />
<path d="M-175669 -21968
L-175826 -21811
" />
<path d="M-174566 -21968
L-175669 -21968
" />
<path d="M-166692 -19370
L-166692 -20000
" />
<path d="M-167952 -19370
L-166692 -19370
" />
<path d="M-167952 -19842
L-167952 -19370
" />
<path d="M-167795 -20000
L-167952 -19842
" />
<path d="M-166692 -20000
L-167795 -20000
" />
<path d="M-158794 -17401
L-158794 -18031
" />
<path d="M-160054 -17401
L-158794 -17401
" />
<path d="M-160054 -17874
L-160054 -17401
" />
<path d="M-159896 -18031
L-160054 -17874
" />
<path d="M-158794 -18031
L-159896 -18031
" />
<path d="M-187952 2283
L-187952 1653
" />
<path d="M-189212 2283
L-187952 2283
" />
<path d="M-189212 1811
L-189212 2283
" />
<path d="M-189055 1653
L-189212 1811
" />
<path d="M-187952 1653
L-189055 1653
" />
<g >
</g>
<g >
</g>
<g >
</g>
<g >
</g>
<g >
</g>
<g >
</g>
<g >
</g>
<g >
</g>
<g >
</g>
<g >
</g>
<g >
</g>
<g >
</g>
<g >
</g>
<g >
</g>
<g >
</g>
<g >
</g>
<g >
</g>
<g >
</g>
<g >
</g>
<g >
</g>
<g >
</g>
<g >
</g>
<g >
</g>
<g >
</g>
<g >
</g>
<g >
</g>
<g >
</g>
<g >
</g>
<g >
</g>
<g >
</g>
<g >
</g>
<g >
</g>
<g >
</g>
<g >
</g>
<g >
</g>
<g >
</g>
<g >
</g>
<g >
</g>
<g >
</g>
<g >
</g>
<g >
</g>
<g >
</g>
<g >
</g>
<g >
</g>
<g >
</g>
<g >
</g>
</g> 
</svg>
