<?xml version="1.0" standalone="no"?>
 <!DOCTYPE svg PUBLIC "-//W3C//DTD SVG 1.1//EN" 
 "http://www.w3.org/Graphics/SVG/1.1/DTD/svg11.dtd"> 
<svg
  xmlns:svg="http://www.w3.org/2000/svg"
  xmlns="http://www.w3.org/2000/svg"
  xmlns:xlink="http://www.w3.org/1999/xlink"
  version="1.1"
  width="29.700220cm" height="21.000720cm" viewBox="0 0 116930 82680">
<title>SVG Picture created as MinecraftPad-B_SilkS.svg date 2021/04/01 17:07:24 </title>
  <desc>Picture generated by PCBNEW </desc>
<g style="fill:#000000; fill-opacity:1;stroke:#000000; stroke-opacity:1;
stroke-linecap:round; stroke-linejoin:round;"
 transform="translate(0 0) scale(1 1)">
</g>
<g style="fill:#000000; fill-opacity:0.0; 
stroke:#000000; stroke-width:-0.000393701; stroke-opacity:1; 
stroke-linecap:round; stroke-linejoin:round;">
</g>
<g style="fill:#000000; fill-opacity:0.0; 
stroke:#000000; stroke-width:47.2441; stroke-opacity:1; 
stroke-linecap:round; stroke-linejoin:round;">
<path d="M-190068 6687
L-190068 1187
" />
<path d="M-195568 6687
L-190068 6687
" />
<path d="M-195568 1187
L-195568 6687
" />
<path d="M-190068 1187
L-195568 1187
" />
<path d="M-180320 -781
L-185820 -781
" />
<path d="M-185820 -781
L-185820 4718
" />
<path d="M-185820 4718
L-180320 4718
" />
<path d="M-180320 4718
L-180320 -781
" />
<path d="M-172446 -2750
L-177946 -2750
" />
<path d="M-177946 -2750
L-177946 2750
" />
<path d="M-177946 2750
L-172446 2750
" />
<path d="M-172446 2750
L-172446 -2750
" />
<path d="M-164572 -781
L-170072 -781
" />
<path d="M-170072 -781
L-170072 4718
" />
<path d="M-170072 4718
L-164572 4718
" />
<path d="M-164572 4718
L-164572 -781
" />
<path d="M-156698 1187
L-162198 1187
" />
<path d="M-162198 1187
L-162198 6687
" />
<path d="M-162198 6687
L-156698 6687
" />
<path d="M-156698 6687
L-156698 1187
" />
<path d="M-188194 -6687
L-193694 -6687
" />
<path d="M-193694 -6687
L-193694 -1187
" />
<path d="M-193694 -1187
L-188194 -1187
" />
<path d="M-188194 -1187
L-188194 -6687
" />
<path d="M-180320 -8655
L-185820 -8655
" />
<path d="M-185820 -8655
L-185820 -3155
" />
<path d="M-185820 -3155
L-180320 -3155
" />
<path d="M-180320 -3155
L-180320 -8655
" />
<path d="M-172446 -10624
L-177946 -10624
" />
<path d="M-177946 -10624
L-177946 -5124
" />
<path d="M-177946 -5124
L-172446 -5124
" />
<path d="M-172446 -5124
L-172446 -10624
" />
<path d="M-164572 -8655
L-170072 -8655
" />
<path d="M-170072 -8655
L-170072 -3155
" />
<path d="M-170072 -3155
L-164572 -3155
" />
<path d="M-164572 -3155
L-164572 -8655
" />
<path d="M-156698 -6687
L-162198 -6687
" />
<path d="M-162198 -6687
L-162198 -1187
" />
<path d="M-162198 -1187
L-156698 -1187
" />
<path d="M-156698 -1187
L-156698 -6687
" />
<path d="M-188194 -14561
L-193694 -14561
" />
<path d="M-193694 -14561
L-193694 -9061
" />
<path d="M-193694 -9061
L-188194 -9061
" />
<path d="M-188194 -9061
L-188194 -14561
" />
<path d="M-180320 -16529
L-185820 -16529
" />
<path d="M-185820 -16529
L-185820 -11029
" />
<path d="M-185820 -11029
L-180320 -11029
" />
<path d="M-180320 -11029
L-180320 -16529
" />
<path d="M-172446 -18498
L-177946 -18498
" />
<path d="M-177946 -18498
L-177946 -12998
" />
<path d="M-177946 -12998
L-172446 -12998
" />
<path d="M-172446 -12998
L-172446 -18498
" />
<path d="M-164572 -16529
L-170072 -16529
" />
<path d="M-170072 -16529
L-170072 -11029
" />
<path d="M-170072 -11029
L-164572 -11029
" />
<path d="M-164572 -11029
L-164572 -16529
" />
<path d="M-156698 -14529
L-162198 -14529
" />
<path d="M-162198 -14529
L-162198 -9029
" />
<path d="M-162198 -9029
L-156698 -9029
" />
<path d="M-156698 -9029
L-156698 -14529
" />
<path d="M-188194 -22435
L-193694 -22435
" />
<path d="M-193694 -22435
L-193694 -16935
" />
<path d="M-193694 -16935
L-188194 -16935
" />
<path d="M-188194 -16935
L-188194 -22435
" />
<path d="M-180320 -24403
L-185820 -24403
" />
<path d="M-185820 -24403
L-185820 -18903
" />
<path d="M-185820 -18903
L-180320 -18903
" />
<path d="M-180320 -18903
L-180320 -24403
" />
<path d="M-172446 -26372
L-177946 -26372
" />
<path d="M-177946 -26372
L-177946 -20872
" />
<path d="M-177946 -20872
L-172446 -20872
" />
<path d="M-172446 -20872
L-172446 -26372
" />
<path d="M-164572 -24403
L-170072 -24403
" />
<path d="M-170072 -24403
L-170072 -18903
" />
<path d="M-170072 -18903
L-164572 -18903
" />
<path d="M-164572 -18903
L-164572 -24403
" />
<path d="M-156698 -22435
L-162198 -22435
" />
<path d="M-162198 -22435
L-162198 -16935
" />
<path d="M-162198 -16935
L-156698 -16935
" />
<path d="M-156698 -16935
L-156698 -22435
" />
</g>
<g style="fill:#000000; fill-opacity:0.0; 
stroke:#000000; stroke-width:150; stroke-opacity:1; 
stroke-linecap:round; stroke-linejoin:round;">
<path d="M-193444 -24685
L-194444 -24685
" />
<path d="M-193444 -25685
L-193444 -24685
" />
</g>
<g style="fill:#000000; fill-opacity:1.0; 
stroke:#000000; stroke-width:59.0551; stroke-opacity:1; 
stroke-linecap:round; stroke-linejoin:round;">
<path style="fill:#000000; fill-opacity:1.0; 
stroke:#000000; stroke-width:59.0551; stroke-opacity:1; 
stroke-linecap:round; stroke-linejoin:round;fill-rule:evenodd;"
d="M -188565,-23209
-188565,-23169.7
-188526,-23169.7
-188526,-23209
" /> 
<path style="fill:#000000; fill-opacity:1.0; 
stroke:#000000; stroke-width:59.0551; stroke-opacity:1; 
stroke-linecap:round; stroke-linejoin:round;fill-rule:evenodd;"
d="M -188486,-23366.5
-188486,-23051.6
-188447,-23051.6
-188447,-23366.5
" /> 
<path style="fill:#000000; fill-opacity:1.0; 
stroke:#000000; stroke-width:59.0551; stroke-opacity:1; 
stroke-linecap:round; stroke-linejoin:round;fill-rule:evenodd;"
d="M -188644,-23130.3
-188644,-23051.6
-188604,-23051.6
-188604,-23130.3
" /> 
<path style="fill:#000000; fill-opacity:1.0; 
stroke:#000000; stroke-width:59.0551; stroke-opacity:1; 
stroke-linecap:round; stroke-linejoin:round;fill-rule:evenodd;"
d="M -188644,-23366.5
-188644,-23248.4
-188604,-23248.4
-188604,-23366.5
" /> 
<path style="fill:#000000; fill-opacity:1.0; 
stroke:#000000; stroke-width:59.0551; stroke-opacity:1; 
stroke-linecap:round; stroke-linejoin:round;fill-rule:evenodd;"
d="M -188644,-23366.5
-188644,-23327.2
-188447,-23327.2
-188447,-23366.5
" /> 
</g>
<g style="fill:#000000; fill-opacity:1.0; 
stroke:#000000; stroke-width:150; stroke-opacity:1; 
stroke-linecap:round; stroke-linejoin:round;">
</g>
<g style="fill:#000000; fill-opacity:0.0; 
stroke:#000000; stroke-width:150; stroke-opacity:1; 
stroke-linecap:round; stroke-linejoin:round;">
<path d="M-187444 -13685
L-187444 -26685
" />
<path d="M-194444 -13685
L-187444 -13685
" />
<path d="M-194444 -26685
L-194444 -13685
" />
<path d="M-187444 -26685
L-194444 -26685
" />
<path d="M-193444 -25685
L-194444 -25685
" />
</g>
<g style="fill:#000000; fill-opacity:0.0; 
stroke:#000000; stroke-width:59.0551; stroke-opacity:1; 
stroke-linecap:round; stroke-linejoin:round;">
<text x="-188961" y="-23035.4"
transform="scale(-1 1) translate(377921.259843 0)"
textLength="463.161" font-size="419.947" lengthAdjust="spacingAndGlyphs"
text-anchor="middle" opacity="0">ST</text>
<path d="M-188750 -23065
L-188795 -23050
L-188870 -23050
L-188900 -23065
L-188915 -23080
L-188930 -23110
L-188930 -23140
L-188915 -23170
L-188900 -23185
L-188870 -23200
L-188810 -23215
L-188780 -23230
L-188765 -23245
L-188750 -23275
L-188750 -23305
L-188765 -23335
L-188780 -23350
L-188810 -23365
L-188885 -23365
L-188930 -23350
" />
<path d="M-189020 -23365
L-189200 -23365
" />
<path d="M-189110 -23050
L-189110 -23365
" />
<text x="-192351" y="-25027.6"
transform="scale(-1 1) translate(384702.261417 0)"
textLength="1708.01" font-size="419.947" lengthAdjust="spacingAndGlyphs"
text-anchor="middle" opacity="0">TX0/D3</text>
<path d="M-191488 -25357
L-191668 -25357
" />
<path d="M-191578 -25042
L-191578 -25357
" />
<path d="M-191743 -25357
L-191953 -25042
" />
<path d="M-191953 -25357
L-191743 -25042
" />
<path d="M-192133 -25357
L-192163 -25357
L-192193 -25342
L-192208 -25327
L-192223 -25297
L-192238 -25237
L-192238 -25162
L-192223 -25102
L-192208 -25072
L-192193 -25057
L-192163 -25042
L-192133 -25042
L-192103 -25057
L-192088 -25072
L-192073 -25102
L-192058 -25162
L-192058 -25237
L-192073 -25297
L-192088 -25327
L-192103 -25342
L-192133 -25357
" />
<path d="M-192598 -25372
L-192328 -24967
" />
<path d="M-192703 -25042
L-192703 -25357
L-192778 -25357
L-192823 -25342
L-192853 -25312
L-192868 -25282
L-192883 -25222
L-192883 -25177
L-192868 -25117
L-192853 -25087
L-192823 -25057
L-192778 -25042
L-192703 -25042
" />
<path d="M-192988 -25357
L-193183 -25357
L-193078 -25237
L-193123 -25237
L-193153 -25222
L-193168 -25207
L-193183 -25177
L-193183 -25102
L-193168 -25072
L-193153 -25057
L-193123 -25042
L-193033 -25042
L-193003 -25057
L-192988 -25072
" />
<text x="-188795" y="-15027.6"
transform="scale(-1 1) translate(377589.763780 0)"
textLength="538.152" font-size="419.947" lengthAdjust="spacingAndGlyphs"
text-anchor="middle" opacity="0">B2</text>
<path d="M-188667 -15207
L-188712 -15192
L-188727 -15177
L-188742 -15147
L-188742 -15102
L-188727 -15072
L-188712 -15057
L-188682 -15042
L-188562 -15042
L-188562 -15357
L-188667 -15357
L-188697 -15342
L-188712 -15327
L-188727 -15297
L-188727 -15267
L-188712 -15237
L-188697 -15222
L-188667 -15207
L-188562 -15207
" />
<path d="M-188862 -15327
L-188877 -15342
L-188907 -15357
L-188982 -15357
L-189012 -15342
L-189027 -15327
L-189042 -15297
L-189042 -15267
L-189027 -15222
L-188847 -15042
L-189042 -15042
" />
<text x="-188795" y="-18027.6"
transform="scale(-1 1) translate(377589.763780 0)"
textLength="493.157" font-size="419.947" lengthAdjust="spacingAndGlyphs"
text-anchor="middle" opacity="0">F7</text>
<path d="M-188689 -18207
L-188584 -18207
" />
<path d="M-188584 -18042
L-188584 -18357
L-188734 -18357
" />
<path d="M-188824 -18357
L-189034 -18357
L-188899 -18042
" />
<text x="-188795" y="-19027.6"
transform="scale(-1 1) translate(377589.763780 0)"
textLength="493.157" font-size="419.947" lengthAdjust="spacingAndGlyphs"
text-anchor="middle" opacity="0">F6</text>
<path d="M-188689 -19207
L-188584 -19207
" />
<path d="M-188584 -19042
L-188584 -19357
L-188734 -19357
" />
<path d="M-188989 -19357
L-188929 -19357
L-188899 -19342
L-188884 -19327
L-188854 -19282
L-188839 -19222
L-188839 -19102
L-188854 -19072
L-188869 -19057
L-188899 -19042
L-188959 -19042
L-188989 -19057
L-189004 -19072
L-189019 -19102
L-189019 -19177
L-189004 -19207
L-188989 -19222
L-188959 -19237
L-188899 -19237
L-188869 -19222
L-188854 -19207
L-188839 -19177
" />
<text x="-188795" y="-20027.6"
transform="scale(-1 1) translate(377589.763780 0)"
textLength="493.157" font-size="419.947" lengthAdjust="spacingAndGlyphs"
text-anchor="middle" opacity="0">F5</text>
<path d="M-188689 -20207
L-188584 -20207
" />
<path d="M-188584 -20042
L-188584 -20357
L-188734 -20357
" />
<path d="M-189004 -20357
L-188854 -20357
L-188839 -20207
L-188854 -20222
L-188884 -20237
L-188959 -20237
L-188989 -20222
L-189004 -20207
L-189019 -20177
L-189019 -20102
L-189004 -20072
L-188989 -20057
L-188959 -20042
L-188884 -20042
L-188854 -20057
L-188839 -20072
" />
<text x="-188795" y="-25027.6"
transform="scale(-1 1) translate(377589.763780 0)"
textLength="868.11" font-size="419.947" lengthAdjust="spacingAndGlyphs"
text-anchor="middle" opacity="0">RAW</text>
<path d="M-188577 -25042
L-188472 -25192
" />
<path d="M-188397 -25042
L-188397 -25357
L-188517 -25357
L-188547 -25342
L-188562 -25327
L-188577 -25297
L-188577 -25252
L-188562 -25222
L-188547 -25207
L-188517 -25192
L-188397 -25192
" />
<path d="M-188697 -25132
L-188847 -25132
" />
<path d="M-188667 -25042
L-188772 -25357
L-188877 -25042
" />
<path d="M-188952 -25357
L-189027 -25042
L-189087 -25267
L-189147 -25042
L-189222 -25357
" />
<text x="-188795" y="-24027.6"
transform="scale(-1 1) translate(377589.763780 0)"
textLength="883.108" font-size="419.947" lengthAdjust="spacingAndGlyphs"
text-anchor="middle" opacity="0">GND</text>
<path d="M-188554 -24342
L-188524 -24357
L-188479 -24357
L-188434 -24342
L-188404 -24312
L-188389 -24282
L-188374 -24222
L-188374 -24177
L-188389 -24117
L-188404 -24087
L-188434 -24057
L-188479 -24042
L-188509 -24042
L-188554 -24057
L-188569 -24072
L-188569 -24177
L-188509 -24177
" />
<path d="M-188704 -24042
L-188704 -24357
L-188884 -24042
L-188884 -24357
" />
<path d="M-189034 -24042
L-189034 -24357
L-189109 -24357
L-189154 -24342
L-189184 -24312
L-189199 -24282
L-189214 -24222
L-189214 -24177
L-189199 -24117
L-189184 -24087
L-189154 -24057
L-189109 -24042
L-189034 -24042
" />
<text x="-188795" y="-22027.6"
transform="scale(-1 1) translate(377589.763780 0)"
textLength="823.116" font-size="419.947" lengthAdjust="spacingAndGlyphs"
text-anchor="middle" opacity="0">VCC</text>
<path d="M-188374 -22357
L-188479 -22042
L-188584 -22357
" />
<path d="M-188869 -22072
L-188854 -22057
L-188809 -22042
L-188779 -22042
L-188734 -22057
L-188704 -22087
L-188689 -22117
L-188674 -22177
L-188674 -22222
L-188689 -22282
L-188704 -22312
L-188734 -22342
L-188779 -22357
L-188809 -22357
L-188854 -22342
L-188869 -22327
" />
<path d="M-189184 -22072
L-189169 -22057
L-189124 -22042
L-189094 -22042
L-189049 -22057
L-189019 -22087
L-189004 -22117
L-188989 -22177
L-188989 -22222
L-189004 -22282
L-189019 -22312
L-189049 -22342
L-189094 -22357
L-189124 -22357
L-189169 -22342
L-189184 -22327
" />
<text x="-188795" y="-21027.6"
transform="scale(-1 1) translate(377589.763780 0)"
textLength="493.157" font-size="419.947" lengthAdjust="spacingAndGlyphs"
text-anchor="middle" opacity="0">F4</text>
<path d="M-188689 -21207
L-188584 -21207
" />
<path d="M-188584 -21042
L-188584 -21357
L-188734 -21357
" />
<path d="M-188989 -21252
L-188989 -21042
" />
<path d="M-188914 -21372
L-188839 -21147
L-189034 -21147
" />
<text x="-188795" y="-17027.6"
transform="scale(-1 1) translate(377589.763780 0)"
textLength="538.152" font-size="419.947" lengthAdjust="spacingAndGlyphs"
text-anchor="middle" opacity="0">B1</text>
<path d="M-188667 -17207
L-188712 -17192
L-188727 -17177
L-188742 -17147
L-188742 -17102
L-188727 -17072
L-188712 -17057
L-188682 -17042
L-188562 -17042
L-188562 -17357
L-188667 -17357
L-188697 -17342
L-188712 -17327
L-188727 -17297
L-188727 -17267
L-188712 -17237
L-188697 -17222
L-188667 -17207
L-188562 -17207
" />
<path d="M-189042 -17042
L-188862 -17042
" />
<path d="M-188952 -17042
L-188952 -17357
L-188922 -17312
L-188892 -17282
L-188862 -17267
" />
<text x="-188795" y="-16027.6"
transform="scale(-1 1) translate(377589.763780 0)"
textLength="538.152" font-size="419.947" lengthAdjust="spacingAndGlyphs"
text-anchor="middle" opacity="0">B3</text>
<path d="M-188667 -16207
L-188712 -16192
L-188727 -16177
L-188742 -16147
L-188742 -16102
L-188727 -16072
L-188712 -16057
L-188682 -16042
L-188562 -16042
L-188562 -16357
L-188667 -16357
L-188697 -16342
L-188712 -16327
L-188727 -16297
L-188727 -16267
L-188712 -16237
L-188697 -16222
L-188667 -16207
L-188562 -16207
" />
<path d="M-188847 -16357
L-189042 -16357
L-188937 -16237
L-188982 -16237
L-189012 -16222
L-189027 -16207
L-189042 -16177
L-189042 -16102
L-189027 -16072
L-189012 -16057
L-188982 -16042
L-188892 -16042
L-188862 -16057
L-188847 -16072
" />
<text x="-188795" y="-14027.6"
transform="scale(-1 1) translate(377589.763780 0)"
textLength="538.152" font-size="419.947" lengthAdjust="spacingAndGlyphs"
text-anchor="middle" opacity="0">B6</text>
<path d="M-188667 -14207
L-188712 -14192
L-188727 -14177
L-188742 -14147
L-188742 -14102
L-188727 -14072
L-188712 -14057
L-188682 -14042
L-188562 -14042
L-188562 -14357
L-188667 -14357
L-188697 -14342
L-188712 -14327
L-188727 -14297
L-188727 -14267
L-188712 -14237
L-188697 -14222
L-188667 -14207
L-188562 -14207
" />
<path d="M-189012 -14357
L-188952 -14357
L-188922 -14342
L-188907 -14327
L-188877 -14282
L-188862 -14222
L-188862 -14102
L-188877 -14072
L-188892 -14057
L-188922 -14042
L-188982 -14042
L-189012 -14057
L-189027 -14072
L-189042 -14102
L-189042 -14177
L-189027 -14207
L-189012 -14222
L-188982 -14237
L-188922 -14237
L-188892 -14222
L-188877 -14207
L-188862 -14177
" />
<text x="-193095" y="-14027.6"
transform="scale(-1 1) translate(386189.763780 0)"
textLength="538.152" font-size="419.947" lengthAdjust="spacingAndGlyphs"
text-anchor="middle" opacity="0">B5</text>
<path d="M-192967 -14207
L-193012 -14192
L-193027 -14177
L-193042 -14147
L-193042 -14102
L-193027 -14072
L-193012 -14057
L-192982 -14042
L-192862 -14042
L-192862 -14357
L-192967 -14357
L-192997 -14342
L-193012 -14327
L-193027 -14297
L-193027 -14267
L-193012 -14237
L-192997 -14222
L-192967 -14207
L-192862 -14207
" />
<path d="M-193327 -14357
L-193177 -14357
L-193162 -14207
L-193177 -14222
L-193207 -14237
L-193282 -14237
L-193312 -14222
L-193327 -14207
L-193342 -14177
L-193342 -14102
L-193327 -14072
L-193312 -14057
L-193282 -14042
L-193207 -14042
L-193177 -14057
L-193162 -14072
" />
<text x="-193095" y="-15027.6"
transform="scale(-1 1) translate(386189.763780 0)"
textLength="538.152" font-size="419.947" lengthAdjust="spacingAndGlyphs"
text-anchor="middle" opacity="0">B4</text>
<path d="M-192967 -15207
L-193012 -15192
L-193027 -15177
L-193042 -15147
L-193042 -15102
L-193027 -15072
L-193012 -15057
L-192982 -15042
L-192862 -15042
L-192862 -15357
L-192967 -15357
L-192997 -15342
L-193012 -15327
L-193027 -15297
L-193027 -15267
L-193012 -15237
L-192997 -15222
L-192967 -15207
L-192862 -15207
" />
<path d="M-193312 -15252
L-193312 -15042
" />
<path d="M-193237 -15372
L-193162 -15147
L-193357 -15147
" />
<text x="-193095" y="-16027.6"
transform="scale(-1 1) translate(386189.763780 0)"
textLength="508.155" font-size="419.947" lengthAdjust="spacingAndGlyphs"
text-anchor="middle" opacity="0">E6</text>
<path d="M-192877 -16207
L-192982 -16207
" />
<path d="M-193027 -16042
L-192877 -16042
L-192877 -16357
L-193027 -16357
" />
<path d="M-193297 -16357
L-193237 -16357
L-193207 -16342
L-193192 -16327
L-193162 -16282
L-193147 -16222
L-193147 -16102
L-193162 -16072
L-193177 -16057
L-193207 -16042
L-193267 -16042
L-193297 -16057
L-193312 -16072
L-193327 -16102
L-193327 -16177
L-193312 -16207
L-193297 -16222
L-193267 -16237
L-193207 -16237
L-193177 -16222
L-193162 -16207
L-193147 -16177
" />
<text x="-193095" y="-17027.6"
transform="scale(-1 1) translate(386189.763780 0)"
textLength="538.152" font-size="419.947" lengthAdjust="spacingAndGlyphs"
text-anchor="middle" opacity="0">D7</text>
<path d="M-192862 -17042
L-192862 -17357
L-192937 -17357
L-192982 -17342
L-193012 -17312
L-193027 -17282
L-193042 -17222
L-193042 -17177
L-193027 -17117
L-193012 -17087
L-192982 -17057
L-192937 -17042
L-192862 -17042
" />
<path d="M-193147 -17357
L-193357 -17357
L-193222 -17042
" />
<text x="-193095" y="-18027.6"
transform="scale(-1 1) translate(386189.763780 0)"
textLength="538.152" font-size="419.947" lengthAdjust="spacingAndGlyphs"
text-anchor="middle" opacity="0">C6</text>
<path d="M-193042 -18072
L-193027 -18057
L-192982 -18042
L-192952 -18042
L-192907 -18057
L-192877 -18087
L-192862 -18117
L-192847 -18177
L-192847 -18222
L-192862 -18282
L-192877 -18312
L-192907 -18342
L-192952 -18357
L-192982 -18357
L-193027 -18342
L-193042 -18327
" />
<path d="M-193312 -18357
L-193252 -18357
L-193222 -18342
L-193207 -18327
L-193177 -18282
L-193162 -18222
L-193162 -18102
L-193177 -18072
L-193192 -18057
L-193222 -18042
L-193282 -18042
L-193312 -18057
L-193327 -18072
L-193342 -18102
L-193342 -18177
L-193327 -18207
L-193312 -18222
L-193282 -18237
L-193222 -18237
L-193192 -18222
L-193177 -18207
L-193162 -18177
" />
<text x="-193095" y="-19027.6"
transform="scale(-1 1) translate(386189.763780 0)"
textLength="538.152" font-size="419.947" lengthAdjust="spacingAndGlyphs"
text-anchor="middle" opacity="0">D4</text>
<path d="M-192862 -19042
L-192862 -19357
L-192937 -19357
L-192982 -19342
L-193012 -19312
L-193027 -19282
L-193042 -19222
L-193042 -19177
L-193027 -19117
L-193012 -19087
L-192982 -19057
L-192937 -19042
L-192862 -19042
" />
<path d="M-193312 -19252
L-193312 -19042
" />
<path d="M-193237 -19372
L-193162 -19147
L-193357 -19147
" />
<text x="-193095" y="-23027.6"
transform="scale(-1 1) translate(386189.763780 0)"
textLength="883.108" font-size="419.947" lengthAdjust="spacingAndGlyphs"
text-anchor="middle" opacity="0">GND</text>
<path d="M-192854 -23342
L-192824 -23357
L-192779 -23357
L-192734 -23342
L-192704 -23312
L-192689 -23282
L-192674 -23222
L-192674 -23177
L-192689 -23117
L-192704 -23087
L-192734 -23057
L-192779 -23042
L-192809 -23042
L-192854 -23057
L-192869 -23072
L-192869 -23177
L-192809 -23177
" />
<path d="M-193004 -23042
L-193004 -23357
L-193184 -23042
L-193184 -23357
" />
<path d="M-193334 -23042
L-193334 -23357
L-193409 -23357
L-193454 -23342
L-193484 -23312
L-193499 -23282
L-193514 -23222
L-193514 -23177
L-193499 -23117
L-193484 -23087
L-193454 -23057
L-193409 -23042
L-193334 -23042
" />
<text x="-193095" y="-22027.6"
transform="scale(-1 1) translate(386189.763780 0)"
textLength="883.108" font-size="419.947" lengthAdjust="spacingAndGlyphs"
text-anchor="middle" opacity="0">GND</text>
<path d="M-192854 -22342
L-192824 -22357
L-192779 -22357
L-192734 -22342
L-192704 -22312
L-192689 -22282
L-192674 -22222
L-192674 -22177
L-192689 -22117
L-192704 -22087
L-192734 -22057
L-192779 -22042
L-192809 -22042
L-192854 -22057
L-192869 -22072
L-192869 -22177
L-192809 -22177
" />
<path d="M-193004 -22042
L-193004 -22357
L-193184 -22042
L-193184 -22357
" />
<path d="M-193334 -22042
L-193334 -22357
L-193409 -22357
L-193454 -22342
L-193484 -22312
L-193499 -22282
L-193514 -22222
L-193514 -22177
L-193499 -22117
L-193484 -22087
L-193454 -22057
L-193409 -22042
L-193334 -22042
" />
<text x="-193095" y="-21027.6"
transform="scale(-1 1) translate(386189.763780 0)"
textLength="538.152" font-size="419.947" lengthAdjust="spacingAndGlyphs"
text-anchor="middle" opacity="0">D1</text>
<path d="M-192862 -21042
L-192862 -21357
L-192937 -21357
L-192982 -21342
L-193012 -21312
L-193027 -21282
L-193042 -21222
L-193042 -21177
L-193027 -21117
L-193012 -21087
L-192982 -21057
L-192937 -21042
L-192862 -21042
" />
<path d="M-193342 -21042
L-193162 -21042
" />
<path d="M-193252 -21042
L-193252 -21357
L-193222 -21312
L-193192 -21282
L-193162 -21267
" />
<text x="-193095" y="-20027.6"
transform="scale(-1 1) translate(386189.763780 0)"
textLength="538.152" font-size="419.947" lengthAdjust="spacingAndGlyphs"
text-anchor="middle" opacity="0">D0</text>
<path d="M-192862 -20042
L-192862 -20357
L-192937 -20357
L-192982 -20342
L-193012 -20312
L-193027 -20282
L-193042 -20222
L-193042 -20177
L-193027 -20117
L-193012 -20087
L-192982 -20057
L-192937 -20042
L-192862 -20042
" />
<path d="M-193237 -20357
L-193267 -20357
L-193297 -20342
L-193312 -20327
L-193327 -20297
L-193342 -20237
L-193342 -20162
L-193327 -20102
L-193312 -20072
L-193297 -20057
L-193267 -20042
L-193237 -20042
L-193207 -20057
L-193192 -20072
L-193177 -20102
L-193162 -20162
L-193162 -20237
L-193177 -20297
L-193192 -20327
L-193207 -20342
L-193237 -20357
" />
<text x="-193095" y="-24027.6"
transform="scale(-1 1) translate(386189.763780 0)"
textLength="538.152" font-size="419.947" lengthAdjust="spacingAndGlyphs"
text-anchor="middle" opacity="0">D2</text>
<path d="M-192862 -24042
L-192862 -24357
L-192937 -24357
L-192982 -24342
L-193012 -24312
L-193027 -24282
L-193042 -24222
L-193042 -24177
L-193027 -24117
L-193012 -24087
L-192982 -24057
L-192937 -24042
L-192862 -24042
" />
<path d="M-193162 -24327
L-193177 -24342
L-193207 -24357
L-193282 -24357
L-193312 -24342
L-193327 -24327
L-193342 -24297
L-193342 -24267
L-193327 -24222
L-193147 -24042
L-193342 -24042
" />
<g >
</g>
</g> 
</svg>
