%TF.GenerationSoftware,KiCad,Pcbnew,(5.1.9-0-10_14)*%
%TF.CreationDate,2021-04-06T08:54:49+08:00*%
%TF.ProjectId,CraftPad,43726166-7450-4616-942e-6b696361645f,v0.5*%
%TF.SameCoordinates,Original*%
%TF.FileFunction,Legend,Top*%
%TF.FilePolarity,Positive*%
%FSLAX46Y46*%
G04 Gerber Fmt 4.6, Leading zero omitted, Abs format (unit mm)*
G04 Created by KiCad (PCBNEW (5.1.9-0-10_14)) date 2021-04-06 08:54:49*
%MOMM*%
%LPD*%
G01*
G04 APERTURE LIST*
%ADD10C,0.100000*%
%ADD11C,0.150000*%
%ADD12C,0.300000*%
%ADD13C,0.400000*%
%ADD14C,0.120000*%
%ADD15C,0.381000*%
G04 APERTURE END LIST*
D10*
D11*
X177002200Y-166007200D02*
X177002200Y-198007200D01*
X285002200Y-198007200D01*
X285002200Y-166007200D01*
X177002200Y-166007200D01*
D10*
D11*
X10000000Y-10000000D02*
X10000000Y-200007200D01*
X287002200Y-200007200D01*
X287002200Y-10000000D01*
X10000000Y-10000000D01*
D10*
D11*
X12000000Y-12000000D02*
X12000000Y-198007200D01*
X285002200Y-198007200D01*
X285002200Y-12000000D01*
X12000000Y-12000000D01*
D10*
D11*
X60000000Y-12000000D02*
X60000000Y-10000000D01*
D10*
D11*
X110000000Y-12000000D02*
X110000000Y-10000000D01*
D10*
D11*
X160000000Y-12000000D02*
X160000000Y-10000000D01*
D10*
D11*
X210000000Y-12000000D02*
X210000000Y-10000000D01*
D10*
D11*
X260000000Y-12000000D02*
X260000000Y-10000000D01*
D10*
D11*
X36065476Y-11588095D02*
X35322619Y-11588095D01*
X35694047Y-11588095D02*
X35694047Y-10288095D01*
X35570238Y-10473809D01*
X35446428Y-10597619D01*
X35322619Y-10659523D01*
D10*
D11*
X85322619Y-10411904D02*
X85384523Y-10350000D01*
X85508333Y-10288095D01*
X85817857Y-10288095D01*
X85941666Y-10350000D01*
X86003571Y-10411904D01*
X86065476Y-10535714D01*
X86065476Y-10659523D01*
X86003571Y-10845238D01*
X85260714Y-11588095D01*
X86065476Y-11588095D01*
D10*
D11*
X135260714Y-10288095D02*
X136065476Y-10288095D01*
X135632142Y-10783333D01*
X135817857Y-10783333D01*
X135941666Y-10845238D01*
X136003571Y-10907142D01*
X136065476Y-11030952D01*
X136065476Y-11340476D01*
X136003571Y-11464285D01*
X135941666Y-11526190D01*
X135817857Y-11588095D01*
X135446428Y-11588095D01*
X135322619Y-11526190D01*
X135260714Y-11464285D01*
D10*
D11*
X185941666Y-10721428D02*
X185941666Y-11588095D01*
X185632142Y-10226190D02*
X185322619Y-11154761D01*
X186127380Y-11154761D01*
D10*
D11*
X236003571Y-10288095D02*
X235384523Y-10288095D01*
X235322619Y-10907142D01*
X235384523Y-10845238D01*
X235508333Y-10783333D01*
X235817857Y-10783333D01*
X235941666Y-10845238D01*
X236003571Y-10907142D01*
X236065476Y-11030952D01*
X236065476Y-11340476D01*
X236003571Y-11464285D01*
X235941666Y-11526190D01*
X235817857Y-11588095D01*
X235508333Y-11588095D01*
X235384523Y-11526190D01*
X235322619Y-11464285D01*
D10*
D11*
X285941666Y-10288095D02*
X285694047Y-10288095D01*
X285570238Y-10350000D01*
X285508333Y-10411904D01*
X285384523Y-10597619D01*
X285322619Y-10845238D01*
X285322619Y-11340476D01*
X285384523Y-11464285D01*
X285446428Y-11526190D01*
X285570238Y-11588095D01*
X285817857Y-11588095D01*
X285941666Y-11526190D01*
X286003571Y-11464285D01*
X286065476Y-11340476D01*
X286065476Y-11030952D01*
X286003571Y-10907142D01*
X285941666Y-10845238D01*
X285817857Y-10783333D01*
X285570238Y-10783333D01*
X285446428Y-10845238D01*
X285384523Y-10907142D01*
X285322619Y-11030952D01*
D10*
D11*
X60000000Y-198007200D02*
X60000000Y-200007200D01*
D10*
D11*
X110000000Y-198007200D02*
X110000000Y-200007200D01*
D10*
D11*
X160000000Y-198007200D02*
X160000000Y-200007200D01*
D10*
D11*
X210000000Y-198007200D02*
X210000000Y-200007200D01*
D10*
D11*
X260000000Y-198007200D02*
X260000000Y-200007200D01*
D10*
D11*
X36065476Y-199595295D02*
X35322619Y-199595295D01*
X35694047Y-199595295D02*
X35694047Y-198295295D01*
X35570238Y-198481009D01*
X35446428Y-198604819D01*
X35322619Y-198666723D01*
D10*
D11*
X85322619Y-198419104D02*
X85384523Y-198357200D01*
X85508333Y-198295295D01*
X85817857Y-198295295D01*
X85941666Y-198357200D01*
X86003571Y-198419104D01*
X86065476Y-198542914D01*
X86065476Y-198666723D01*
X86003571Y-198852438D01*
X85260714Y-199595295D01*
X86065476Y-199595295D01*
D10*
D11*
X135260714Y-198295295D02*
X136065476Y-198295295D01*
X135632142Y-198790533D01*
X135817857Y-198790533D01*
X135941666Y-198852438D01*
X136003571Y-198914342D01*
X136065476Y-199038152D01*
X136065476Y-199347676D01*
X136003571Y-199471485D01*
X135941666Y-199533390D01*
X135817857Y-199595295D01*
X135446428Y-199595295D01*
X135322619Y-199533390D01*
X135260714Y-199471485D01*
D10*
D11*
X185941666Y-198728628D02*
X185941666Y-199595295D01*
X185632142Y-198233390D02*
X185322619Y-199161961D01*
X186127380Y-199161961D01*
D10*
D11*
X236003571Y-198295295D02*
X235384523Y-198295295D01*
X235322619Y-198914342D01*
X235384523Y-198852438D01*
X235508333Y-198790533D01*
X235817857Y-198790533D01*
X235941666Y-198852438D01*
X236003571Y-198914342D01*
X236065476Y-199038152D01*
X236065476Y-199347676D01*
X236003571Y-199471485D01*
X235941666Y-199533390D01*
X235817857Y-199595295D01*
X235508333Y-199595295D01*
X235384523Y-199533390D01*
X235322619Y-199471485D01*
D10*
D11*
X285941666Y-198295295D02*
X285694047Y-198295295D01*
X285570238Y-198357200D01*
X285508333Y-198419104D01*
X285384523Y-198604819D01*
X285322619Y-198852438D01*
X285322619Y-199347676D01*
X285384523Y-199471485D01*
X285446428Y-199533390D01*
X285570238Y-199595295D01*
X285817857Y-199595295D01*
X285941666Y-199533390D01*
X286003571Y-199471485D01*
X286065476Y-199347676D01*
X286065476Y-199038152D01*
X286003571Y-198914342D01*
X285941666Y-198852438D01*
X285817857Y-198790533D01*
X285570238Y-198790533D01*
X285446428Y-198852438D01*
X285384523Y-198914342D01*
X285322619Y-199038152D01*
D10*
D11*
X10000000Y-60000000D02*
X12000000Y-60000000D01*
D10*
D11*
X10000000Y-110000000D02*
X12000000Y-110000000D01*
D10*
D11*
X10000000Y-160000000D02*
X12000000Y-160000000D01*
D10*
D11*
X10690476Y-35216666D02*
X11309523Y-35216666D01*
X10566666Y-35588095D02*
X11000000Y-34288095D01*
X11433333Y-35588095D01*
D10*
D11*
X11092857Y-84907142D02*
X11278571Y-84969047D01*
X11340476Y-85030952D01*
X11402380Y-85154761D01*
X11402380Y-85340476D01*
X11340476Y-85464285D01*
X11278571Y-85526190D01*
X11154761Y-85588095D01*
X10659523Y-85588095D01*
X10659523Y-84288095D01*
X11092857Y-84288095D01*
X11216666Y-84350000D01*
X11278571Y-84411904D01*
X11340476Y-84535714D01*
X11340476Y-84659523D01*
X11278571Y-84783333D01*
X11216666Y-84845238D01*
X11092857Y-84907142D01*
X10659523Y-84907142D01*
D10*
D11*
X11402380Y-135464285D02*
X11340476Y-135526190D01*
X11154761Y-135588095D01*
X11030952Y-135588095D01*
X10845238Y-135526190D01*
X10721428Y-135402380D01*
X10659523Y-135278571D01*
X10597619Y-135030952D01*
X10597619Y-134845238D01*
X10659523Y-134597619D01*
X10721428Y-134473809D01*
X10845238Y-134350000D01*
X11030952Y-134288095D01*
X11154761Y-134288095D01*
X11340476Y-134350000D01*
X11402380Y-134411904D01*
D10*
D11*
X10659523Y-185588095D02*
X10659523Y-184288095D01*
X10969047Y-184288095D01*
X11154761Y-184350000D01*
X11278571Y-184473809D01*
X11340476Y-184597619D01*
X11402380Y-184845238D01*
X11402380Y-185030952D01*
X11340476Y-185278571D01*
X11278571Y-185402380D01*
X11154761Y-185526190D01*
X10969047Y-185588095D01*
X10659523Y-185588095D01*
D10*
D11*
X287002200Y-60000000D02*
X285002200Y-60000000D01*
D10*
D11*
X287002200Y-110000000D02*
X285002200Y-110000000D01*
D10*
D11*
X287002200Y-160000000D02*
X285002200Y-160000000D01*
D10*
D11*
X285692676Y-35216666D02*
X286311723Y-35216666D01*
X285568866Y-35588095D02*
X286002200Y-34288095D01*
X286435533Y-35588095D01*
D10*
D11*
X286095057Y-84907142D02*
X286280771Y-84969047D01*
X286342676Y-85030952D01*
X286404580Y-85154761D01*
X286404580Y-85340476D01*
X286342676Y-85464285D01*
X286280771Y-85526190D01*
X286156961Y-85588095D01*
X285661723Y-85588095D01*
X285661723Y-84288095D01*
X286095057Y-84288095D01*
X286218866Y-84350000D01*
X286280771Y-84411904D01*
X286342676Y-84535714D01*
X286342676Y-84659523D01*
X286280771Y-84783333D01*
X286218866Y-84845238D01*
X286095057Y-84907142D01*
X285661723Y-84907142D01*
D10*
D11*
X286404580Y-135464285D02*
X286342676Y-135526190D01*
X286156961Y-135588095D01*
X286033152Y-135588095D01*
X285847438Y-135526190D01*
X285723628Y-135402380D01*
X285661723Y-135278571D01*
X285599819Y-135030952D01*
X285599819Y-134845238D01*
X285661723Y-134597619D01*
X285723628Y-134473809D01*
X285847438Y-134350000D01*
X286033152Y-134288095D01*
X286156961Y-134288095D01*
X286342676Y-134350000D01*
X286404580Y-134411904D01*
D10*
D11*
X285661723Y-185588095D02*
X285661723Y-184288095D01*
X285971247Y-184288095D01*
X286156961Y-184350000D01*
X286280771Y-184473809D01*
X286342676Y-184597619D01*
X286404580Y-184845238D01*
X286404580Y-185030952D01*
X286342676Y-185278571D01*
X286280771Y-185402380D01*
X286156961Y-185526190D01*
X285971247Y-185588095D01*
X285661723Y-185588095D01*
D10*
D11*
X200434342Y-193785771D02*
X200434342Y-192285771D01*
X200791485Y-192285771D01*
X201005771Y-192357200D01*
X201148628Y-192500057D01*
X201220057Y-192642914D01*
X201291485Y-192928628D01*
X201291485Y-193142914D01*
X201220057Y-193428628D01*
X201148628Y-193571485D01*
X201005771Y-193714342D01*
X200791485Y-193785771D01*
X200434342Y-193785771D01*
X202577200Y-193785771D02*
X202577200Y-193000057D01*
X202505771Y-192857200D01*
X202362914Y-192785771D01*
X202077200Y-192785771D01*
X201934342Y-192857200D01*
X202577200Y-193714342D02*
X202434342Y-193785771D01*
X202077200Y-193785771D01*
X201934342Y-193714342D01*
X201862914Y-193571485D01*
X201862914Y-193428628D01*
X201934342Y-193285771D01*
X202077200Y-193214342D01*
X202434342Y-193214342D01*
X202577200Y-193142914D01*
X203077200Y-192785771D02*
X203648628Y-192785771D01*
X203291485Y-192285771D02*
X203291485Y-193571485D01*
X203362914Y-193714342D01*
X203505771Y-193785771D01*
X203648628Y-193785771D01*
X204720057Y-193714342D02*
X204577200Y-193785771D01*
X204291485Y-193785771D01*
X204148628Y-193714342D01*
X204077200Y-193571485D01*
X204077200Y-193000057D01*
X204148628Y-192857200D01*
X204291485Y-192785771D01*
X204577200Y-192785771D01*
X204720057Y-192857200D01*
X204791485Y-193000057D01*
X204791485Y-193142914D01*
X204077200Y-193285771D01*
X205434342Y-193642914D02*
X205505771Y-193714342D01*
X205434342Y-193785771D01*
X205362914Y-193714342D01*
X205434342Y-193642914D01*
X205434342Y-193785771D01*
X205434342Y-192857200D02*
X205505771Y-192928628D01*
X205434342Y-193000057D01*
X205362914Y-192928628D01*
X205434342Y-192857200D01*
X205434342Y-193000057D01*
X207220057Y-192428628D02*
X207291485Y-192357200D01*
X207434342Y-192285771D01*
X207791485Y-192285771D01*
X207934342Y-192357200D01*
X208005771Y-192428628D01*
X208077200Y-192571485D01*
X208077200Y-192714342D01*
X208005771Y-192928628D01*
X207148628Y-193785771D01*
X208077200Y-193785771D01*
X209005771Y-192285771D02*
X209148628Y-192285771D01*
X209291485Y-192357200D01*
X209362914Y-192428628D01*
X209434342Y-192571485D01*
X209505771Y-192857200D01*
X209505771Y-193214342D01*
X209434342Y-193500057D01*
X209362914Y-193642914D01*
X209291485Y-193714342D01*
X209148628Y-193785771D01*
X209005771Y-193785771D01*
X208862914Y-193714342D01*
X208791485Y-193642914D01*
X208720057Y-193500057D01*
X208648628Y-193214342D01*
X208648628Y-192857200D01*
X208720057Y-192571485D01*
X208791485Y-192428628D01*
X208862914Y-192357200D01*
X209005771Y-192285771D01*
X210077200Y-192428628D02*
X210148628Y-192357200D01*
X210291485Y-192285771D01*
X210648628Y-192285771D01*
X210791485Y-192357200D01*
X210862914Y-192428628D01*
X210934342Y-192571485D01*
X210934342Y-192714342D01*
X210862914Y-192928628D01*
X210005771Y-193785771D01*
X210934342Y-193785771D01*
X212362914Y-193785771D02*
X211505771Y-193785771D01*
X211934342Y-193785771D02*
X211934342Y-192285771D01*
X211791485Y-192500057D01*
X211648628Y-192642914D01*
X211505771Y-192714342D01*
X213005771Y-193214342D02*
X214148628Y-193214342D01*
X215148628Y-192285771D02*
X215291485Y-192285771D01*
X215434342Y-192357200D01*
X215505771Y-192428628D01*
X215577200Y-192571485D01*
X215648628Y-192857200D01*
X215648628Y-193214342D01*
X215577200Y-193500057D01*
X215505771Y-193642914D01*
X215434342Y-193714342D01*
X215291485Y-193785771D01*
X215148628Y-193785771D01*
X215005771Y-193714342D01*
X214934342Y-193642914D01*
X214862914Y-193500057D01*
X214791485Y-193214342D01*
X214791485Y-192857200D01*
X214862914Y-192571485D01*
X214934342Y-192428628D01*
X215005771Y-192357200D01*
X215148628Y-192285771D01*
X216934342Y-192785771D02*
X216934342Y-193785771D01*
X216577200Y-192214342D02*
X216220057Y-193285771D01*
X217148628Y-193285771D01*
X217720057Y-193214342D02*
X218862914Y-193214342D01*
X219862914Y-192285771D02*
X220005771Y-192285771D01*
X220148628Y-192357200D01*
X220220057Y-192428628D01*
X220291485Y-192571485D01*
X220362914Y-192857200D01*
X220362914Y-193214342D01*
X220291485Y-193500057D01*
X220220057Y-193642914D01*
X220148628Y-193714342D01*
X220005771Y-193785771D01*
X219862914Y-193785771D01*
X219720057Y-193714342D01*
X219648628Y-193642914D01*
X219577200Y-193500057D01*
X219505771Y-193214342D01*
X219505771Y-192857200D01*
X219577200Y-192571485D01*
X219648628Y-192428628D01*
X219720057Y-192357200D01*
X219862914Y-192285771D01*
X221648628Y-192285771D02*
X221362914Y-192285771D01*
X221220057Y-192357200D01*
X221148628Y-192428628D01*
X221005771Y-192642914D01*
X220934342Y-192928628D01*
X220934342Y-193500057D01*
X221005771Y-193642914D01*
X221077200Y-193714342D01*
X221220057Y-193785771D01*
X221505771Y-193785771D01*
X221648628Y-193714342D01*
X221720057Y-193642914D01*
X221791485Y-193500057D01*
X221791485Y-193142914D01*
X221720057Y-193000057D01*
X221648628Y-192928628D01*
X221505771Y-192857200D01*
X221220057Y-192857200D01*
X221077200Y-192928628D01*
X221005771Y-193000057D01*
X220934342Y-193142914D01*
D10*
D11*
X177002200Y-194507200D02*
X285002200Y-194507200D01*
D10*
D11*
X178434342Y-196585771D02*
X178434342Y-195085771D01*
X179291485Y-196585771D02*
X178648628Y-195728628D01*
X179291485Y-195085771D02*
X178434342Y-195942914D01*
X179934342Y-196585771D02*
X179934342Y-195585771D01*
X179934342Y-195085771D02*
X179862914Y-195157200D01*
X179934342Y-195228628D01*
X180005771Y-195157200D01*
X179934342Y-195085771D01*
X179934342Y-195228628D01*
X181505771Y-196442914D02*
X181434342Y-196514342D01*
X181220057Y-196585771D01*
X181077200Y-196585771D01*
X180862914Y-196514342D01*
X180720057Y-196371485D01*
X180648628Y-196228628D01*
X180577200Y-195942914D01*
X180577200Y-195728628D01*
X180648628Y-195442914D01*
X180720057Y-195300057D01*
X180862914Y-195157200D01*
X181077200Y-195085771D01*
X181220057Y-195085771D01*
X181434342Y-195157200D01*
X181505771Y-195228628D01*
X182791485Y-196585771D02*
X182791485Y-195800057D01*
X182720057Y-195657200D01*
X182577200Y-195585771D01*
X182291485Y-195585771D01*
X182148628Y-195657200D01*
X182791485Y-196514342D02*
X182648628Y-196585771D01*
X182291485Y-196585771D01*
X182148628Y-196514342D01*
X182077200Y-196371485D01*
X182077200Y-196228628D01*
X182148628Y-196085771D01*
X182291485Y-196014342D01*
X182648628Y-196014342D01*
X182791485Y-195942914D01*
X184148628Y-196585771D02*
X184148628Y-195085771D01*
X184148628Y-196514342D02*
X184005771Y-196585771D01*
X183720057Y-196585771D01*
X183577200Y-196514342D01*
X183505771Y-196442914D01*
X183434342Y-196300057D01*
X183434342Y-195871485D01*
X183505771Y-195728628D01*
X183577200Y-195657200D01*
X183720057Y-195585771D01*
X184005771Y-195585771D01*
X184148628Y-195657200D01*
X186005771Y-195800057D02*
X186505771Y-195800057D01*
X186720057Y-196585771D02*
X186005771Y-196585771D01*
X186005771Y-195085771D01*
X186720057Y-195085771D01*
X187362914Y-196442914D02*
X187434342Y-196514342D01*
X187362914Y-196585771D01*
X187291485Y-196514342D01*
X187362914Y-196442914D01*
X187362914Y-196585771D01*
X188077200Y-196585771D02*
X188077200Y-195085771D01*
X188434342Y-195085771D01*
X188648628Y-195157200D01*
X188791485Y-195300057D01*
X188862914Y-195442914D01*
X188934342Y-195728628D01*
X188934342Y-195942914D01*
X188862914Y-196228628D01*
X188791485Y-196371485D01*
X188648628Y-196514342D01*
X188434342Y-196585771D01*
X188077200Y-196585771D01*
X189577200Y-196442914D02*
X189648628Y-196514342D01*
X189577200Y-196585771D01*
X189505771Y-196514342D01*
X189577200Y-196442914D01*
X189577200Y-196585771D01*
X190220057Y-196157200D02*
X190934342Y-196157200D01*
X190077200Y-196585771D02*
X190577200Y-195085771D01*
X191077200Y-196585771D01*
X191577200Y-196442914D02*
X191648628Y-196514342D01*
X191577200Y-196585771D01*
X191505771Y-196514342D01*
X191577200Y-196442914D01*
X191577200Y-196585771D01*
X194577200Y-196585771D02*
X194577200Y-195085771D01*
X194720057Y-196014342D02*
X195148628Y-196585771D01*
X195148628Y-195585771D02*
X194577200Y-196157200D01*
X195791485Y-196585771D02*
X195791485Y-195585771D01*
X195791485Y-195085771D02*
X195720057Y-195157200D01*
X195791485Y-195228628D01*
X195862914Y-195157200D01*
X195791485Y-195085771D01*
X195791485Y-195228628D01*
X197148628Y-196514342D02*
X197005771Y-196585771D01*
X196720057Y-196585771D01*
X196577200Y-196514342D01*
X196505771Y-196442914D01*
X196434342Y-196300057D01*
X196434342Y-195871485D01*
X196505771Y-195728628D01*
X196577200Y-195657200D01*
X196720057Y-195585771D01*
X197005771Y-195585771D01*
X197148628Y-195657200D01*
X198434342Y-196585771D02*
X198434342Y-195800057D01*
X198362914Y-195657200D01*
X198220057Y-195585771D01*
X197934342Y-195585771D01*
X197791485Y-195657200D01*
X198434342Y-196514342D02*
X198291485Y-196585771D01*
X197934342Y-196585771D01*
X197791485Y-196514342D01*
X197720057Y-196371485D01*
X197720057Y-196228628D01*
X197791485Y-196085771D01*
X197934342Y-196014342D01*
X198291485Y-196014342D01*
X198434342Y-195942914D01*
X199791485Y-196585771D02*
X199791485Y-195085771D01*
X199791485Y-196514342D02*
X199648628Y-196585771D01*
X199362914Y-196585771D01*
X199220057Y-196514342D01*
X199148628Y-196442914D01*
X199077200Y-196300057D01*
X199077200Y-195871485D01*
X199148628Y-195728628D01*
X199220057Y-195657200D01*
X199362914Y-195585771D01*
X199648628Y-195585771D01*
X199791485Y-195657200D01*
X202077200Y-197157200D02*
X202005771Y-197085771D01*
X201862914Y-196871485D01*
X201791485Y-196728628D01*
X201720057Y-196514342D01*
X201648628Y-196157200D01*
X201648628Y-195871485D01*
X201720057Y-195514342D01*
X201791485Y-195300057D01*
X201862914Y-195157200D01*
X202005771Y-194942914D01*
X202077200Y-194871485D01*
X203362914Y-195085771D02*
X202648628Y-195085771D01*
X202577200Y-195800057D01*
X202648628Y-195728628D01*
X202791485Y-195657200D01*
X203148628Y-195657200D01*
X203291485Y-195728628D01*
X203362914Y-195800057D01*
X203434342Y-195942914D01*
X203434342Y-196300057D01*
X203362914Y-196442914D01*
X203291485Y-196514342D01*
X203148628Y-196585771D01*
X202791485Y-196585771D01*
X202648628Y-196514342D01*
X202577200Y-196442914D01*
X204077200Y-196442914D02*
X204148628Y-196514342D01*
X204077200Y-196585771D01*
X204005771Y-196514342D01*
X204077200Y-196442914D01*
X204077200Y-196585771D01*
X205577200Y-196585771D02*
X204720057Y-196585771D01*
X205148628Y-196585771D02*
X205148628Y-195085771D01*
X205005771Y-195300057D01*
X204862914Y-195442914D01*
X204720057Y-195514342D01*
X206220057Y-196442914D02*
X206291485Y-196514342D01*
X206220057Y-196585771D01*
X206148628Y-196514342D01*
X206220057Y-196442914D01*
X206220057Y-196585771D01*
X207005771Y-196585771D02*
X207291485Y-196585771D01*
X207434342Y-196514342D01*
X207505771Y-196442914D01*
X207648628Y-196228628D01*
X207720057Y-195942914D01*
X207720057Y-195371485D01*
X207648628Y-195228628D01*
X207577200Y-195157200D01*
X207434342Y-195085771D01*
X207148628Y-195085771D01*
X207005771Y-195157200D01*
X206934342Y-195228628D01*
X206862914Y-195371485D01*
X206862914Y-195728628D01*
X206934342Y-195871485D01*
X207005771Y-195942914D01*
X207148628Y-196014342D01*
X207434342Y-196014342D01*
X207577200Y-195942914D01*
X207648628Y-195871485D01*
X207720057Y-195728628D01*
X208362914Y-196014342D02*
X209505771Y-196014342D01*
X210505771Y-195085771D02*
X210648628Y-195085771D01*
X210791485Y-195157200D01*
X210862914Y-195228628D01*
X210934342Y-195371485D01*
X211005771Y-195657200D01*
X211005771Y-196014342D01*
X210934342Y-196300057D01*
X210862914Y-196442914D01*
X210791485Y-196514342D01*
X210648628Y-196585771D01*
X210505771Y-196585771D01*
X210362914Y-196514342D01*
X210291485Y-196442914D01*
X210220057Y-196300057D01*
X210148628Y-196014342D01*
X210148628Y-195657200D01*
X210220057Y-195371485D01*
X210291485Y-195228628D01*
X210362914Y-195157200D01*
X210505771Y-195085771D01*
X211648628Y-196014342D02*
X212791485Y-196014342D01*
X214291485Y-196585771D02*
X213434342Y-196585771D01*
X213862914Y-196585771D02*
X213862914Y-195085771D01*
X213720057Y-195300057D01*
X213577200Y-195442914D01*
X213434342Y-195514342D01*
X215220057Y-195085771D02*
X215362914Y-195085771D01*
X215505771Y-195157200D01*
X215577200Y-195228628D01*
X215648628Y-195371485D01*
X215720057Y-195657200D01*
X215720057Y-196014342D01*
X215648628Y-196300057D01*
X215577200Y-196442914D01*
X215505771Y-196514342D01*
X215362914Y-196585771D01*
X215220057Y-196585771D01*
X215077200Y-196514342D01*
X215005771Y-196442914D01*
X214934342Y-196300057D01*
X214862914Y-196014342D01*
X214862914Y-195657200D01*
X214934342Y-195371485D01*
X215005771Y-195228628D01*
X215077200Y-195157200D01*
X215220057Y-195085771D01*
X216005771Y-196728628D02*
X217148628Y-196728628D01*
X218291485Y-196585771D02*
X217434342Y-196585771D01*
X217862914Y-196585771D02*
X217862914Y-195085771D01*
X217720057Y-195300057D01*
X217577200Y-195442914D01*
X217434342Y-195514342D01*
X219577200Y-195585771D02*
X219577200Y-196585771D01*
X219220057Y-195014342D02*
X218862914Y-196085771D01*
X219791485Y-196085771D01*
X220220057Y-197157200D02*
X220291485Y-197085771D01*
X220434342Y-196871485D01*
X220505771Y-196728628D01*
X220577200Y-196514342D01*
X220648628Y-196157200D01*
X220648628Y-195871485D01*
X220577200Y-195514342D01*
X220505771Y-195300057D01*
X220434342Y-195157200D01*
X220291485Y-194942914D01*
X220220057Y-194871485D01*
D10*
D11*
X177002200Y-191507200D02*
X285002200Y-191507200D01*
D10*
D12*
X264411485Y-193785771D02*
X263911485Y-193071485D01*
X263554342Y-193785771D02*
X263554342Y-192285771D01*
X264125771Y-192285771D01*
X264268628Y-192357200D01*
X264340057Y-192428628D01*
X264411485Y-192571485D01*
X264411485Y-192785771D01*
X264340057Y-192928628D01*
X264268628Y-193000057D01*
X264125771Y-193071485D01*
X263554342Y-193071485D01*
X265625771Y-193714342D02*
X265482914Y-193785771D01*
X265197200Y-193785771D01*
X265054342Y-193714342D01*
X264982914Y-193571485D01*
X264982914Y-193000057D01*
X265054342Y-192857200D01*
X265197200Y-192785771D01*
X265482914Y-192785771D01*
X265625771Y-192857200D01*
X265697200Y-193000057D01*
X265697200Y-193142914D01*
X264982914Y-193285771D01*
X266197200Y-192785771D02*
X266554342Y-193785771D01*
X266911485Y-192785771D01*
X267482914Y-193642914D02*
X267554342Y-193714342D01*
X267482914Y-193785771D01*
X267411485Y-193714342D01*
X267482914Y-193642914D01*
X267482914Y-193785771D01*
X267482914Y-192857200D02*
X267554342Y-192928628D01*
X267482914Y-193000057D01*
X267411485Y-192928628D01*
X267482914Y-192857200D01*
X267482914Y-193000057D01*
X269197200Y-192785771D02*
X269554342Y-193785771D01*
X269911485Y-192785771D01*
X270768628Y-192285771D02*
X270911485Y-192285771D01*
X271054342Y-192357200D01*
X271125771Y-192428628D01*
X271197200Y-192571485D01*
X271268628Y-192857200D01*
X271268628Y-193214342D01*
X271197200Y-193500057D01*
X271125771Y-193642914D01*
X271054342Y-193714342D01*
X270911485Y-193785771D01*
X270768628Y-193785771D01*
X270625771Y-193714342D01*
X270554342Y-193642914D01*
X270482914Y-193500057D01*
X270411485Y-193214342D01*
X270411485Y-192857200D01*
X270482914Y-192571485D01*
X270554342Y-192428628D01*
X270625771Y-192357200D01*
X270768628Y-192285771D01*
X271911485Y-193642914D02*
X271982914Y-193714342D01*
X271911485Y-193785771D01*
X271840057Y-193714342D01*
X271911485Y-193642914D01*
X271911485Y-193785771D01*
X273340057Y-192285771D02*
X272625771Y-192285771D01*
X272554342Y-193000057D01*
X272625771Y-192928628D01*
X272768628Y-192857200D01*
X273125771Y-192857200D01*
X273268628Y-192928628D01*
X273340057Y-193000057D01*
X273411485Y-193142914D01*
X273411485Y-193500057D01*
X273340057Y-193642914D01*
X273268628Y-193714342D01*
X273125771Y-193785771D01*
X272768628Y-193785771D01*
X272625771Y-193714342D01*
X272554342Y-193642914D01*
D10*
D11*
X178362914Y-193714342D02*
X178577200Y-193785771D01*
X178934342Y-193785771D01*
X179077200Y-193714342D01*
X179148628Y-193642914D01*
X179220057Y-193500057D01*
X179220057Y-193357200D01*
X179148628Y-193214342D01*
X179077200Y-193142914D01*
X178934342Y-193071485D01*
X178648628Y-193000057D01*
X178505771Y-192928628D01*
X178434342Y-192857200D01*
X178362914Y-192714342D01*
X178362914Y-192571485D01*
X178434342Y-192428628D01*
X178505771Y-192357200D01*
X178648628Y-192285771D01*
X179005771Y-192285771D01*
X179220057Y-192357200D01*
X179862914Y-193785771D02*
X179862914Y-192785771D01*
X179862914Y-192285771D02*
X179791485Y-192357200D01*
X179862914Y-192428628D01*
X179934342Y-192357200D01*
X179862914Y-192285771D01*
X179862914Y-192428628D01*
X180434342Y-192785771D02*
X181220057Y-192785771D01*
X180434342Y-193785771D01*
X181220057Y-193785771D01*
X182362914Y-193714342D02*
X182220057Y-193785771D01*
X181934342Y-193785771D01*
X181791485Y-193714342D01*
X181720057Y-193571485D01*
X181720057Y-193000057D01*
X181791485Y-192857200D01*
X181934342Y-192785771D01*
X182220057Y-192785771D01*
X182362914Y-192857200D01*
X182434342Y-193000057D01*
X182434342Y-193142914D01*
X181720057Y-193285771D01*
X183077200Y-193642914D02*
X183148628Y-193714342D01*
X183077200Y-193785771D01*
X183005771Y-193714342D01*
X183077200Y-193642914D01*
X183077200Y-193785771D01*
X183077200Y-192857200D02*
X183148628Y-192928628D01*
X183077200Y-193000057D01*
X183005771Y-192928628D01*
X183077200Y-192857200D01*
X183077200Y-193000057D01*
X184862914Y-193357200D02*
X185577200Y-193357200D01*
X184720057Y-193785771D02*
X185220057Y-192285771D01*
X185720057Y-193785771D01*
X186862914Y-192785771D02*
X186862914Y-193785771D01*
X186505771Y-192214342D02*
X186148628Y-193285771D01*
X187077200Y-193285771D01*
D10*
D11*
X263434342Y-196585771D02*
X263434342Y-195085771D01*
X264791485Y-196585771D02*
X264791485Y-195085771D01*
X264791485Y-196514342D02*
X264648628Y-196585771D01*
X264362914Y-196585771D01*
X264220057Y-196514342D01*
X264148628Y-196442914D01*
X264077200Y-196300057D01*
X264077200Y-195871485D01*
X264148628Y-195728628D01*
X264220057Y-195657200D01*
X264362914Y-195585771D01*
X264648628Y-195585771D01*
X264791485Y-195657200D01*
X265505771Y-196442914D02*
X265577200Y-196514342D01*
X265505771Y-196585771D01*
X265434342Y-196514342D01*
X265505771Y-196442914D01*
X265505771Y-196585771D01*
X265505771Y-195657200D02*
X265577200Y-195728628D01*
X265505771Y-195800057D01*
X265434342Y-195728628D01*
X265505771Y-195657200D01*
X265505771Y-195800057D01*
X268148628Y-196585771D02*
X267291485Y-196585771D01*
X267720057Y-196585771D02*
X267720057Y-195085771D01*
X267577200Y-195300057D01*
X267434342Y-195442914D01*
X267291485Y-195514342D01*
X269862914Y-195014342D02*
X268577200Y-196942914D01*
X271148628Y-196585771D02*
X270291485Y-196585771D01*
X270720057Y-196585771D02*
X270720057Y-195085771D01*
X270577200Y-195300057D01*
X270434342Y-195442914D01*
X270291485Y-195514342D01*
D10*
D11*
X177002200Y-187507200D02*
X285002200Y-187507200D01*
D10*
D13*
X178714580Y-188211961D02*
X179857438Y-188211961D01*
X179036009Y-190211961D02*
X179286009Y-188211961D01*
X180274104Y-190211961D02*
X180440771Y-188878628D01*
X180524104Y-188211961D02*
X180416961Y-188307200D01*
X180500295Y-188402438D01*
X180607438Y-188307200D01*
X180524104Y-188211961D01*
X180500295Y-188402438D01*
X181107438Y-188878628D02*
X181869342Y-188878628D01*
X181476485Y-188211961D02*
X181262200Y-189926247D01*
X181333628Y-190116723D01*
X181512200Y-190211961D01*
X181702676Y-190211961D01*
X182655057Y-190211961D02*
X182476485Y-190116723D01*
X182405057Y-189926247D01*
X182619342Y-188211961D01*
X184190771Y-190116723D02*
X183988390Y-190211961D01*
X183607438Y-190211961D01*
X183428866Y-190116723D01*
X183357438Y-189926247D01*
X183452676Y-189164342D01*
X183571723Y-188973866D01*
X183774104Y-188878628D01*
X184155057Y-188878628D01*
X184333628Y-188973866D01*
X184405057Y-189164342D01*
X184381247Y-189354819D01*
X183405057Y-189545295D01*
X185155057Y-190021485D02*
X185238390Y-190116723D01*
X185131247Y-190211961D01*
X185047914Y-190116723D01*
X185155057Y-190021485D01*
X185131247Y-190211961D01*
X185286009Y-188973866D02*
X185369342Y-189069104D01*
X185262200Y-189164342D01*
X185178866Y-189069104D01*
X185286009Y-188973866D01*
X185262200Y-189164342D01*
X188774104Y-190021485D02*
X188666961Y-190116723D01*
X188369342Y-190211961D01*
X188178866Y-190211961D01*
X187905057Y-190116723D01*
X187738390Y-189926247D01*
X187666961Y-189735771D01*
X187619342Y-189354819D01*
X187655057Y-189069104D01*
X187797914Y-188688152D01*
X187916961Y-188497676D01*
X188131247Y-188307200D01*
X188428866Y-188211961D01*
X188619342Y-188211961D01*
X188893152Y-188307200D01*
X188976485Y-188402438D01*
X189607438Y-190211961D02*
X189774104Y-188878628D01*
X189726485Y-189259580D02*
X189845533Y-189069104D01*
X189952676Y-188973866D01*
X190155057Y-188878628D01*
X190345533Y-188878628D01*
X191702676Y-190211961D02*
X191833628Y-189164342D01*
X191762200Y-188973866D01*
X191583628Y-188878628D01*
X191202676Y-188878628D01*
X191000295Y-188973866D01*
X191714580Y-190116723D02*
X191512200Y-190211961D01*
X191036009Y-190211961D01*
X190857438Y-190116723D01*
X190786009Y-189926247D01*
X190809819Y-189735771D01*
X190928866Y-189545295D01*
X191131247Y-189450057D01*
X191607438Y-189450057D01*
X191809819Y-189354819D01*
X192536009Y-188878628D02*
X193297914Y-188878628D01*
X192655057Y-190211961D02*
X192869342Y-188497676D01*
X192988390Y-188307200D01*
X193190771Y-188211961D01*
X193381247Y-188211961D01*
X193678866Y-188878628D02*
X194440771Y-188878628D01*
X194047914Y-188211961D02*
X193833628Y-189926247D01*
X193905057Y-190116723D01*
X194083628Y-190211961D01*
X194274104Y-190211961D01*
X194940771Y-190211961D02*
X195190771Y-188211961D01*
X195952676Y-188211961D01*
X196131247Y-188307200D01*
X196214580Y-188402438D01*
X196286009Y-188592914D01*
X196250295Y-188878628D01*
X196131247Y-189069104D01*
X196024104Y-189164342D01*
X195821723Y-189259580D01*
X195059819Y-189259580D01*
X197797914Y-190211961D02*
X197928866Y-189164342D01*
X197857438Y-188973866D01*
X197678866Y-188878628D01*
X197297914Y-188878628D01*
X197095533Y-188973866D01*
X197809819Y-190116723D02*
X197607438Y-190211961D01*
X197131247Y-190211961D01*
X196952676Y-190116723D01*
X196881247Y-189926247D01*
X196905057Y-189735771D01*
X197024104Y-189545295D01*
X197226485Y-189450057D01*
X197702676Y-189450057D01*
X197905057Y-189354819D01*
X199607438Y-190211961D02*
X199857438Y-188211961D01*
X199619342Y-190116723D02*
X199416961Y-190211961D01*
X199036009Y-190211961D01*
X198857438Y-190116723D01*
X198774104Y-190021485D01*
X198702676Y-189831009D01*
X198774104Y-189259580D01*
X198893152Y-189069104D01*
X199000295Y-188973866D01*
X199202676Y-188878628D01*
X199583628Y-188878628D01*
X199762200Y-188973866D01*
D10*
D11*
X178934342Y-185600057D02*
X178434342Y-185600057D01*
X178434342Y-186385771D02*
X178434342Y-184885771D01*
X179148628Y-184885771D01*
X179720057Y-186385771D02*
X179720057Y-185385771D01*
X179720057Y-184885771D02*
X179648628Y-184957200D01*
X179720057Y-185028628D01*
X179791485Y-184957200D01*
X179720057Y-184885771D01*
X179720057Y-185028628D01*
X180648628Y-186385771D02*
X180505771Y-186314342D01*
X180434342Y-186171485D01*
X180434342Y-184885771D01*
X181791485Y-186314342D02*
X181648628Y-186385771D01*
X181362914Y-186385771D01*
X181220057Y-186314342D01*
X181148628Y-186171485D01*
X181148628Y-185600057D01*
X181220057Y-185457200D01*
X181362914Y-185385771D01*
X181648628Y-185385771D01*
X181791485Y-185457200D01*
X181862914Y-185600057D01*
X181862914Y-185742914D01*
X181148628Y-185885771D01*
X182505771Y-186242914D02*
X182577200Y-186314342D01*
X182505771Y-186385771D01*
X182434342Y-186314342D01*
X182505771Y-186242914D01*
X182505771Y-186385771D01*
X182505771Y-185457200D02*
X182577200Y-185528628D01*
X182505771Y-185600057D01*
X182434342Y-185528628D01*
X182505771Y-185457200D01*
X182505771Y-185600057D01*
X185220057Y-186242914D02*
X185148628Y-186314342D01*
X184934342Y-186385771D01*
X184791485Y-186385771D01*
X184577200Y-186314342D01*
X184434342Y-186171485D01*
X184362914Y-186028628D01*
X184291485Y-185742914D01*
X184291485Y-185528628D01*
X184362914Y-185242914D01*
X184434342Y-185100057D01*
X184577200Y-184957200D01*
X184791485Y-184885771D01*
X184934342Y-184885771D01*
X185148628Y-184957200D01*
X185220057Y-185028628D01*
X185862914Y-186385771D02*
X185862914Y-185385771D01*
X185862914Y-185671485D02*
X185934342Y-185528628D01*
X186005771Y-185457200D01*
X186148628Y-185385771D01*
X186291485Y-185385771D01*
X187434342Y-186385771D02*
X187434342Y-185600057D01*
X187362914Y-185457200D01*
X187220057Y-185385771D01*
X186934342Y-185385771D01*
X186791485Y-185457200D01*
X187434342Y-186314342D02*
X187291485Y-186385771D01*
X186934342Y-186385771D01*
X186791485Y-186314342D01*
X186720057Y-186171485D01*
X186720057Y-186028628D01*
X186791485Y-185885771D01*
X186934342Y-185814342D01*
X187291485Y-185814342D01*
X187434342Y-185742914D01*
X187934342Y-185385771D02*
X188505771Y-185385771D01*
X188148628Y-186385771D02*
X188148628Y-185100057D01*
X188220057Y-184957200D01*
X188362914Y-184885771D01*
X188505771Y-184885771D01*
X188791485Y-185385771D02*
X189362914Y-185385771D01*
X189005771Y-184885771D02*
X189005771Y-186171485D01*
X189077200Y-186314342D01*
X189220057Y-186385771D01*
X189362914Y-186385771D01*
X189862914Y-186385771D02*
X189862914Y-184885771D01*
X190434342Y-184885771D01*
X190577200Y-184957200D01*
X190648628Y-185028628D01*
X190720057Y-185171485D01*
X190720057Y-185385771D01*
X190648628Y-185528628D01*
X190577200Y-185600057D01*
X190434342Y-185671485D01*
X189862914Y-185671485D01*
X192005771Y-186385771D02*
X192005771Y-185600057D01*
X191934342Y-185457200D01*
X191791485Y-185385771D01*
X191505771Y-185385771D01*
X191362914Y-185457200D01*
X192005771Y-186314342D02*
X191862914Y-186385771D01*
X191505771Y-186385771D01*
X191362914Y-186314342D01*
X191291485Y-186171485D01*
X191291485Y-186028628D01*
X191362914Y-185885771D01*
X191505771Y-185814342D01*
X191862914Y-185814342D01*
X192005771Y-185742914D01*
X193362914Y-186385771D02*
X193362914Y-184885771D01*
X193362914Y-186314342D02*
X193220057Y-186385771D01*
X192934342Y-186385771D01*
X192791485Y-186314342D01*
X192720057Y-186242914D01*
X192648628Y-186100057D01*
X192648628Y-185671485D01*
X192720057Y-185528628D01*
X192791485Y-185457200D01*
X192934342Y-185385771D01*
X193220057Y-185385771D01*
X193362914Y-185457200D01*
X194077200Y-186242914D02*
X194148628Y-186314342D01*
X194077200Y-186385771D01*
X194005771Y-186314342D01*
X194077200Y-186242914D01*
X194077200Y-186385771D01*
X194791485Y-186385771D02*
X194791485Y-184885771D01*
X194934342Y-185814342D02*
X195362914Y-186385771D01*
X195362914Y-185385771D02*
X194791485Y-185957200D01*
X196005771Y-186385771D02*
X196005771Y-185385771D01*
X196005771Y-184885771D02*
X195934342Y-184957200D01*
X196005771Y-185028628D01*
X196077200Y-184957200D01*
X196005771Y-184885771D01*
X196005771Y-185028628D01*
X197362914Y-186314342D02*
X197220057Y-186385771D01*
X196934342Y-186385771D01*
X196791485Y-186314342D01*
X196720057Y-186242914D01*
X196648628Y-186100057D01*
X196648628Y-185671485D01*
X196720057Y-185528628D01*
X196791485Y-185457200D01*
X196934342Y-185385771D01*
X197220057Y-185385771D01*
X197362914Y-185457200D01*
X198648628Y-186385771D02*
X198648628Y-185600057D01*
X198577200Y-185457200D01*
X198434342Y-185385771D01*
X198148628Y-185385771D01*
X198005771Y-185457200D01*
X198648628Y-186314342D02*
X198505771Y-186385771D01*
X198148628Y-186385771D01*
X198005771Y-186314342D01*
X197934342Y-186171485D01*
X197934342Y-186028628D01*
X198005771Y-185885771D01*
X198148628Y-185814342D01*
X198505771Y-185814342D01*
X198648628Y-185742914D01*
X200005771Y-186385771D02*
X200005771Y-184885771D01*
X200005771Y-186314342D02*
X199862914Y-186385771D01*
X199577200Y-186385771D01*
X199434342Y-186314342D01*
X199362914Y-186242914D01*
X199291485Y-186100057D01*
X199291485Y-185671485D01*
X199362914Y-185528628D01*
X199434342Y-185457200D01*
X199577200Y-185385771D01*
X199862914Y-185385771D01*
X200005771Y-185457200D01*
X200362914Y-186528628D02*
X201505771Y-186528628D01*
X201862914Y-185385771D02*
X201862914Y-186885771D01*
X201862914Y-185457200D02*
X202005771Y-185385771D01*
X202291485Y-185385771D01*
X202434342Y-185457200D01*
X202505771Y-185528628D01*
X202577200Y-185671485D01*
X202577200Y-186100057D01*
X202505771Y-186242914D01*
X202434342Y-186314342D01*
X202291485Y-186385771D01*
X202005771Y-186385771D01*
X201862914Y-186314342D01*
X203862914Y-186314342D02*
X203720057Y-186385771D01*
X203434342Y-186385771D01*
X203291485Y-186314342D01*
X203220057Y-186242914D01*
X203148628Y-186100057D01*
X203148628Y-185671485D01*
X203220057Y-185528628D01*
X203291485Y-185457200D01*
X203434342Y-185385771D01*
X203720057Y-185385771D01*
X203862914Y-185457200D01*
X204505771Y-186385771D02*
X204505771Y-184885771D01*
X204505771Y-185457200D02*
X204648628Y-185385771D01*
X204934342Y-185385771D01*
X205077200Y-185457200D01*
X205148628Y-185528628D01*
X205220057Y-185671485D01*
X205220057Y-186100057D01*
X205148628Y-186242914D01*
X205077200Y-186314342D01*
X204934342Y-186385771D01*
X204648628Y-186385771D01*
X204505771Y-186314342D01*
D10*
D11*
X177002200Y-181507200D02*
X285002200Y-181507200D01*
D10*
D11*
X178362914Y-183614342D02*
X178577200Y-183685771D01*
X178934342Y-183685771D01*
X179077200Y-183614342D01*
X179148628Y-183542914D01*
X179220057Y-183400057D01*
X179220057Y-183257200D01*
X179148628Y-183114342D01*
X179077200Y-183042914D01*
X178934342Y-182971485D01*
X178648628Y-182900057D01*
X178505771Y-182828628D01*
X178434342Y-182757200D01*
X178362914Y-182614342D01*
X178362914Y-182471485D01*
X178434342Y-182328628D01*
X178505771Y-182257200D01*
X178648628Y-182185771D01*
X179005771Y-182185771D01*
X179220057Y-182257200D01*
X179862914Y-183685771D02*
X179862914Y-182185771D01*
X180505771Y-183685771D02*
X180505771Y-182900057D01*
X180434342Y-182757200D01*
X180291485Y-182685771D01*
X180077200Y-182685771D01*
X179934342Y-182757200D01*
X179862914Y-182828628D01*
X181791485Y-183614342D02*
X181648628Y-183685771D01*
X181362914Y-183685771D01*
X181220057Y-183614342D01*
X181148628Y-183471485D01*
X181148628Y-182900057D01*
X181220057Y-182757200D01*
X181362914Y-182685771D01*
X181648628Y-182685771D01*
X181791485Y-182757200D01*
X181862914Y-182900057D01*
X181862914Y-183042914D01*
X181148628Y-183185771D01*
X183077200Y-183614342D02*
X182934342Y-183685771D01*
X182648628Y-183685771D01*
X182505771Y-183614342D01*
X182434342Y-183471485D01*
X182434342Y-182900057D01*
X182505771Y-182757200D01*
X182648628Y-182685771D01*
X182934342Y-182685771D01*
X183077200Y-182757200D01*
X183148628Y-182900057D01*
X183148628Y-183042914D01*
X182434342Y-183185771D01*
X183577200Y-182685771D02*
X184148628Y-182685771D01*
X183791485Y-182185771D02*
X183791485Y-183471485D01*
X183862914Y-183614342D01*
X184005771Y-183685771D01*
X184148628Y-183685771D01*
X184648628Y-183542914D02*
X184720057Y-183614342D01*
X184648628Y-183685771D01*
X184577200Y-183614342D01*
X184648628Y-183542914D01*
X184648628Y-183685771D01*
X184648628Y-182757200D02*
X184720057Y-182828628D01*
X184648628Y-182900057D01*
X184577200Y-182828628D01*
X184648628Y-182757200D01*
X184648628Y-182900057D01*
D10*
D12*
X178982914Y-179185771D02*
X178982914Y-180257200D01*
X178911485Y-180471485D01*
X178768628Y-180614342D01*
X178554342Y-180685771D01*
X178411485Y-180685771D01*
X179625771Y-180614342D02*
X179840057Y-180685771D01*
X180197200Y-180685771D01*
X180340057Y-180614342D01*
X180411485Y-180542914D01*
X180482914Y-180400057D01*
X180482914Y-180257200D01*
X180411485Y-180114342D01*
X180340057Y-180042914D01*
X180197200Y-179971485D01*
X179911485Y-179900057D01*
X179768628Y-179828628D01*
X179697200Y-179757200D01*
X179625771Y-179614342D01*
X179625771Y-179471485D01*
X179697200Y-179328628D01*
X179768628Y-179257200D01*
X179911485Y-179185771D01*
X180268628Y-179185771D01*
X180482914Y-179257200D01*
X181054342Y-180257200D02*
X181768628Y-180257200D01*
X180911485Y-180685771D02*
X181411485Y-179185771D01*
X181911485Y-180685771D01*
D10*
D11*
X197002200Y-191507200D02*
X197002200Y-194507200D01*
D10*
D11*
X261002200Y-191507200D02*
X261002200Y-198007200D01*
D12*
X-465392857Y64764285D02*
X-465464285Y64692857D01*
X-465678571Y64621428D01*
X-465821428Y64621428D01*
X-466035714Y64692857D01*
X-466178571Y64835714D01*
X-466250000Y64978571D01*
X-466321428Y65264285D01*
X-466321428Y65478571D01*
X-466250000Y65764285D01*
X-466178571Y65907142D01*
X-466035714Y66050000D01*
X-465821428Y66121428D01*
X-465678571Y66121428D01*
X-465464285Y66050000D01*
X-465392857Y65978571D01*
X-464750000Y64621428D02*
X-464750000Y65621428D01*
X-464750000Y65335714D02*
X-464678571Y65478571D01*
X-464607142Y65550000D01*
X-464464285Y65621428D01*
X-464321428Y65621428D01*
X-463178571Y64621428D02*
X-463178571Y65407142D01*
X-463250000Y65550000D01*
X-463392857Y65621428D01*
X-463678571Y65621428D01*
X-463821428Y65550000D01*
X-463178571Y64692857D02*
X-463321428Y64621428D01*
X-463678571Y64621428D01*
X-463821428Y64692857D01*
X-463892857Y64835714D01*
X-463892857Y64978571D01*
X-463821428Y65121428D01*
X-463678571Y65192857D01*
X-463321428Y65192857D01*
X-463178571Y65264285D01*
X-462678571Y65621428D02*
X-462107142Y65621428D01*
X-462464285Y64621428D02*
X-462464285Y65907142D01*
X-462392857Y66050000D01*
X-462250000Y66121428D01*
X-462107142Y66121428D01*
X-461821428Y65621428D02*
X-461250000Y65621428D01*
X-461607142Y66121428D02*
X-461607142Y64835714D01*
X-461535714Y64692857D01*
X-461392857Y64621428D01*
X-461250000Y64621428D01*
X-460750000Y64621428D02*
X-460750000Y66121428D01*
X-460178571Y66121428D01*
X-460035714Y66050000D01*
X-459964285Y65978571D01*
X-459892857Y65835714D01*
X-459892857Y65621428D01*
X-459964285Y65478571D01*
X-460035714Y65407142D01*
X-460178571Y65335714D01*
X-460750000Y65335714D01*
X-458607142Y64621428D02*
X-458607142Y65407142D01*
X-458678571Y65550000D01*
X-458821428Y65621428D01*
X-459107142Y65621428D01*
X-459250000Y65550000D01*
X-458607142Y64692857D02*
X-458750000Y64621428D01*
X-459107142Y64621428D01*
X-459250000Y64692857D01*
X-459321428Y64835714D01*
X-459321428Y64978571D01*
X-459250000Y65121428D01*
X-459107142Y65192857D01*
X-458750000Y65192857D01*
X-458607142Y65264285D01*
X-457250000Y64621428D02*
X-457250000Y66121428D01*
X-457250000Y64692857D02*
X-457392857Y64621428D01*
X-457678571Y64621428D01*
X-457821428Y64692857D01*
X-457892857Y64764285D01*
X-457964285Y64907142D01*
X-457964285Y65335714D01*
X-457892857Y65478571D01*
X-457821428Y65550000D01*
X-457678571Y65621428D01*
X-457392857Y65621428D01*
X-457250000Y65550000D01*
X-455607142Y66121428D02*
X-455107142Y64621428D01*
X-454607142Y66121428D01*
X-453821428Y66121428D02*
X-453678571Y66121428D01*
X-453535714Y66050000D01*
X-453464285Y65978571D01*
X-453392857Y65835714D01*
X-453321428Y65550000D01*
X-453321428Y65192857D01*
X-453392857Y64907142D01*
X-453464285Y64764285D01*
X-453535714Y64692857D01*
X-453678571Y64621428D01*
X-453821428Y64621428D01*
X-453964285Y64692857D01*
X-454035714Y64764285D01*
X-454107142Y64907142D01*
X-454178571Y65192857D01*
X-454178571Y65550000D01*
X-454107142Y65835714D01*
X-454035714Y65978571D01*
X-453964285Y66050000D01*
X-453821428Y66121428D01*
X-452678571Y64764285D02*
X-452607142Y64692857D01*
X-452678571Y64621428D01*
X-452750000Y64692857D01*
X-452678571Y64764285D01*
X-452678571Y64621428D01*
X-451250000Y66121428D02*
X-451964285Y66121428D01*
X-452035714Y65407142D01*
X-451964285Y65478571D01*
X-451821428Y65550000D01*
X-451464285Y65550000D01*
X-451321428Y65478571D01*
X-451250000Y65407142D01*
X-451178571Y65264285D01*
X-451178571Y64907142D01*
X-451250000Y64764285D01*
X-451321428Y64692857D01*
X-451464285Y64621428D01*
X-451821428Y64621428D01*
X-451964285Y64692857D01*
X-452035714Y64764285D01*
X-466035714Y63428571D02*
X-465964285Y63500000D01*
X-465821428Y63571428D01*
X-465464285Y63571428D01*
X-465321428Y63500000D01*
X-465250000Y63428571D01*
X-465178571Y63285714D01*
X-465178571Y63142857D01*
X-465250000Y62928571D01*
X-466107142Y62071428D01*
X-465178571Y62071428D01*
X-464250000Y63571428D02*
X-464107142Y63571428D01*
X-463964285Y63500000D01*
X-463892857Y63428571D01*
X-463821428Y63285714D01*
X-463750000Y63000000D01*
X-463750000Y62642857D01*
X-463821428Y62357142D01*
X-463892857Y62214285D01*
X-463964285Y62142857D01*
X-464107142Y62071428D01*
X-464250000Y62071428D01*
X-464392857Y62142857D01*
X-464464285Y62214285D01*
X-464535714Y62357142D01*
X-464607142Y62642857D01*
X-464607142Y63000000D01*
X-464535714Y63285714D01*
X-464464285Y63428571D01*
X-464392857Y63500000D01*
X-464250000Y63571428D01*
X-463178571Y63428571D02*
X-463107142Y63500000D01*
X-462964285Y63571428D01*
X-462607142Y63571428D01*
X-462464285Y63500000D01*
X-462392857Y63428571D01*
X-462321428Y63285714D01*
X-462321428Y63142857D01*
X-462392857Y62928571D01*
X-463250000Y62071428D01*
X-462321428Y62071428D01*
X-460892857Y62071428D02*
X-461750000Y62071428D01*
X-461321428Y62071428D02*
X-461321428Y63571428D01*
X-461464285Y63357142D01*
X-461607142Y63214285D01*
X-461750000Y63142857D01*
X-460250000Y62642857D02*
X-459107142Y62642857D01*
X-458107142Y63571428D02*
X-457964285Y63571428D01*
X-457821428Y63500000D01*
X-457750000Y63428571D01*
X-457678571Y63285714D01*
X-457607142Y63000000D01*
X-457607142Y62642857D01*
X-457678571Y62357142D01*
X-457750000Y62214285D01*
X-457821428Y62142857D01*
X-457964285Y62071428D01*
X-458107142Y62071428D01*
X-458250000Y62142857D01*
X-458321428Y62214285D01*
X-458392857Y62357142D01*
X-458464285Y62642857D01*
X-458464285Y63000000D01*
X-458392857Y63285714D01*
X-458321428Y63428571D01*
X-458250000Y63500000D01*
X-458107142Y63571428D01*
X-456321428Y63071428D02*
X-456321428Y62071428D01*
X-456678571Y63642857D02*
X-457035714Y62571428D01*
X-456107142Y62571428D01*
X-455535714Y62642857D02*
X-454392857Y62642857D01*
X-453392857Y63571428D02*
X-453250000Y63571428D01*
X-453107142Y63500000D01*
X-453035714Y63428571D01*
X-452964285Y63285714D01*
X-452892857Y63000000D01*
X-452892857Y62642857D01*
X-452964285Y62357142D01*
X-453035714Y62214285D01*
X-453107142Y62142857D01*
X-453250000Y62071428D01*
X-453392857Y62071428D01*
X-453535714Y62142857D01*
X-453607142Y62214285D01*
X-453678571Y62357142D01*
X-453750000Y62642857D01*
X-453750000Y63000000D01*
X-453678571Y63285714D01*
X-453607142Y63428571D01*
X-453535714Y63500000D01*
X-453392857Y63571428D01*
X-451607142Y63571428D02*
X-451892857Y63571428D01*
X-452035714Y63500000D01*
X-452107142Y63428571D01*
X-452250000Y63214285D01*
X-452321428Y62928571D01*
X-452321428Y62357142D01*
X-452250000Y62214285D01*
X-452178571Y62142857D01*
X-452035714Y62071428D01*
X-451750000Y62071428D01*
X-451607142Y62142857D01*
X-451535714Y62214285D01*
X-451464285Y62357142D01*
X-451464285Y62714285D01*
X-451535714Y62857142D01*
X-451607142Y62928571D01*
X-451750000Y63000000D01*
X-452035714Y63000000D01*
X-452178571Y62928571D01*
X-452250000Y62857142D01*
X-452321428Y62714285D01*
X-463428571Y61021428D02*
X-463428571Y59950000D01*
X-463500000Y59735714D01*
X-463642857Y59592857D01*
X-463857142Y59521428D01*
X-464000000Y59521428D01*
X-462071428Y59521428D02*
X-462071428Y60307142D01*
X-462142857Y60450000D01*
X-462285714Y60521428D01*
X-462571428Y60521428D01*
X-462714285Y60450000D01*
X-462071428Y59592857D02*
X-462214285Y59521428D01*
X-462571428Y59521428D01*
X-462714285Y59592857D01*
X-462785714Y59735714D01*
X-462785714Y59878571D01*
X-462714285Y60021428D01*
X-462571428Y60092857D01*
X-462214285Y60092857D01*
X-462071428Y60164285D01*
X-461357142Y59521428D02*
X-461357142Y60521428D01*
X-461357142Y60378571D02*
X-461285714Y60450000D01*
X-461142857Y60521428D01*
X-460928571Y60521428D01*
X-460785714Y60450000D01*
X-460714285Y60307142D01*
X-460714285Y59521428D01*
X-460714285Y60307142D02*
X-460642857Y60450000D01*
X-460500000Y60521428D01*
X-460285714Y60521428D01*
X-460142857Y60450000D01*
X-460071428Y60307142D01*
X-460071428Y59521428D01*
X-458785714Y59592857D02*
X-458928571Y59521428D01*
X-459214285Y59521428D01*
X-459357142Y59592857D01*
X-459428571Y59735714D01*
X-459428571Y60307142D01*
X-459357142Y60450000D01*
X-459214285Y60521428D01*
X-458928571Y60521428D01*
X-458785714Y60450000D01*
X-458714285Y60307142D01*
X-458714285Y60164285D01*
X-459428571Y60021428D01*
X-458142857Y59592857D02*
X-458000000Y59521428D01*
X-457714285Y59521428D01*
X-457571428Y59592857D01*
X-457500000Y59735714D01*
X-457500000Y59807142D01*
X-457571428Y59950000D01*
X-457714285Y60021428D01*
X-457928571Y60021428D01*
X-458071428Y60092857D01*
X-458142857Y60235714D01*
X-458142857Y60307142D01*
X-458071428Y60450000D01*
X-457928571Y60521428D01*
X-457714285Y60521428D01*
X-457571428Y60450000D01*
X-455785714Y59592857D02*
X-455571428Y59521428D01*
X-455214285Y59521428D01*
X-455071428Y59592857D01*
X-455000000Y59664285D01*
X-454928571Y59807142D01*
X-454928571Y59950000D01*
X-455000000Y60092857D01*
X-455071428Y60164285D01*
X-455214285Y60235714D01*
X-455500000Y60307142D01*
X-455642857Y60378571D01*
X-455714285Y60450000D01*
X-455785714Y60592857D01*
X-455785714Y60735714D01*
X-455714285Y60878571D01*
X-455642857Y60950000D01*
X-455500000Y61021428D01*
X-455142857Y61021428D01*
X-454928571Y60950000D01*
X-453642857Y59521428D02*
X-453642857Y60307142D01*
X-453714285Y60450000D01*
X-453857142Y60521428D01*
X-454142857Y60521428D01*
X-454285714Y60450000D01*
X-453642857Y59592857D02*
X-453785714Y59521428D01*
X-454142857Y59521428D01*
X-454285714Y59592857D01*
X-454357142Y59735714D01*
X-454357142Y59878571D01*
X-454285714Y60021428D01*
X-454142857Y60092857D01*
X-453785714Y60092857D01*
X-453642857Y60164285D01*
D14*
%TO.C,Reset1*%
X-413750000Y64000000D02*
X-413750000Y62500000D01*
X-412500000Y60000000D02*
X-408000000Y60000000D01*
X-406750000Y62500000D02*
X-406750000Y64000000D01*
X-408000000Y66500000D02*
X-412500000Y66500000D01*
%TO.C,D20*%
X-478200000Y-4265000D02*
X-480660000Y-4265000D01*
X-480660000Y-4265000D02*
X-480660000Y-5735000D01*
X-480660000Y-5735000D02*
X-478200000Y-5735000D01*
%TO.C,D19*%
X-464200000Y-9265000D02*
X-466660000Y-9265000D01*
X-466660000Y-9265000D02*
X-466660000Y-10735000D01*
X-466660000Y-10735000D02*
X-464200000Y-10735000D01*
%TO.C,D18*%
X-444200000Y-4265000D02*
X-446660000Y-4265000D01*
X-446660000Y-4265000D02*
X-446660000Y-5735000D01*
X-446660000Y-5735000D02*
X-444200000Y-5735000D01*
%TO.C,D17*%
X-424200000Y-9265000D02*
X-426660000Y-9265000D01*
X-426660000Y-9265000D02*
X-426660000Y-10735000D01*
X-426660000Y-10735000D02*
X-424200000Y-10735000D01*
%TO.C,D16*%
X-404200000Y735000D02*
X-406660000Y735000D01*
X-406660000Y735000D02*
X-406660000Y-735000D01*
X-406660000Y-735000D02*
X-404200000Y-735000D01*
%TO.C,D15*%
X-484200000Y5735000D02*
X-486660000Y5735000D01*
X-486660000Y5735000D02*
X-486660000Y4265000D01*
X-486660000Y4265000D02*
X-484200000Y4265000D01*
%TO.C,D14*%
X-464200000Y10735000D02*
X-466660000Y10735000D01*
X-466660000Y10735000D02*
X-466660000Y9265000D01*
X-466660000Y9265000D02*
X-464200000Y9265000D01*
%TO.C,D13*%
X-444200000Y15735000D02*
X-446660000Y15735000D01*
X-446660000Y15735000D02*
X-446660000Y14265000D01*
X-446660000Y14265000D02*
X-444200000Y14265000D01*
%TO.C,D12*%
X-424200000Y10735000D02*
X-426660000Y10735000D01*
X-426660000Y10735000D02*
X-426660000Y9265000D01*
X-426660000Y9265000D02*
X-424200000Y9265000D01*
%TO.C,D11*%
X-404200000Y5735000D02*
X-406660000Y5735000D01*
X-406660000Y5735000D02*
X-406660000Y4265000D01*
X-406660000Y4265000D02*
X-404200000Y4265000D01*
%TO.C,D10*%
X-484137500Y25735000D02*
X-486597500Y25735000D01*
X-486597500Y25735000D02*
X-486597500Y24265000D01*
X-486597500Y24265000D02*
X-484137500Y24265000D01*
%TO.C,D9*%
X-464200000Y30735000D02*
X-466660000Y30735000D01*
X-466660000Y30735000D02*
X-466660000Y29265000D01*
X-466660000Y29265000D02*
X-464200000Y29265000D01*
%TO.C,D8*%
X-444200000Y35735000D02*
X-446660000Y35735000D01*
X-446660000Y35735000D02*
X-446660000Y34265000D01*
X-446660000Y34265000D02*
X-444200000Y34265000D01*
%TO.C,D7*%
X-424200000Y30735000D02*
X-426660000Y30735000D01*
X-426660000Y30735000D02*
X-426660000Y29265000D01*
X-426660000Y29265000D02*
X-424200000Y29265000D01*
%TO.C,D6*%
X-404137500Y25735000D02*
X-406597500Y25735000D01*
X-406597500Y25735000D02*
X-406597500Y24265000D01*
X-406597500Y24265000D02*
X-404137500Y24265000D01*
%TO.C,D5*%
X-484200000Y46735000D02*
X-486660000Y46735000D01*
X-486660000Y46735000D02*
X-486660000Y45265000D01*
X-486660000Y45265000D02*
X-484200000Y45265000D01*
%TO.C,D4*%
X-464137500Y50735000D02*
X-466597500Y50735000D01*
X-466597500Y50735000D02*
X-466597500Y49265000D01*
X-466597500Y49265000D02*
X-464137500Y49265000D01*
%TO.C,D3*%
X-444200000Y55735000D02*
X-446660000Y55735000D01*
X-446660000Y55735000D02*
X-446660000Y54265000D01*
X-446660000Y54265000D02*
X-444200000Y54265000D01*
%TO.C,D2*%
X-424200000Y50735000D02*
X-426660000Y50735000D01*
X-426660000Y50735000D02*
X-426660000Y49265000D01*
X-426660000Y49265000D02*
X-424200000Y49265000D01*
%TO.C,D1*%
X-404137500Y45735000D02*
X-406597500Y45735000D01*
X-406597500Y45735000D02*
X-406597500Y44265000D01*
X-406597500Y44265000D02*
X-404137500Y44265000D01*
D15*
%TO.C,B1*%
X-493890000Y65240000D02*
X-493890000Y34760000D01*
X-493890000Y34760000D02*
X-476110000Y34760000D01*
X-476110000Y34760000D02*
X-476110000Y65240000D01*
X-491350000Y65240000D02*
X-491350000Y62700000D01*
X-491350000Y62700000D02*
X-493890000Y62700000D01*
D11*
G36*
X-480068432Y59360640D02*
G01*
X-480068432Y59060640D01*
X-480168432Y59060640D01*
X-480168432Y59360640D01*
X-480068432Y59360640D01*
G37*
X-480068432Y59360640D02*
X-480068432Y59060640D01*
X-480168432Y59060640D01*
X-480168432Y59360640D01*
X-480068432Y59360640D01*
G36*
X-480268432Y58960640D02*
G01*
X-480268432Y58860640D01*
X-480368432Y58860640D01*
X-480368432Y58960640D01*
X-480268432Y58960640D01*
G37*
X-480268432Y58960640D02*
X-480268432Y58860640D01*
X-480368432Y58860640D01*
X-480368432Y58960640D01*
X-480268432Y58960640D01*
G36*
X-480068432Y59360640D02*
G01*
X-480068432Y59260640D01*
X-480568432Y59260640D01*
X-480568432Y59360640D01*
X-480068432Y59360640D01*
G37*
X-480068432Y59360640D02*
X-480068432Y59260640D01*
X-480568432Y59260640D01*
X-480568432Y59360640D01*
X-480068432Y59360640D01*
G36*
X-480468432Y59360640D02*
G01*
X-480468432Y58560640D01*
X-480568432Y58560640D01*
X-480568432Y59360640D01*
X-480468432Y59360640D01*
G37*
X-480468432Y59360640D02*
X-480468432Y58560640D01*
X-480568432Y58560640D01*
X-480568432Y59360640D01*
X-480468432Y59360640D01*
G36*
X-480068432Y58760640D02*
G01*
X-480068432Y58560640D01*
X-480168432Y58560640D01*
X-480168432Y58760640D01*
X-480068432Y58760640D01*
G37*
X-480068432Y58760640D02*
X-480068432Y58560640D01*
X-480168432Y58560640D01*
X-480168432Y58760640D01*
X-480068432Y58760640D01*
D15*
X-476110000Y65240000D02*
X-476110000Y67780000D01*
X-476110000Y67780000D02*
X-493890000Y67780000D01*
X-493890000Y67780000D02*
X-493890000Y65240000D01*
X-491350000Y65240000D02*
X-493890000Y65240000D01*
D11*
X-490762348Y64408095D02*
X-490305205Y64408095D01*
X-490533776Y63608095D02*
X-490533776Y64408095D01*
X-490114729Y64408095D02*
X-489581395Y63608095D01*
X-489581395Y64408095D02*
X-490114729Y63608095D01*
X-489124252Y64408095D02*
X-489048062Y64408095D01*
X-488971872Y64370000D01*
X-488933776Y64331904D01*
X-488895681Y64255714D01*
X-488857586Y64103333D01*
X-488857586Y63912857D01*
X-488895681Y63760476D01*
X-488933776Y63684285D01*
X-488971872Y63646190D01*
X-489048062Y63608095D01*
X-489124252Y63608095D01*
X-489200443Y63646190D01*
X-489238538Y63684285D01*
X-489276633Y63760476D01*
X-489314729Y63912857D01*
X-489314729Y64103333D01*
X-489276633Y64255714D01*
X-489238538Y64331904D01*
X-489200443Y64370000D01*
X-489124252Y64408095D01*
X-487943300Y64446190D02*
X-488629014Y63417619D01*
X-487676633Y63608095D02*
X-487676633Y64408095D01*
X-487486157Y64408095D01*
X-487371872Y64370000D01*
X-487295681Y64293809D01*
X-487257586Y64217619D01*
X-487219491Y64065238D01*
X-487219491Y63950952D01*
X-487257586Y63798571D01*
X-487295681Y63722380D01*
X-487371872Y63646190D01*
X-487486157Y63608095D01*
X-487676633Y63608095D01*
X-486952824Y64408095D02*
X-486457586Y64408095D01*
X-486724252Y64103333D01*
X-486609967Y64103333D01*
X-486533776Y64065238D01*
X-486495681Y64027142D01*
X-486457586Y63950952D01*
X-486457586Y63760476D01*
X-486495681Y63684285D01*
X-486533776Y63646190D01*
X-486609967Y63608095D01*
X-486838538Y63608095D01*
X-486914729Y63646190D01*
X-486952824Y63684285D01*
X-491051476Y61068095D02*
X-491051476Y61868095D01*
X-490861000Y61868095D01*
X-490746714Y61830000D01*
X-490670523Y61753809D01*
X-490632428Y61677619D01*
X-490594333Y61525238D01*
X-490594333Y61410952D01*
X-490632428Y61258571D01*
X-490670523Y61182380D01*
X-490746714Y61106190D01*
X-490861000Y61068095D01*
X-491051476Y61068095D01*
X-490289571Y61791904D02*
X-490251476Y61830000D01*
X-490175285Y61868095D01*
X-489984809Y61868095D01*
X-489908619Y61830000D01*
X-489870523Y61791904D01*
X-489832428Y61715714D01*
X-489832428Y61639523D01*
X-489870523Y61525238D01*
X-490327666Y61068095D01*
X-489832428Y61068095D01*
X-491051476Y50908095D02*
X-491051476Y51708095D01*
X-490861000Y51708095D01*
X-490746714Y51670000D01*
X-490670523Y51593809D01*
X-490632428Y51517619D01*
X-490594333Y51365238D01*
X-490594333Y51250952D01*
X-490632428Y51098571D01*
X-490670523Y51022380D01*
X-490746714Y50946190D01*
X-490861000Y50908095D01*
X-491051476Y50908095D01*
X-490099095Y51708095D02*
X-490022904Y51708095D01*
X-489946714Y51670000D01*
X-489908619Y51631904D01*
X-489870523Y51555714D01*
X-489832428Y51403333D01*
X-489832428Y51212857D01*
X-489870523Y51060476D01*
X-489908619Y50984285D01*
X-489946714Y50946190D01*
X-490022904Y50908095D01*
X-490099095Y50908095D01*
X-490175285Y50946190D01*
X-490213380Y50984285D01*
X-490251476Y51060476D01*
X-490289571Y51212857D01*
X-490289571Y51403333D01*
X-490251476Y51555714D01*
X-490213380Y51631904D01*
X-490175285Y51670000D01*
X-490099095Y51708095D01*
X-491051476Y53448095D02*
X-491051476Y54248095D01*
X-490861000Y54248095D01*
X-490746714Y54210000D01*
X-490670523Y54133809D01*
X-490632428Y54057619D01*
X-490594333Y53905238D01*
X-490594333Y53790952D01*
X-490632428Y53638571D01*
X-490670523Y53562380D01*
X-490746714Y53486190D01*
X-490861000Y53448095D01*
X-491051476Y53448095D01*
X-489832428Y53448095D02*
X-490289571Y53448095D01*
X-490061000Y53448095D02*
X-490061000Y54248095D01*
X-490137190Y54133809D01*
X-490213380Y54057619D01*
X-490289571Y54019523D01*
X-491070523Y56750000D02*
X-491146714Y56788095D01*
X-491261000Y56788095D01*
X-491375285Y56750000D01*
X-491451476Y56673809D01*
X-491489571Y56597619D01*
X-491527666Y56445238D01*
X-491527666Y56330952D01*
X-491489571Y56178571D01*
X-491451476Y56102380D01*
X-491375285Y56026190D01*
X-491261000Y55988095D01*
X-491184809Y55988095D01*
X-491070523Y56026190D01*
X-491032428Y56064285D01*
X-491032428Y56330952D01*
X-491184809Y56330952D01*
X-490689571Y55988095D02*
X-490689571Y56788095D01*
X-490232428Y55988095D01*
X-490232428Y56788095D01*
X-489851476Y55988095D02*
X-489851476Y56788095D01*
X-489661000Y56788095D01*
X-489546714Y56750000D01*
X-489470523Y56673809D01*
X-489432428Y56597619D01*
X-489394333Y56445238D01*
X-489394333Y56330952D01*
X-489432428Y56178571D01*
X-489470523Y56102380D01*
X-489546714Y56026190D01*
X-489661000Y55988095D01*
X-489851476Y55988095D01*
X-491070523Y59290000D02*
X-491146714Y59328095D01*
X-491261000Y59328095D01*
X-491375285Y59290000D01*
X-491451476Y59213809D01*
X-491489571Y59137619D01*
X-491527666Y58985238D01*
X-491527666Y58870952D01*
X-491489571Y58718571D01*
X-491451476Y58642380D01*
X-491375285Y58566190D01*
X-491261000Y58528095D01*
X-491184809Y58528095D01*
X-491070523Y58566190D01*
X-491032428Y58604285D01*
X-491032428Y58870952D01*
X-491184809Y58870952D01*
X-490689571Y58528095D02*
X-490689571Y59328095D01*
X-490232428Y58528095D01*
X-490232428Y59328095D01*
X-489851476Y58528095D02*
X-489851476Y59328095D01*
X-489661000Y59328095D01*
X-489546714Y59290000D01*
X-489470523Y59213809D01*
X-489432428Y59137619D01*
X-489394333Y58985238D01*
X-489394333Y58870952D01*
X-489432428Y58718571D01*
X-489470523Y58642380D01*
X-489546714Y58566190D01*
X-489661000Y58528095D01*
X-489851476Y58528095D01*
X-491051476Y48368095D02*
X-491051476Y49168095D01*
X-490861000Y49168095D01*
X-490746714Y49130000D01*
X-490670523Y49053809D01*
X-490632428Y48977619D01*
X-490594333Y48825238D01*
X-490594333Y48710952D01*
X-490632428Y48558571D01*
X-490670523Y48482380D01*
X-490746714Y48406190D01*
X-490861000Y48368095D01*
X-491051476Y48368095D01*
X-489908619Y48901428D02*
X-489908619Y48368095D01*
X-490099095Y49206190D02*
X-490289571Y48634761D01*
X-489794333Y48634761D01*
X-490594333Y45904285D02*
X-490632428Y45866190D01*
X-490746714Y45828095D01*
X-490822904Y45828095D01*
X-490937190Y45866190D01*
X-491013380Y45942380D01*
X-491051476Y46018571D01*
X-491089571Y46170952D01*
X-491089571Y46285238D01*
X-491051476Y46437619D01*
X-491013380Y46513809D01*
X-490937190Y46590000D01*
X-490822904Y46628095D01*
X-490746714Y46628095D01*
X-490632428Y46590000D01*
X-490594333Y46551904D01*
X-489908619Y46628095D02*
X-490061000Y46628095D01*
X-490137190Y46590000D01*
X-490175285Y46551904D01*
X-490251476Y46437619D01*
X-490289571Y46285238D01*
X-490289571Y45980476D01*
X-490251476Y45904285D01*
X-490213380Y45866190D01*
X-490137190Y45828095D01*
X-489984809Y45828095D01*
X-489908619Y45866190D01*
X-489870523Y45904285D01*
X-489832428Y45980476D01*
X-489832428Y46170952D01*
X-489870523Y46247142D01*
X-489908619Y46285238D01*
X-489984809Y46323333D01*
X-490137190Y46323333D01*
X-490213380Y46285238D01*
X-490251476Y46247142D01*
X-490289571Y46170952D01*
X-491051476Y43288095D02*
X-491051476Y44088095D01*
X-490861000Y44088095D01*
X-490746714Y44050000D01*
X-490670523Y43973809D01*
X-490632428Y43897619D01*
X-490594333Y43745238D01*
X-490594333Y43630952D01*
X-490632428Y43478571D01*
X-490670523Y43402380D01*
X-490746714Y43326190D01*
X-490861000Y43288095D01*
X-491051476Y43288095D01*
X-490327666Y44088095D02*
X-489794333Y44088095D01*
X-490137190Y43288095D01*
X-491013380Y41167142D02*
X-490746714Y41167142D01*
X-490632428Y40748095D02*
X-491013380Y40748095D01*
X-491013380Y41548095D01*
X-490632428Y41548095D01*
X-489946714Y41548095D02*
X-490099095Y41548095D01*
X-490175285Y41510000D01*
X-490213380Y41471904D01*
X-490289571Y41357619D01*
X-490327666Y41205238D01*
X-490327666Y40900476D01*
X-490289571Y40824285D01*
X-490251476Y40786190D01*
X-490175285Y40748095D01*
X-490022904Y40748095D01*
X-489946714Y40786190D01*
X-489908619Y40824285D01*
X-489870523Y40900476D01*
X-489870523Y41090952D01*
X-489908619Y41167142D01*
X-489946714Y41205238D01*
X-490022904Y41243333D01*
X-490175285Y41243333D01*
X-490251476Y41205238D01*
X-490289571Y41167142D01*
X-490327666Y41090952D01*
X-490784809Y38627142D02*
X-490670523Y38589047D01*
X-490632428Y38550952D01*
X-490594333Y38474761D01*
X-490594333Y38360476D01*
X-490632428Y38284285D01*
X-490670523Y38246190D01*
X-490746714Y38208095D01*
X-491051476Y38208095D01*
X-491051476Y39008095D01*
X-490784809Y39008095D01*
X-490708619Y38970000D01*
X-490670523Y38931904D01*
X-490632428Y38855714D01*
X-490632428Y38779523D01*
X-490670523Y38703333D01*
X-490708619Y38665238D01*
X-490784809Y38627142D01*
X-491051476Y38627142D01*
X-489908619Y38741428D02*
X-489908619Y38208095D01*
X-490099095Y39046190D02*
X-490289571Y38474761D01*
X-489794333Y38474761D01*
X-490784809Y36087142D02*
X-490670523Y36049047D01*
X-490632428Y36010952D01*
X-490594333Y35934761D01*
X-490594333Y35820476D01*
X-490632428Y35744285D01*
X-490670523Y35706190D01*
X-490746714Y35668095D01*
X-491051476Y35668095D01*
X-491051476Y36468095D01*
X-490784809Y36468095D01*
X-490708619Y36430000D01*
X-490670523Y36391904D01*
X-490632428Y36315714D01*
X-490632428Y36239523D01*
X-490670523Y36163333D01*
X-490708619Y36125238D01*
X-490784809Y36087142D01*
X-491051476Y36087142D01*
X-489870523Y36468095D02*
X-490251476Y36468095D01*
X-490289571Y36087142D01*
X-490251476Y36125238D01*
X-490175285Y36163333D01*
X-489984809Y36163333D01*
X-489908619Y36125238D01*
X-489870523Y36087142D01*
X-489832428Y36010952D01*
X-489832428Y35820476D01*
X-489870523Y35744285D01*
X-489908619Y35706190D01*
X-489984809Y35668095D01*
X-490175285Y35668095D01*
X-490251476Y35706190D01*
X-490289571Y35744285D01*
X-479862809Y36087142D02*
X-479748523Y36049047D01*
X-479710428Y36010952D01*
X-479672333Y35934761D01*
X-479672333Y35820476D01*
X-479710428Y35744285D01*
X-479748523Y35706190D01*
X-479824714Y35668095D01*
X-480129476Y35668095D01*
X-480129476Y36468095D01*
X-479862809Y36468095D01*
X-479786619Y36430000D01*
X-479748523Y36391904D01*
X-479710428Y36315714D01*
X-479710428Y36239523D01*
X-479748523Y36163333D01*
X-479786619Y36125238D01*
X-479862809Y36087142D01*
X-480129476Y36087142D01*
X-478986619Y36468095D02*
X-479139000Y36468095D01*
X-479215190Y36430000D01*
X-479253285Y36391904D01*
X-479329476Y36277619D01*
X-479367571Y36125238D01*
X-479367571Y35820476D01*
X-479329476Y35744285D01*
X-479291380Y35706190D01*
X-479215190Y35668095D01*
X-479062809Y35668095D01*
X-478986619Y35706190D01*
X-478948523Y35744285D01*
X-478910428Y35820476D01*
X-478910428Y36010952D01*
X-478948523Y36087142D01*
X-478986619Y36125238D01*
X-479062809Y36163333D01*
X-479215190Y36163333D01*
X-479291380Y36125238D01*
X-479329476Y36087142D01*
X-479367571Y36010952D01*
X-479862809Y41167142D02*
X-479748523Y41129047D01*
X-479710428Y41090952D01*
X-479672333Y41014761D01*
X-479672333Y40900476D01*
X-479710428Y40824285D01*
X-479748523Y40786190D01*
X-479824714Y40748095D01*
X-480129476Y40748095D01*
X-480129476Y41548095D01*
X-479862809Y41548095D01*
X-479786619Y41510000D01*
X-479748523Y41471904D01*
X-479710428Y41395714D01*
X-479710428Y41319523D01*
X-479748523Y41243333D01*
X-479786619Y41205238D01*
X-479862809Y41167142D01*
X-480129476Y41167142D01*
X-479405666Y41548095D02*
X-478910428Y41548095D01*
X-479177095Y41243333D01*
X-479062809Y41243333D01*
X-478986619Y41205238D01*
X-478948523Y41167142D01*
X-478910428Y41090952D01*
X-478910428Y40900476D01*
X-478948523Y40824285D01*
X-478986619Y40786190D01*
X-479062809Y40748095D01*
X-479291380Y40748095D01*
X-479367571Y40786190D01*
X-479405666Y40824285D01*
X-479862809Y43707142D02*
X-479748523Y43669047D01*
X-479710428Y43630952D01*
X-479672333Y43554761D01*
X-479672333Y43440476D01*
X-479710428Y43364285D01*
X-479748523Y43326190D01*
X-479824714Y43288095D01*
X-480129476Y43288095D01*
X-480129476Y44088095D01*
X-479862809Y44088095D01*
X-479786619Y44050000D01*
X-479748523Y44011904D01*
X-479710428Y43935714D01*
X-479710428Y43859523D01*
X-479748523Y43783333D01*
X-479786619Y43745238D01*
X-479862809Y43707142D01*
X-480129476Y43707142D01*
X-478910428Y43288095D02*
X-479367571Y43288095D01*
X-479139000Y43288095D02*
X-479139000Y44088095D01*
X-479215190Y43973809D01*
X-479291380Y43897619D01*
X-479367571Y43859523D01*
X-479805666Y53867142D02*
X-480072333Y53867142D01*
X-480072333Y53448095D02*
X-480072333Y54248095D01*
X-479691380Y54248095D01*
X-479043761Y53981428D02*
X-479043761Y53448095D01*
X-479234238Y54286190D02*
X-479424714Y53714761D01*
X-478929476Y53714761D01*
X-480605666Y56788095D02*
X-480339000Y55988095D01*
X-480072333Y56788095D01*
X-479348523Y56064285D02*
X-479386619Y56026190D01*
X-479500904Y55988095D01*
X-479577095Y55988095D01*
X-479691380Y56026190D01*
X-479767571Y56102380D01*
X-479805666Y56178571D01*
X-479843761Y56330952D01*
X-479843761Y56445238D01*
X-479805666Y56597619D01*
X-479767571Y56673809D01*
X-479691380Y56750000D01*
X-479577095Y56788095D01*
X-479500904Y56788095D01*
X-479386619Y56750000D01*
X-479348523Y56711904D01*
X-478548523Y56064285D02*
X-478586619Y56026190D01*
X-478700904Y55988095D01*
X-478777095Y55988095D01*
X-478891380Y56026190D01*
X-478967571Y56102380D01*
X-479005666Y56178571D01*
X-479043761Y56330952D01*
X-479043761Y56445238D01*
X-479005666Y56597619D01*
X-478967571Y56673809D01*
X-478891380Y56750000D01*
X-478777095Y56788095D01*
X-478700904Y56788095D01*
X-478586619Y56750000D01*
X-478548523Y56711904D01*
X-479800213Y58596190D02*
X-479685927Y58558095D01*
X-479495451Y58558095D01*
X-479419260Y58596190D01*
X-479381165Y58634285D01*
X-479343070Y58710476D01*
X-479343070Y58786666D01*
X-479381165Y58862857D01*
X-479419260Y58900952D01*
X-479495451Y58939047D01*
X-479647832Y58977142D01*
X-479724022Y59015238D01*
X-479762118Y59053333D01*
X-479800213Y59129523D01*
X-479800213Y59205714D01*
X-479762118Y59281904D01*
X-479724022Y59320000D01*
X-479647832Y59358095D01*
X-479457356Y59358095D01*
X-479343070Y59320000D01*
X-479114499Y59358095D02*
X-478657356Y59358095D01*
X-478885927Y58558095D02*
X-478885927Y59358095D01*
X-480148523Y61830000D02*
X-480224714Y61868095D01*
X-480339000Y61868095D01*
X-480453285Y61830000D01*
X-480529476Y61753809D01*
X-480567571Y61677619D01*
X-480605666Y61525238D01*
X-480605666Y61410952D01*
X-480567571Y61258571D01*
X-480529476Y61182380D01*
X-480453285Y61106190D01*
X-480339000Y61068095D01*
X-480262809Y61068095D01*
X-480148523Y61106190D01*
X-480110428Y61144285D01*
X-480110428Y61410952D01*
X-480262809Y61410952D01*
X-479767571Y61068095D02*
X-479767571Y61868095D01*
X-479310428Y61068095D01*
X-479310428Y61868095D01*
X-478929476Y61068095D02*
X-478929476Y61868095D01*
X-478739000Y61868095D01*
X-478624714Y61830000D01*
X-478548523Y61753809D01*
X-478510428Y61677619D01*
X-478472333Y61525238D01*
X-478472333Y61410952D01*
X-478510428Y61258571D01*
X-478548523Y61182380D01*
X-478624714Y61106190D01*
X-478739000Y61068095D01*
X-478929476Y61068095D01*
X-480091380Y63608095D02*
X-480358047Y63989047D01*
X-480548523Y63608095D02*
X-480548523Y64408095D01*
X-480243761Y64408095D01*
X-480167571Y64370000D01*
X-480129476Y64331904D01*
X-480091380Y64255714D01*
X-480091380Y64141428D01*
X-480129476Y64065238D01*
X-480167571Y64027142D01*
X-480243761Y63989047D01*
X-480548523Y63989047D01*
X-479786619Y63836666D02*
X-479405666Y63836666D01*
X-479862809Y63608095D02*
X-479596142Y64408095D01*
X-479329476Y63608095D01*
X-479139000Y64408095D02*
X-478948523Y63608095D01*
X-478796142Y64179523D01*
X-478643761Y63608095D01*
X-478453285Y64408095D01*
X-479805666Y51327142D02*
X-480072333Y51327142D01*
X-480072333Y50908095D02*
X-480072333Y51708095D01*
X-479691380Y51708095D01*
X-479005666Y51708095D02*
X-479386619Y51708095D01*
X-479424714Y51327142D01*
X-479386619Y51365238D01*
X-479310428Y51403333D01*
X-479119952Y51403333D01*
X-479043761Y51365238D01*
X-479005666Y51327142D01*
X-478967571Y51250952D01*
X-478967571Y51060476D01*
X-479005666Y50984285D01*
X-479043761Y50946190D01*
X-479119952Y50908095D01*
X-479310428Y50908095D01*
X-479386619Y50946190D01*
X-479424714Y50984285D01*
X-479805666Y48787142D02*
X-480072333Y48787142D01*
X-480072333Y48368095D02*
X-480072333Y49168095D01*
X-479691380Y49168095D01*
X-479043761Y49168095D02*
X-479196142Y49168095D01*
X-479272333Y49130000D01*
X-479310428Y49091904D01*
X-479386619Y48977619D01*
X-479424714Y48825238D01*
X-479424714Y48520476D01*
X-479386619Y48444285D01*
X-479348523Y48406190D01*
X-479272333Y48368095D01*
X-479119952Y48368095D01*
X-479043761Y48406190D01*
X-479005666Y48444285D01*
X-478967571Y48520476D01*
X-478967571Y48710952D01*
X-479005666Y48787142D01*
X-479043761Y48825238D01*
X-479119952Y48863333D01*
X-479272333Y48863333D01*
X-479348523Y48825238D01*
X-479386619Y48787142D01*
X-479424714Y48710952D01*
X-479805666Y46247142D02*
X-480072333Y46247142D01*
X-480072333Y45828095D02*
X-480072333Y46628095D01*
X-479691380Y46628095D01*
X-479462809Y46628095D02*
X-478929476Y46628095D01*
X-479272333Y45828095D01*
X-479862809Y38627142D02*
X-479748523Y38589047D01*
X-479710428Y38550952D01*
X-479672333Y38474761D01*
X-479672333Y38360476D01*
X-479710428Y38284285D01*
X-479748523Y38246190D01*
X-479824714Y38208095D01*
X-480129476Y38208095D01*
X-480129476Y39008095D01*
X-479862809Y39008095D01*
X-479786619Y38970000D01*
X-479748523Y38931904D01*
X-479710428Y38855714D01*
X-479710428Y38779523D01*
X-479748523Y38703333D01*
X-479786619Y38665238D01*
X-479862809Y38627142D01*
X-480129476Y38627142D01*
X-479367571Y38931904D02*
X-479329476Y38970000D01*
X-479253285Y39008095D01*
X-479062809Y39008095D01*
X-478986619Y38970000D01*
X-478948523Y38931904D01*
X-478910428Y38855714D01*
X-478910428Y38779523D01*
X-478948523Y38665238D01*
X-479405666Y38208095D01*
X-478910428Y38208095D01*
%TD*%
M02*
