M48
; DRILL file {KiCad (5.1.9-0-10_14)} date Friday, April 02, 2021 at 12:26:16 AM
; FORMAT={-:-/ absolute / inch / decimal}
; #@! TF.CreationDate,2021-04-02T00:26:16+08:00
; #@! TF.GenerationSoftware,Kicad,Pcbnew,(5.1.9-0-10_14)
; #@! TF.FileFunction,Plated,1,2,PTH
FMAT,2
INCH
T1C0.0430
T2C0.0591
%
G90
G05
T1
X-19.3945Y2.5185
X-19.3945Y2.4185
X-19.3945Y2.3185
X-19.3945Y2.2185
X-19.3945Y2.1185
X-19.3945Y2.0185
X-19.3945Y1.9185
X-19.3945Y1.8185
X-19.3945Y1.7185
X-19.3945Y1.6185
X-19.3945Y1.5185
X-19.3945Y1.4185
X-18.7945Y2.5185
X-18.7945Y2.4185
X-18.7945Y2.3185
X-18.7945Y2.2185
X-18.7945Y2.1185
X-18.7945Y2.0185
X-18.7945Y1.9185
X-18.7945Y1.8185
X-18.7945Y1.7185
X-18.7945Y1.6185
X-18.7945Y1.5185
X-18.7945Y1.4185
T2
X-19.3819Y-0.1937
X-19.1945Y2.1685
X-19.1945Y1.3811
X-19.1945Y0.5937
X-19.1319Y-0.2937
X-18.9445Y2.0685
X-18.9445Y1.2811
X-18.9445Y0.4937
X-18.4071Y2.3654
X-18.4071Y1.578
X-18.4071Y0.7906
X-18.4071Y0.0031
X-18.1571Y2.2654
X-18.1571Y1.478
X-18.1571Y0.6906
X-18.1571Y-0.0969
X-17.6197Y2.5622
X-17.6197Y1.7748
X-17.6197Y0.9874
X-17.6197Y0.2
X-17.3697Y2.4622
X-17.3697Y1.6748
X-17.3697Y0.8874
X-17.3697Y0.1
X-16.8323Y2.3654
X-16.8323Y1.578
X-16.8323Y0.7906
X-16.8323Y0.0031
X-16.5823Y2.2654
X-16.5823Y1.478
X-16.5823Y0.6906
X-16.5823Y-0.0969
X-16.0449Y2.1685
X-16.0449Y1.378
X-16.0449Y0.5937
X-16.0449Y-0.1937
X-15.7949Y2.0685
X-15.7949Y1.278
X-15.7949Y0.4937
X-15.7949Y-0.2937
T0
M30
