%TF.GenerationSoftware,KiCad,Pcbnew,(5.1.9-0-10_14)*%
%TF.CreationDate,2021-04-02T00:26:10+08:00*%
%TF.ProjectId,MinecraftPad,4d696e65-6372-4616-9674-5061642e6b69,v0.1*%
%TF.SameCoordinates,Original*%
%TF.FileFunction,Copper,L1,Top*%
%TF.FilePolarity,Positive*%
%FSLAX46Y46*%
G04 Gerber Fmt 4.6, Leading zero omitted, Abs format (unit mm)*
G04 Created by KiCad (PCBNEW (5.1.9-0-10_14)) date 2021-04-02 00:26:10*
%MOMM*%
%LPD*%
G01*
G04 APERTURE LIST*
%ADD10C,0.100000*%
%ADD11C,0.150000*%
%ADD12C,0.300000*%
%ADD13C,0.400000*%
%TA.AperFunction,ComponentPad*%
%ADD14C,2.200000*%
%TD*%
%TA.AperFunction,ComponentPad*%
%ADD15C,1.752600*%
%TD*%
%TA.AperFunction,ComponentPad*%
%ADD16R,1.752600X1.752600*%
%TD*%
%TA.AperFunction,Conductor*%
%ADD17C,0.250000*%
%TD*%
%TA.AperFunction,Conductor*%
%ADD18C,0.254000*%
%TD*%
%TA.AperFunction,Conductor*%
%ADD19C,0.100000*%
%TD*%
G04 APERTURE END LIST*
D10*
D11*
X177002200Y-166007200D02*
X177002200Y-198007200D01*
X285002200Y-198007200D01*
X285002200Y-166007200D01*
X177002200Y-166007200D01*
D10*
D11*
X10000000Y-10000000D02*
X10000000Y-200007200D01*
X287002200Y-200007200D01*
X287002200Y-10000000D01*
X10000000Y-10000000D01*
D10*
D11*
X12000000Y-12000000D02*
X12000000Y-198007200D01*
X285002200Y-198007200D01*
X285002200Y-12000000D01*
X12000000Y-12000000D01*
D10*
D11*
X60000000Y-12000000D02*
X60000000Y-10000000D01*
D10*
D11*
X110000000Y-12000000D02*
X110000000Y-10000000D01*
D10*
D11*
X160000000Y-12000000D02*
X160000000Y-10000000D01*
D10*
D11*
X210000000Y-12000000D02*
X210000000Y-10000000D01*
D10*
D11*
X260000000Y-12000000D02*
X260000000Y-10000000D01*
D10*
D11*
X36065476Y-11588095D02*
X35322619Y-11588095D01*
X35694047Y-11588095D02*
X35694047Y-10288095D01*
X35570238Y-10473809D01*
X35446428Y-10597619D01*
X35322619Y-10659523D01*
D10*
D11*
X85322619Y-10411904D02*
X85384523Y-10350000D01*
X85508333Y-10288095D01*
X85817857Y-10288095D01*
X85941666Y-10350000D01*
X86003571Y-10411904D01*
X86065476Y-10535714D01*
X86065476Y-10659523D01*
X86003571Y-10845238D01*
X85260714Y-11588095D01*
X86065476Y-11588095D01*
D10*
D11*
X135260714Y-10288095D02*
X136065476Y-10288095D01*
X135632142Y-10783333D01*
X135817857Y-10783333D01*
X135941666Y-10845238D01*
X136003571Y-10907142D01*
X136065476Y-11030952D01*
X136065476Y-11340476D01*
X136003571Y-11464285D01*
X135941666Y-11526190D01*
X135817857Y-11588095D01*
X135446428Y-11588095D01*
X135322619Y-11526190D01*
X135260714Y-11464285D01*
D10*
D11*
X185941666Y-10721428D02*
X185941666Y-11588095D01*
X185632142Y-10226190D02*
X185322619Y-11154761D01*
X186127380Y-11154761D01*
D10*
D11*
X236003571Y-10288095D02*
X235384523Y-10288095D01*
X235322619Y-10907142D01*
X235384523Y-10845238D01*
X235508333Y-10783333D01*
X235817857Y-10783333D01*
X235941666Y-10845238D01*
X236003571Y-10907142D01*
X236065476Y-11030952D01*
X236065476Y-11340476D01*
X236003571Y-11464285D01*
X235941666Y-11526190D01*
X235817857Y-11588095D01*
X235508333Y-11588095D01*
X235384523Y-11526190D01*
X235322619Y-11464285D01*
D10*
D11*
X285941666Y-10288095D02*
X285694047Y-10288095D01*
X285570238Y-10350000D01*
X285508333Y-10411904D01*
X285384523Y-10597619D01*
X285322619Y-10845238D01*
X285322619Y-11340476D01*
X285384523Y-11464285D01*
X285446428Y-11526190D01*
X285570238Y-11588095D01*
X285817857Y-11588095D01*
X285941666Y-11526190D01*
X286003571Y-11464285D01*
X286065476Y-11340476D01*
X286065476Y-11030952D01*
X286003571Y-10907142D01*
X285941666Y-10845238D01*
X285817857Y-10783333D01*
X285570238Y-10783333D01*
X285446428Y-10845238D01*
X285384523Y-10907142D01*
X285322619Y-11030952D01*
D10*
D11*
X60000000Y-198007200D02*
X60000000Y-200007200D01*
D10*
D11*
X110000000Y-198007200D02*
X110000000Y-200007200D01*
D10*
D11*
X160000000Y-198007200D02*
X160000000Y-200007200D01*
D10*
D11*
X210000000Y-198007200D02*
X210000000Y-200007200D01*
D10*
D11*
X260000000Y-198007200D02*
X260000000Y-200007200D01*
D10*
D11*
X36065476Y-199595295D02*
X35322619Y-199595295D01*
X35694047Y-199595295D02*
X35694047Y-198295295D01*
X35570238Y-198481009D01*
X35446428Y-198604819D01*
X35322619Y-198666723D01*
D10*
D11*
X85322619Y-198419104D02*
X85384523Y-198357200D01*
X85508333Y-198295295D01*
X85817857Y-198295295D01*
X85941666Y-198357200D01*
X86003571Y-198419104D01*
X86065476Y-198542914D01*
X86065476Y-198666723D01*
X86003571Y-198852438D01*
X85260714Y-199595295D01*
X86065476Y-199595295D01*
D10*
D11*
X135260714Y-198295295D02*
X136065476Y-198295295D01*
X135632142Y-198790533D01*
X135817857Y-198790533D01*
X135941666Y-198852438D01*
X136003571Y-198914342D01*
X136065476Y-199038152D01*
X136065476Y-199347676D01*
X136003571Y-199471485D01*
X135941666Y-199533390D01*
X135817857Y-199595295D01*
X135446428Y-199595295D01*
X135322619Y-199533390D01*
X135260714Y-199471485D01*
D10*
D11*
X185941666Y-198728628D02*
X185941666Y-199595295D01*
X185632142Y-198233390D02*
X185322619Y-199161961D01*
X186127380Y-199161961D01*
D10*
D11*
X236003571Y-198295295D02*
X235384523Y-198295295D01*
X235322619Y-198914342D01*
X235384523Y-198852438D01*
X235508333Y-198790533D01*
X235817857Y-198790533D01*
X235941666Y-198852438D01*
X236003571Y-198914342D01*
X236065476Y-199038152D01*
X236065476Y-199347676D01*
X236003571Y-199471485D01*
X235941666Y-199533390D01*
X235817857Y-199595295D01*
X235508333Y-199595295D01*
X235384523Y-199533390D01*
X235322619Y-199471485D01*
D10*
D11*
X285941666Y-198295295D02*
X285694047Y-198295295D01*
X285570238Y-198357200D01*
X285508333Y-198419104D01*
X285384523Y-198604819D01*
X285322619Y-198852438D01*
X285322619Y-199347676D01*
X285384523Y-199471485D01*
X285446428Y-199533390D01*
X285570238Y-199595295D01*
X285817857Y-199595295D01*
X285941666Y-199533390D01*
X286003571Y-199471485D01*
X286065476Y-199347676D01*
X286065476Y-199038152D01*
X286003571Y-198914342D01*
X285941666Y-198852438D01*
X285817857Y-198790533D01*
X285570238Y-198790533D01*
X285446428Y-198852438D01*
X285384523Y-198914342D01*
X285322619Y-199038152D01*
D10*
D11*
X10000000Y-60000000D02*
X12000000Y-60000000D01*
D10*
D11*
X10000000Y-110000000D02*
X12000000Y-110000000D01*
D10*
D11*
X10000000Y-160000000D02*
X12000000Y-160000000D01*
D10*
D11*
X10690476Y-35216666D02*
X11309523Y-35216666D01*
X10566666Y-35588095D02*
X11000000Y-34288095D01*
X11433333Y-35588095D01*
D10*
D11*
X11092857Y-84907142D02*
X11278571Y-84969047D01*
X11340476Y-85030952D01*
X11402380Y-85154761D01*
X11402380Y-85340476D01*
X11340476Y-85464285D01*
X11278571Y-85526190D01*
X11154761Y-85588095D01*
X10659523Y-85588095D01*
X10659523Y-84288095D01*
X11092857Y-84288095D01*
X11216666Y-84350000D01*
X11278571Y-84411904D01*
X11340476Y-84535714D01*
X11340476Y-84659523D01*
X11278571Y-84783333D01*
X11216666Y-84845238D01*
X11092857Y-84907142D01*
X10659523Y-84907142D01*
D10*
D11*
X11402380Y-135464285D02*
X11340476Y-135526190D01*
X11154761Y-135588095D01*
X11030952Y-135588095D01*
X10845238Y-135526190D01*
X10721428Y-135402380D01*
X10659523Y-135278571D01*
X10597619Y-135030952D01*
X10597619Y-134845238D01*
X10659523Y-134597619D01*
X10721428Y-134473809D01*
X10845238Y-134350000D01*
X11030952Y-134288095D01*
X11154761Y-134288095D01*
X11340476Y-134350000D01*
X11402380Y-134411904D01*
D10*
D11*
X10659523Y-185588095D02*
X10659523Y-184288095D01*
X10969047Y-184288095D01*
X11154761Y-184350000D01*
X11278571Y-184473809D01*
X11340476Y-184597619D01*
X11402380Y-184845238D01*
X11402380Y-185030952D01*
X11340476Y-185278571D01*
X11278571Y-185402380D01*
X11154761Y-185526190D01*
X10969047Y-185588095D01*
X10659523Y-185588095D01*
D10*
D11*
X287002200Y-60000000D02*
X285002200Y-60000000D01*
D10*
D11*
X287002200Y-110000000D02*
X285002200Y-110000000D01*
D10*
D11*
X287002200Y-160000000D02*
X285002200Y-160000000D01*
D10*
D11*
X285692676Y-35216666D02*
X286311723Y-35216666D01*
X285568866Y-35588095D02*
X286002200Y-34288095D01*
X286435533Y-35588095D01*
D10*
D11*
X286095057Y-84907142D02*
X286280771Y-84969047D01*
X286342676Y-85030952D01*
X286404580Y-85154761D01*
X286404580Y-85340476D01*
X286342676Y-85464285D01*
X286280771Y-85526190D01*
X286156961Y-85588095D01*
X285661723Y-85588095D01*
X285661723Y-84288095D01*
X286095057Y-84288095D01*
X286218866Y-84350000D01*
X286280771Y-84411904D01*
X286342676Y-84535714D01*
X286342676Y-84659523D01*
X286280771Y-84783333D01*
X286218866Y-84845238D01*
X286095057Y-84907142D01*
X285661723Y-84907142D01*
D10*
D11*
X286404580Y-135464285D02*
X286342676Y-135526190D01*
X286156961Y-135588095D01*
X286033152Y-135588095D01*
X285847438Y-135526190D01*
X285723628Y-135402380D01*
X285661723Y-135278571D01*
X285599819Y-135030952D01*
X285599819Y-134845238D01*
X285661723Y-134597619D01*
X285723628Y-134473809D01*
X285847438Y-134350000D01*
X286033152Y-134288095D01*
X286156961Y-134288095D01*
X286342676Y-134350000D01*
X286404580Y-134411904D01*
D10*
D11*
X285661723Y-185588095D02*
X285661723Y-184288095D01*
X285971247Y-184288095D01*
X286156961Y-184350000D01*
X286280771Y-184473809D01*
X286342676Y-184597619D01*
X286404580Y-184845238D01*
X286404580Y-185030952D01*
X286342676Y-185278571D01*
X286280771Y-185402380D01*
X286156961Y-185526190D01*
X285971247Y-185588095D01*
X285661723Y-185588095D01*
D10*
D11*
X200434342Y-193785771D02*
X200434342Y-192285771D01*
X200791485Y-192285771D01*
X201005771Y-192357200D01*
X201148628Y-192500057D01*
X201220057Y-192642914D01*
X201291485Y-192928628D01*
X201291485Y-193142914D01*
X201220057Y-193428628D01*
X201148628Y-193571485D01*
X201005771Y-193714342D01*
X200791485Y-193785771D01*
X200434342Y-193785771D01*
X202577200Y-193785771D02*
X202577200Y-193000057D01*
X202505771Y-192857200D01*
X202362914Y-192785771D01*
X202077200Y-192785771D01*
X201934342Y-192857200D01*
X202577200Y-193714342D02*
X202434342Y-193785771D01*
X202077200Y-193785771D01*
X201934342Y-193714342D01*
X201862914Y-193571485D01*
X201862914Y-193428628D01*
X201934342Y-193285771D01*
X202077200Y-193214342D01*
X202434342Y-193214342D01*
X202577200Y-193142914D01*
X203077200Y-192785771D02*
X203648628Y-192785771D01*
X203291485Y-192285771D02*
X203291485Y-193571485D01*
X203362914Y-193714342D01*
X203505771Y-193785771D01*
X203648628Y-193785771D01*
X204720057Y-193714342D02*
X204577200Y-193785771D01*
X204291485Y-193785771D01*
X204148628Y-193714342D01*
X204077200Y-193571485D01*
X204077200Y-193000057D01*
X204148628Y-192857200D01*
X204291485Y-192785771D01*
X204577200Y-192785771D01*
X204720057Y-192857200D01*
X204791485Y-193000057D01*
X204791485Y-193142914D01*
X204077200Y-193285771D01*
X205434342Y-193642914D02*
X205505771Y-193714342D01*
X205434342Y-193785771D01*
X205362914Y-193714342D01*
X205434342Y-193642914D01*
X205434342Y-193785771D01*
X205434342Y-192857200D02*
X205505771Y-192928628D01*
X205434342Y-193000057D01*
X205362914Y-192928628D01*
X205434342Y-192857200D01*
X205434342Y-193000057D01*
X207220057Y-192428628D02*
X207291485Y-192357200D01*
X207434342Y-192285771D01*
X207791485Y-192285771D01*
X207934342Y-192357200D01*
X208005771Y-192428628D01*
X208077200Y-192571485D01*
X208077200Y-192714342D01*
X208005771Y-192928628D01*
X207148628Y-193785771D01*
X208077200Y-193785771D01*
X209005771Y-192285771D02*
X209148628Y-192285771D01*
X209291485Y-192357200D01*
X209362914Y-192428628D01*
X209434342Y-192571485D01*
X209505771Y-192857200D01*
X209505771Y-193214342D01*
X209434342Y-193500057D01*
X209362914Y-193642914D01*
X209291485Y-193714342D01*
X209148628Y-193785771D01*
X209005771Y-193785771D01*
X208862914Y-193714342D01*
X208791485Y-193642914D01*
X208720057Y-193500057D01*
X208648628Y-193214342D01*
X208648628Y-192857200D01*
X208720057Y-192571485D01*
X208791485Y-192428628D01*
X208862914Y-192357200D01*
X209005771Y-192285771D01*
X210077200Y-192428628D02*
X210148628Y-192357200D01*
X210291485Y-192285771D01*
X210648628Y-192285771D01*
X210791485Y-192357200D01*
X210862914Y-192428628D01*
X210934342Y-192571485D01*
X210934342Y-192714342D01*
X210862914Y-192928628D01*
X210005771Y-193785771D01*
X210934342Y-193785771D01*
X212362914Y-193785771D02*
X211505771Y-193785771D01*
X211934342Y-193785771D02*
X211934342Y-192285771D01*
X211791485Y-192500057D01*
X211648628Y-192642914D01*
X211505771Y-192714342D01*
X213005771Y-193214342D02*
X214148628Y-193214342D01*
X215148628Y-192285771D02*
X215291485Y-192285771D01*
X215434342Y-192357200D01*
X215505771Y-192428628D01*
X215577200Y-192571485D01*
X215648628Y-192857200D01*
X215648628Y-193214342D01*
X215577200Y-193500057D01*
X215505771Y-193642914D01*
X215434342Y-193714342D01*
X215291485Y-193785771D01*
X215148628Y-193785771D01*
X215005771Y-193714342D01*
X214934342Y-193642914D01*
X214862914Y-193500057D01*
X214791485Y-193214342D01*
X214791485Y-192857200D01*
X214862914Y-192571485D01*
X214934342Y-192428628D01*
X215005771Y-192357200D01*
X215148628Y-192285771D01*
X216934342Y-192785771D02*
X216934342Y-193785771D01*
X216577200Y-192214342D02*
X216220057Y-193285771D01*
X217148628Y-193285771D01*
X217720057Y-193214342D02*
X218862914Y-193214342D01*
X219862914Y-192285771D02*
X220005771Y-192285771D01*
X220148628Y-192357200D01*
X220220057Y-192428628D01*
X220291485Y-192571485D01*
X220362914Y-192857200D01*
X220362914Y-193214342D01*
X220291485Y-193500057D01*
X220220057Y-193642914D01*
X220148628Y-193714342D01*
X220005771Y-193785771D01*
X219862914Y-193785771D01*
X219720057Y-193714342D01*
X219648628Y-193642914D01*
X219577200Y-193500057D01*
X219505771Y-193214342D01*
X219505771Y-192857200D01*
X219577200Y-192571485D01*
X219648628Y-192428628D01*
X219720057Y-192357200D01*
X219862914Y-192285771D01*
X221791485Y-193785771D02*
X220934342Y-193785771D01*
X221362914Y-193785771D02*
X221362914Y-192285771D01*
X221220057Y-192500057D01*
X221077200Y-192642914D01*
X220934342Y-192714342D01*
D10*
D11*
X177002200Y-194507200D02*
X285002200Y-194507200D01*
D10*
D11*
X178434342Y-196585771D02*
X178434342Y-195085771D01*
X179291485Y-196585771D02*
X178648628Y-195728628D01*
X179291485Y-195085771D02*
X178434342Y-195942914D01*
X179934342Y-196585771D02*
X179934342Y-195585771D01*
X179934342Y-195085771D02*
X179862914Y-195157200D01*
X179934342Y-195228628D01*
X180005771Y-195157200D01*
X179934342Y-195085771D01*
X179934342Y-195228628D01*
X181505771Y-196442914D02*
X181434342Y-196514342D01*
X181220057Y-196585771D01*
X181077200Y-196585771D01*
X180862914Y-196514342D01*
X180720057Y-196371485D01*
X180648628Y-196228628D01*
X180577200Y-195942914D01*
X180577200Y-195728628D01*
X180648628Y-195442914D01*
X180720057Y-195300057D01*
X180862914Y-195157200D01*
X181077200Y-195085771D01*
X181220057Y-195085771D01*
X181434342Y-195157200D01*
X181505771Y-195228628D01*
X182791485Y-196585771D02*
X182791485Y-195800057D01*
X182720057Y-195657200D01*
X182577200Y-195585771D01*
X182291485Y-195585771D01*
X182148628Y-195657200D01*
X182791485Y-196514342D02*
X182648628Y-196585771D01*
X182291485Y-196585771D01*
X182148628Y-196514342D01*
X182077200Y-196371485D01*
X182077200Y-196228628D01*
X182148628Y-196085771D01*
X182291485Y-196014342D01*
X182648628Y-196014342D01*
X182791485Y-195942914D01*
X184148628Y-196585771D02*
X184148628Y-195085771D01*
X184148628Y-196514342D02*
X184005771Y-196585771D01*
X183720057Y-196585771D01*
X183577200Y-196514342D01*
X183505771Y-196442914D01*
X183434342Y-196300057D01*
X183434342Y-195871485D01*
X183505771Y-195728628D01*
X183577200Y-195657200D01*
X183720057Y-195585771D01*
X184005771Y-195585771D01*
X184148628Y-195657200D01*
X186005771Y-195800057D02*
X186505771Y-195800057D01*
X186720057Y-196585771D02*
X186005771Y-196585771D01*
X186005771Y-195085771D01*
X186720057Y-195085771D01*
X187362914Y-196442914D02*
X187434342Y-196514342D01*
X187362914Y-196585771D01*
X187291485Y-196514342D01*
X187362914Y-196442914D01*
X187362914Y-196585771D01*
X188077200Y-196585771D02*
X188077200Y-195085771D01*
X188434342Y-195085771D01*
X188648628Y-195157200D01*
X188791485Y-195300057D01*
X188862914Y-195442914D01*
X188934342Y-195728628D01*
X188934342Y-195942914D01*
X188862914Y-196228628D01*
X188791485Y-196371485D01*
X188648628Y-196514342D01*
X188434342Y-196585771D01*
X188077200Y-196585771D01*
X189577200Y-196442914D02*
X189648628Y-196514342D01*
X189577200Y-196585771D01*
X189505771Y-196514342D01*
X189577200Y-196442914D01*
X189577200Y-196585771D01*
X190220057Y-196157200D02*
X190934342Y-196157200D01*
X190077200Y-196585771D02*
X190577200Y-195085771D01*
X191077200Y-196585771D01*
X191577200Y-196442914D02*
X191648628Y-196514342D01*
X191577200Y-196585771D01*
X191505771Y-196514342D01*
X191577200Y-196442914D01*
X191577200Y-196585771D01*
X194577200Y-196585771D02*
X194577200Y-195085771D01*
X194720057Y-196014342D02*
X195148628Y-196585771D01*
X195148628Y-195585771D02*
X194577200Y-196157200D01*
X195791485Y-196585771D02*
X195791485Y-195585771D01*
X195791485Y-195085771D02*
X195720057Y-195157200D01*
X195791485Y-195228628D01*
X195862914Y-195157200D01*
X195791485Y-195085771D01*
X195791485Y-195228628D01*
X197148628Y-196514342D02*
X197005771Y-196585771D01*
X196720057Y-196585771D01*
X196577200Y-196514342D01*
X196505771Y-196442914D01*
X196434342Y-196300057D01*
X196434342Y-195871485D01*
X196505771Y-195728628D01*
X196577200Y-195657200D01*
X196720057Y-195585771D01*
X197005771Y-195585771D01*
X197148628Y-195657200D01*
X198434342Y-196585771D02*
X198434342Y-195800057D01*
X198362914Y-195657200D01*
X198220057Y-195585771D01*
X197934342Y-195585771D01*
X197791485Y-195657200D01*
X198434342Y-196514342D02*
X198291485Y-196585771D01*
X197934342Y-196585771D01*
X197791485Y-196514342D01*
X197720057Y-196371485D01*
X197720057Y-196228628D01*
X197791485Y-196085771D01*
X197934342Y-196014342D01*
X198291485Y-196014342D01*
X198434342Y-195942914D01*
X199791485Y-196585771D02*
X199791485Y-195085771D01*
X199791485Y-196514342D02*
X199648628Y-196585771D01*
X199362914Y-196585771D01*
X199220057Y-196514342D01*
X199148628Y-196442914D01*
X199077200Y-196300057D01*
X199077200Y-195871485D01*
X199148628Y-195728628D01*
X199220057Y-195657200D01*
X199362914Y-195585771D01*
X199648628Y-195585771D01*
X199791485Y-195657200D01*
X202077200Y-197157200D02*
X202005771Y-197085771D01*
X201862914Y-196871485D01*
X201791485Y-196728628D01*
X201720057Y-196514342D01*
X201648628Y-196157200D01*
X201648628Y-195871485D01*
X201720057Y-195514342D01*
X201791485Y-195300057D01*
X201862914Y-195157200D01*
X202005771Y-194942914D01*
X202077200Y-194871485D01*
X203362914Y-195085771D02*
X202648628Y-195085771D01*
X202577200Y-195800057D01*
X202648628Y-195728628D01*
X202791485Y-195657200D01*
X203148628Y-195657200D01*
X203291485Y-195728628D01*
X203362914Y-195800057D01*
X203434342Y-195942914D01*
X203434342Y-196300057D01*
X203362914Y-196442914D01*
X203291485Y-196514342D01*
X203148628Y-196585771D01*
X202791485Y-196585771D01*
X202648628Y-196514342D01*
X202577200Y-196442914D01*
X204077200Y-196442914D02*
X204148628Y-196514342D01*
X204077200Y-196585771D01*
X204005771Y-196514342D01*
X204077200Y-196442914D01*
X204077200Y-196585771D01*
X205577200Y-196585771D02*
X204720057Y-196585771D01*
X205148628Y-196585771D02*
X205148628Y-195085771D01*
X205005771Y-195300057D01*
X204862914Y-195442914D01*
X204720057Y-195514342D01*
X206220057Y-196442914D02*
X206291485Y-196514342D01*
X206220057Y-196585771D01*
X206148628Y-196514342D01*
X206220057Y-196442914D01*
X206220057Y-196585771D01*
X207005771Y-196585771D02*
X207291485Y-196585771D01*
X207434342Y-196514342D01*
X207505771Y-196442914D01*
X207648628Y-196228628D01*
X207720057Y-195942914D01*
X207720057Y-195371485D01*
X207648628Y-195228628D01*
X207577200Y-195157200D01*
X207434342Y-195085771D01*
X207148628Y-195085771D01*
X207005771Y-195157200D01*
X206934342Y-195228628D01*
X206862914Y-195371485D01*
X206862914Y-195728628D01*
X206934342Y-195871485D01*
X207005771Y-195942914D01*
X207148628Y-196014342D01*
X207434342Y-196014342D01*
X207577200Y-195942914D01*
X207648628Y-195871485D01*
X207720057Y-195728628D01*
X208362914Y-196014342D02*
X209505771Y-196014342D01*
X210505771Y-195085771D02*
X210648628Y-195085771D01*
X210791485Y-195157200D01*
X210862914Y-195228628D01*
X210934342Y-195371485D01*
X211005771Y-195657200D01*
X211005771Y-196014342D01*
X210934342Y-196300057D01*
X210862914Y-196442914D01*
X210791485Y-196514342D01*
X210648628Y-196585771D01*
X210505771Y-196585771D01*
X210362914Y-196514342D01*
X210291485Y-196442914D01*
X210220057Y-196300057D01*
X210148628Y-196014342D01*
X210148628Y-195657200D01*
X210220057Y-195371485D01*
X210291485Y-195228628D01*
X210362914Y-195157200D01*
X210505771Y-195085771D01*
X211648628Y-196014342D02*
X212791485Y-196014342D01*
X214291485Y-196585771D02*
X213434342Y-196585771D01*
X213862914Y-196585771D02*
X213862914Y-195085771D01*
X213720057Y-195300057D01*
X213577200Y-195442914D01*
X213434342Y-195514342D01*
X215220057Y-195085771D02*
X215362914Y-195085771D01*
X215505771Y-195157200D01*
X215577200Y-195228628D01*
X215648628Y-195371485D01*
X215720057Y-195657200D01*
X215720057Y-196014342D01*
X215648628Y-196300057D01*
X215577200Y-196442914D01*
X215505771Y-196514342D01*
X215362914Y-196585771D01*
X215220057Y-196585771D01*
X215077200Y-196514342D01*
X215005771Y-196442914D01*
X214934342Y-196300057D01*
X214862914Y-196014342D01*
X214862914Y-195657200D01*
X214934342Y-195371485D01*
X215005771Y-195228628D01*
X215077200Y-195157200D01*
X215220057Y-195085771D01*
X216005771Y-196728628D02*
X217148628Y-196728628D01*
X218291485Y-196585771D02*
X217434342Y-196585771D01*
X217862914Y-196585771D02*
X217862914Y-195085771D01*
X217720057Y-195300057D01*
X217577200Y-195442914D01*
X217434342Y-195514342D01*
X219577200Y-195585771D02*
X219577200Y-196585771D01*
X219220057Y-195014342D02*
X218862914Y-196085771D01*
X219791485Y-196085771D01*
X220220057Y-197157200D02*
X220291485Y-197085771D01*
X220434342Y-196871485D01*
X220505771Y-196728628D01*
X220577200Y-196514342D01*
X220648628Y-196157200D01*
X220648628Y-195871485D01*
X220577200Y-195514342D01*
X220505771Y-195300057D01*
X220434342Y-195157200D01*
X220291485Y-194942914D01*
X220220057Y-194871485D01*
D10*
D11*
X177002200Y-191507200D02*
X285002200Y-191507200D01*
D10*
D12*
X264411485Y-193785771D02*
X263911485Y-193071485D01*
X263554342Y-193785771D02*
X263554342Y-192285771D01*
X264125771Y-192285771D01*
X264268628Y-192357200D01*
X264340057Y-192428628D01*
X264411485Y-192571485D01*
X264411485Y-192785771D01*
X264340057Y-192928628D01*
X264268628Y-193000057D01*
X264125771Y-193071485D01*
X263554342Y-193071485D01*
X265625771Y-193714342D02*
X265482914Y-193785771D01*
X265197200Y-193785771D01*
X265054342Y-193714342D01*
X264982914Y-193571485D01*
X264982914Y-193000057D01*
X265054342Y-192857200D01*
X265197200Y-192785771D01*
X265482914Y-192785771D01*
X265625771Y-192857200D01*
X265697200Y-193000057D01*
X265697200Y-193142914D01*
X264982914Y-193285771D01*
X266197200Y-192785771D02*
X266554342Y-193785771D01*
X266911485Y-192785771D01*
X267482914Y-193642914D02*
X267554342Y-193714342D01*
X267482914Y-193785771D01*
X267411485Y-193714342D01*
X267482914Y-193642914D01*
X267482914Y-193785771D01*
X267482914Y-192857200D02*
X267554342Y-192928628D01*
X267482914Y-193000057D01*
X267411485Y-192928628D01*
X267482914Y-192857200D01*
X267482914Y-193000057D01*
X269197200Y-192785771D02*
X269554342Y-193785771D01*
X269911485Y-192785771D01*
X270768628Y-192285771D02*
X270911485Y-192285771D01*
X271054342Y-192357200D01*
X271125771Y-192428628D01*
X271197200Y-192571485D01*
X271268628Y-192857200D01*
X271268628Y-193214342D01*
X271197200Y-193500057D01*
X271125771Y-193642914D01*
X271054342Y-193714342D01*
X270911485Y-193785771D01*
X270768628Y-193785771D01*
X270625771Y-193714342D01*
X270554342Y-193642914D01*
X270482914Y-193500057D01*
X270411485Y-193214342D01*
X270411485Y-192857200D01*
X270482914Y-192571485D01*
X270554342Y-192428628D01*
X270625771Y-192357200D01*
X270768628Y-192285771D01*
X271911485Y-193642914D02*
X271982914Y-193714342D01*
X271911485Y-193785771D01*
X271840057Y-193714342D01*
X271911485Y-193642914D01*
X271911485Y-193785771D01*
X273411485Y-193785771D02*
X272554342Y-193785771D01*
X272982914Y-193785771D02*
X272982914Y-192285771D01*
X272840057Y-192500057D01*
X272697200Y-192642914D01*
X272554342Y-192714342D01*
D10*
D11*
X178362914Y-193714342D02*
X178577200Y-193785771D01*
X178934342Y-193785771D01*
X179077200Y-193714342D01*
X179148628Y-193642914D01*
X179220057Y-193500057D01*
X179220057Y-193357200D01*
X179148628Y-193214342D01*
X179077200Y-193142914D01*
X178934342Y-193071485D01*
X178648628Y-193000057D01*
X178505771Y-192928628D01*
X178434342Y-192857200D01*
X178362914Y-192714342D01*
X178362914Y-192571485D01*
X178434342Y-192428628D01*
X178505771Y-192357200D01*
X178648628Y-192285771D01*
X179005771Y-192285771D01*
X179220057Y-192357200D01*
X179862914Y-193785771D02*
X179862914Y-192785771D01*
X179862914Y-192285771D02*
X179791485Y-192357200D01*
X179862914Y-192428628D01*
X179934342Y-192357200D01*
X179862914Y-192285771D01*
X179862914Y-192428628D01*
X180434342Y-192785771D02*
X181220057Y-192785771D01*
X180434342Y-193785771D01*
X181220057Y-193785771D01*
X182362914Y-193714342D02*
X182220057Y-193785771D01*
X181934342Y-193785771D01*
X181791485Y-193714342D01*
X181720057Y-193571485D01*
X181720057Y-193000057D01*
X181791485Y-192857200D01*
X181934342Y-192785771D01*
X182220057Y-192785771D01*
X182362914Y-192857200D01*
X182434342Y-193000057D01*
X182434342Y-193142914D01*
X181720057Y-193285771D01*
X183077200Y-193642914D02*
X183148628Y-193714342D01*
X183077200Y-193785771D01*
X183005771Y-193714342D01*
X183077200Y-193642914D01*
X183077200Y-193785771D01*
X183077200Y-192857200D02*
X183148628Y-192928628D01*
X183077200Y-193000057D01*
X183005771Y-192928628D01*
X183077200Y-192857200D01*
X183077200Y-193000057D01*
X184862914Y-193357200D02*
X185577200Y-193357200D01*
X184720057Y-193785771D02*
X185220057Y-192285771D01*
X185720057Y-193785771D01*
X186862914Y-192785771D02*
X186862914Y-193785771D01*
X186505771Y-192214342D02*
X186148628Y-193285771D01*
X187077200Y-193285771D01*
D10*
D11*
X263434342Y-196585771D02*
X263434342Y-195085771D01*
X264791485Y-196585771D02*
X264791485Y-195085771D01*
X264791485Y-196514342D02*
X264648628Y-196585771D01*
X264362914Y-196585771D01*
X264220057Y-196514342D01*
X264148628Y-196442914D01*
X264077200Y-196300057D01*
X264077200Y-195871485D01*
X264148628Y-195728628D01*
X264220057Y-195657200D01*
X264362914Y-195585771D01*
X264648628Y-195585771D01*
X264791485Y-195657200D01*
X265505771Y-196442914D02*
X265577200Y-196514342D01*
X265505771Y-196585771D01*
X265434342Y-196514342D01*
X265505771Y-196442914D01*
X265505771Y-196585771D01*
X265505771Y-195657200D02*
X265577200Y-195728628D01*
X265505771Y-195800057D01*
X265434342Y-195728628D01*
X265505771Y-195657200D01*
X265505771Y-195800057D01*
X268148628Y-196585771D02*
X267291485Y-196585771D01*
X267720057Y-196585771D02*
X267720057Y-195085771D01*
X267577200Y-195300057D01*
X267434342Y-195442914D01*
X267291485Y-195514342D01*
X269862914Y-195014342D02*
X268577200Y-196942914D01*
X271148628Y-196585771D02*
X270291485Y-196585771D01*
X270720057Y-196585771D02*
X270720057Y-195085771D01*
X270577200Y-195300057D01*
X270434342Y-195442914D01*
X270291485Y-195514342D01*
D10*
D11*
X177002200Y-187507200D02*
X285002200Y-187507200D01*
D10*
D13*
X178714580Y-188211961D02*
X179857438Y-188211961D01*
X179036009Y-190211961D02*
X179286009Y-188211961D01*
X180274104Y-190211961D02*
X180440771Y-188878628D01*
X180524104Y-188211961D02*
X180416961Y-188307200D01*
X180500295Y-188402438D01*
X180607438Y-188307200D01*
X180524104Y-188211961D01*
X180500295Y-188402438D01*
X181107438Y-188878628D02*
X181869342Y-188878628D01*
X181476485Y-188211961D02*
X181262200Y-189926247D01*
X181333628Y-190116723D01*
X181512200Y-190211961D01*
X181702676Y-190211961D01*
X182655057Y-190211961D02*
X182476485Y-190116723D01*
X182405057Y-189926247D01*
X182619342Y-188211961D01*
X184190771Y-190116723D02*
X183988390Y-190211961D01*
X183607438Y-190211961D01*
X183428866Y-190116723D01*
X183357438Y-189926247D01*
X183452676Y-189164342D01*
X183571723Y-188973866D01*
X183774104Y-188878628D01*
X184155057Y-188878628D01*
X184333628Y-188973866D01*
X184405057Y-189164342D01*
X184381247Y-189354819D01*
X183405057Y-189545295D01*
X185155057Y-190021485D02*
X185238390Y-190116723D01*
X185131247Y-190211961D01*
X185047914Y-190116723D01*
X185155057Y-190021485D01*
X185131247Y-190211961D01*
X185286009Y-188973866D02*
X185369342Y-189069104D01*
X185262200Y-189164342D01*
X185178866Y-189069104D01*
X185286009Y-188973866D01*
X185262200Y-189164342D01*
X188774104Y-190021485D02*
X188666961Y-190116723D01*
X188369342Y-190211961D01*
X188178866Y-190211961D01*
X187905057Y-190116723D01*
X187738390Y-189926247D01*
X187666961Y-189735771D01*
X187619342Y-189354819D01*
X187655057Y-189069104D01*
X187797914Y-188688152D01*
X187916961Y-188497676D01*
X188131247Y-188307200D01*
X188428866Y-188211961D01*
X188619342Y-188211961D01*
X188893152Y-188307200D01*
X188976485Y-188402438D01*
X189607438Y-190211961D02*
X189774104Y-188878628D01*
X189726485Y-189259580D02*
X189845533Y-189069104D01*
X189952676Y-188973866D01*
X190155057Y-188878628D01*
X190345533Y-188878628D01*
X191702676Y-190211961D02*
X191833628Y-189164342D01*
X191762200Y-188973866D01*
X191583628Y-188878628D01*
X191202676Y-188878628D01*
X191000295Y-188973866D01*
X191714580Y-190116723D02*
X191512200Y-190211961D01*
X191036009Y-190211961D01*
X190857438Y-190116723D01*
X190786009Y-189926247D01*
X190809819Y-189735771D01*
X190928866Y-189545295D01*
X191131247Y-189450057D01*
X191607438Y-189450057D01*
X191809819Y-189354819D01*
X192536009Y-188878628D02*
X193297914Y-188878628D01*
X192655057Y-190211961D02*
X192869342Y-188497676D01*
X192988390Y-188307200D01*
X193190771Y-188211961D01*
X193381247Y-188211961D01*
X193678866Y-188878628D02*
X194440771Y-188878628D01*
X194047914Y-188211961D02*
X193833628Y-189926247D01*
X193905057Y-190116723D01*
X194083628Y-190211961D01*
X194274104Y-190211961D01*
X194940771Y-190211961D02*
X195190771Y-188211961D01*
X195952676Y-188211961D01*
X196131247Y-188307200D01*
X196214580Y-188402438D01*
X196286009Y-188592914D01*
X196250295Y-188878628D01*
X196131247Y-189069104D01*
X196024104Y-189164342D01*
X195821723Y-189259580D01*
X195059819Y-189259580D01*
X197797914Y-190211961D02*
X197928866Y-189164342D01*
X197857438Y-188973866D01*
X197678866Y-188878628D01*
X197297914Y-188878628D01*
X197095533Y-188973866D01*
X197809819Y-190116723D02*
X197607438Y-190211961D01*
X197131247Y-190211961D01*
X196952676Y-190116723D01*
X196881247Y-189926247D01*
X196905057Y-189735771D01*
X197024104Y-189545295D01*
X197226485Y-189450057D01*
X197702676Y-189450057D01*
X197905057Y-189354819D01*
X199607438Y-190211961D02*
X199857438Y-188211961D01*
X199619342Y-190116723D02*
X199416961Y-190211961D01*
X199036009Y-190211961D01*
X198857438Y-190116723D01*
X198774104Y-190021485D01*
X198702676Y-189831009D01*
X198774104Y-189259580D01*
X198893152Y-189069104D01*
X199000295Y-188973866D01*
X199202676Y-188878628D01*
X199583628Y-188878628D01*
X199762200Y-188973866D01*
D10*
D11*
X178934342Y-185600057D02*
X178434342Y-185600057D01*
X178434342Y-186385771D02*
X178434342Y-184885771D01*
X179148628Y-184885771D01*
X179720057Y-186385771D02*
X179720057Y-185385771D01*
X179720057Y-184885771D02*
X179648628Y-184957200D01*
X179720057Y-185028628D01*
X179791485Y-184957200D01*
X179720057Y-184885771D01*
X179720057Y-185028628D01*
X180648628Y-186385771D02*
X180505771Y-186314342D01*
X180434342Y-186171485D01*
X180434342Y-184885771D01*
X181791485Y-186314342D02*
X181648628Y-186385771D01*
X181362914Y-186385771D01*
X181220057Y-186314342D01*
X181148628Y-186171485D01*
X181148628Y-185600057D01*
X181220057Y-185457200D01*
X181362914Y-185385771D01*
X181648628Y-185385771D01*
X181791485Y-185457200D01*
X181862914Y-185600057D01*
X181862914Y-185742914D01*
X181148628Y-185885771D01*
X182505771Y-186242914D02*
X182577200Y-186314342D01*
X182505771Y-186385771D01*
X182434342Y-186314342D01*
X182505771Y-186242914D01*
X182505771Y-186385771D01*
X182505771Y-185457200D02*
X182577200Y-185528628D01*
X182505771Y-185600057D01*
X182434342Y-185528628D01*
X182505771Y-185457200D01*
X182505771Y-185600057D01*
X184362914Y-186385771D02*
X184362914Y-184885771D01*
X184862914Y-185957200D01*
X185362914Y-184885771D01*
X185362914Y-186385771D01*
X186077200Y-186385771D02*
X186077200Y-185385771D01*
X186077200Y-184885771D02*
X186005771Y-184957200D01*
X186077200Y-185028628D01*
X186148628Y-184957200D01*
X186077200Y-184885771D01*
X186077200Y-185028628D01*
X186791485Y-185385771D02*
X186791485Y-186385771D01*
X186791485Y-185528628D02*
X186862914Y-185457200D01*
X187005771Y-185385771D01*
X187220057Y-185385771D01*
X187362914Y-185457200D01*
X187434342Y-185600057D01*
X187434342Y-186385771D01*
X188720057Y-186314342D02*
X188577200Y-186385771D01*
X188291485Y-186385771D01*
X188148628Y-186314342D01*
X188077200Y-186171485D01*
X188077200Y-185600057D01*
X188148628Y-185457200D01*
X188291485Y-185385771D01*
X188577200Y-185385771D01*
X188720057Y-185457200D01*
X188791485Y-185600057D01*
X188791485Y-185742914D01*
X188077200Y-185885771D01*
X190077200Y-186314342D02*
X189934342Y-186385771D01*
X189648628Y-186385771D01*
X189505771Y-186314342D01*
X189434342Y-186242914D01*
X189362914Y-186100057D01*
X189362914Y-185671485D01*
X189434342Y-185528628D01*
X189505771Y-185457200D01*
X189648628Y-185385771D01*
X189934342Y-185385771D01*
X190077200Y-185457200D01*
X190720057Y-186385771D02*
X190720057Y-185385771D01*
X190720057Y-185671485D02*
X190791485Y-185528628D01*
X190862914Y-185457200D01*
X191005771Y-185385771D01*
X191148628Y-185385771D01*
X192291485Y-186385771D02*
X192291485Y-185600057D01*
X192220057Y-185457200D01*
X192077200Y-185385771D01*
X191791485Y-185385771D01*
X191648628Y-185457200D01*
X192291485Y-186314342D02*
X192148628Y-186385771D01*
X191791485Y-186385771D01*
X191648628Y-186314342D01*
X191577200Y-186171485D01*
X191577200Y-186028628D01*
X191648628Y-185885771D01*
X191791485Y-185814342D01*
X192148628Y-185814342D01*
X192291485Y-185742914D01*
X192791485Y-185385771D02*
X193362914Y-185385771D01*
X193005771Y-186385771D02*
X193005771Y-185100057D01*
X193077200Y-184957200D01*
X193220057Y-184885771D01*
X193362914Y-184885771D01*
X193648628Y-185385771D02*
X194220057Y-185385771D01*
X193862914Y-184885771D02*
X193862914Y-186171485D01*
X193934342Y-186314342D01*
X194077200Y-186385771D01*
X194220057Y-186385771D01*
X194720057Y-186385771D02*
X194720057Y-184885771D01*
X195291485Y-184885771D01*
X195434342Y-184957200D01*
X195505771Y-185028628D01*
X195577200Y-185171485D01*
X195577200Y-185385771D01*
X195505771Y-185528628D01*
X195434342Y-185600057D01*
X195291485Y-185671485D01*
X194720057Y-185671485D01*
X196862914Y-186385771D02*
X196862914Y-185600057D01*
X196791485Y-185457200D01*
X196648628Y-185385771D01*
X196362914Y-185385771D01*
X196220057Y-185457200D01*
X196862914Y-186314342D02*
X196720057Y-186385771D01*
X196362914Y-186385771D01*
X196220057Y-186314342D01*
X196148628Y-186171485D01*
X196148628Y-186028628D01*
X196220057Y-185885771D01*
X196362914Y-185814342D01*
X196720057Y-185814342D01*
X196862914Y-185742914D01*
X198220057Y-186385771D02*
X198220057Y-184885771D01*
X198220057Y-186314342D02*
X198077200Y-186385771D01*
X197791485Y-186385771D01*
X197648628Y-186314342D01*
X197577200Y-186242914D01*
X197505771Y-186100057D01*
X197505771Y-185671485D01*
X197577200Y-185528628D01*
X197648628Y-185457200D01*
X197791485Y-185385771D01*
X198077200Y-185385771D01*
X198220057Y-185457200D01*
X198934342Y-186242914D02*
X199005771Y-186314342D01*
X198934342Y-186385771D01*
X198862914Y-186314342D01*
X198934342Y-186242914D01*
X198934342Y-186385771D01*
X199648628Y-186385771D02*
X199648628Y-184885771D01*
X199791485Y-185814342D02*
X200220057Y-186385771D01*
X200220057Y-185385771D02*
X199648628Y-185957200D01*
X200862914Y-186385771D02*
X200862914Y-185385771D01*
X200862914Y-184885771D02*
X200791485Y-184957200D01*
X200862914Y-185028628D01*
X200934342Y-184957200D01*
X200862914Y-184885771D01*
X200862914Y-185028628D01*
X202220057Y-186314342D02*
X202077200Y-186385771D01*
X201791485Y-186385771D01*
X201648628Y-186314342D01*
X201577200Y-186242914D01*
X201505771Y-186100057D01*
X201505771Y-185671485D01*
X201577200Y-185528628D01*
X201648628Y-185457200D01*
X201791485Y-185385771D01*
X202077200Y-185385771D01*
X202220057Y-185457200D01*
X203505771Y-186385771D02*
X203505771Y-185600057D01*
X203434342Y-185457200D01*
X203291485Y-185385771D01*
X203005771Y-185385771D01*
X202862914Y-185457200D01*
X203505771Y-186314342D02*
X203362914Y-186385771D01*
X203005771Y-186385771D01*
X202862914Y-186314342D01*
X202791485Y-186171485D01*
X202791485Y-186028628D01*
X202862914Y-185885771D01*
X203005771Y-185814342D01*
X203362914Y-185814342D01*
X203505771Y-185742914D01*
X204862914Y-186385771D02*
X204862914Y-184885771D01*
X204862914Y-186314342D02*
X204720057Y-186385771D01*
X204434342Y-186385771D01*
X204291485Y-186314342D01*
X204220057Y-186242914D01*
X204148628Y-186100057D01*
X204148628Y-185671485D01*
X204220057Y-185528628D01*
X204291485Y-185457200D01*
X204434342Y-185385771D01*
X204720057Y-185385771D01*
X204862914Y-185457200D01*
X205220057Y-186528628D02*
X206362914Y-186528628D01*
X206720057Y-185385771D02*
X206720057Y-186885771D01*
X206720057Y-185457200D02*
X206862914Y-185385771D01*
X207148628Y-185385771D01*
X207291485Y-185457200D01*
X207362914Y-185528628D01*
X207434342Y-185671485D01*
X207434342Y-186100057D01*
X207362914Y-186242914D01*
X207291485Y-186314342D01*
X207148628Y-186385771D01*
X206862914Y-186385771D01*
X206720057Y-186314342D01*
X208720057Y-186314342D02*
X208577200Y-186385771D01*
X208291485Y-186385771D01*
X208148628Y-186314342D01*
X208077200Y-186242914D01*
X208005771Y-186100057D01*
X208005771Y-185671485D01*
X208077200Y-185528628D01*
X208148628Y-185457200D01*
X208291485Y-185385771D01*
X208577200Y-185385771D01*
X208720057Y-185457200D01*
X209362914Y-186385771D02*
X209362914Y-184885771D01*
X209362914Y-185457200D02*
X209505771Y-185385771D01*
X209791485Y-185385771D01*
X209934342Y-185457200D01*
X210005771Y-185528628D01*
X210077200Y-185671485D01*
X210077200Y-186100057D01*
X210005771Y-186242914D01*
X209934342Y-186314342D01*
X209791485Y-186385771D01*
X209505771Y-186385771D01*
X209362914Y-186314342D01*
D10*
D11*
X177002200Y-181507200D02*
X285002200Y-181507200D01*
D10*
D11*
X178362914Y-183614342D02*
X178577200Y-183685771D01*
X178934342Y-183685771D01*
X179077200Y-183614342D01*
X179148628Y-183542914D01*
X179220057Y-183400057D01*
X179220057Y-183257200D01*
X179148628Y-183114342D01*
X179077200Y-183042914D01*
X178934342Y-182971485D01*
X178648628Y-182900057D01*
X178505771Y-182828628D01*
X178434342Y-182757200D01*
X178362914Y-182614342D01*
X178362914Y-182471485D01*
X178434342Y-182328628D01*
X178505771Y-182257200D01*
X178648628Y-182185771D01*
X179005771Y-182185771D01*
X179220057Y-182257200D01*
X179862914Y-183685771D02*
X179862914Y-182185771D01*
X180505771Y-183685771D02*
X180505771Y-182900057D01*
X180434342Y-182757200D01*
X180291485Y-182685771D01*
X180077200Y-182685771D01*
X179934342Y-182757200D01*
X179862914Y-182828628D01*
X181791485Y-183614342D02*
X181648628Y-183685771D01*
X181362914Y-183685771D01*
X181220057Y-183614342D01*
X181148628Y-183471485D01*
X181148628Y-182900057D01*
X181220057Y-182757200D01*
X181362914Y-182685771D01*
X181648628Y-182685771D01*
X181791485Y-182757200D01*
X181862914Y-182900057D01*
X181862914Y-183042914D01*
X181148628Y-183185771D01*
X183077200Y-183614342D02*
X182934342Y-183685771D01*
X182648628Y-183685771D01*
X182505771Y-183614342D01*
X182434342Y-183471485D01*
X182434342Y-182900057D01*
X182505771Y-182757200D01*
X182648628Y-182685771D01*
X182934342Y-182685771D01*
X183077200Y-182757200D01*
X183148628Y-182900057D01*
X183148628Y-183042914D01*
X182434342Y-183185771D01*
X183577200Y-182685771D02*
X184148628Y-182685771D01*
X183791485Y-182185771D02*
X183791485Y-183471485D01*
X183862914Y-183614342D01*
X184005771Y-183685771D01*
X184148628Y-183685771D01*
X184648628Y-183542914D02*
X184720057Y-183614342D01*
X184648628Y-183685771D01*
X184577200Y-183614342D01*
X184648628Y-183542914D01*
X184648628Y-183685771D01*
X184648628Y-182757200D02*
X184720057Y-182828628D01*
X184648628Y-182900057D01*
X184577200Y-182828628D01*
X184648628Y-182757200D01*
X184648628Y-182900057D01*
D10*
D11*
X197002200Y-191507200D02*
X197002200Y-194507200D01*
D10*
D11*
X261002200Y-191507200D02*
X261002200Y-198007200D01*
%TO.P,D20,2*%
%TO.N,Net-(D20-Pad2)*%
%TA.AperFunction,SMDPad,CuDef*%
G36*
G01*
X-478650000Y-5237500D02*
X-478650000Y-4762500D01*
G75*
G02*
X-478412500Y-4525000I237500J0D01*
G01*
X-477837500Y-4525000D01*
G75*
G02*
X-477600000Y-4762500I0J-237500D01*
G01*
X-477600000Y-5237500D01*
G75*
G02*
X-477837500Y-5475000I-237500J0D01*
G01*
X-478412500Y-5475000D01*
G75*
G02*
X-478650000Y-5237500I0J237500D01*
G01*
G37*
%TD.AperFunction*%
%TO.P,D20,1*%
%TO.N,Row4*%
%TA.AperFunction,SMDPad,CuDef*%
G36*
G01*
X-480400000Y-5237500D02*
X-480400000Y-4762500D01*
G75*
G02*
X-480162500Y-4525000I237500J0D01*
G01*
X-479587500Y-4525000D01*
G75*
G02*
X-479350000Y-4762500I0J-237500D01*
G01*
X-479350000Y-5237500D01*
G75*
G02*
X-479587500Y-5475000I-237500J0D01*
G01*
X-480162500Y-5475000D01*
G75*
G02*
X-480400000Y-5237500I0J237500D01*
G01*
G37*
%TD.AperFunction*%
%TD*%
%TO.P,D19,2*%
%TO.N,Net-(D19-Pad2)*%
%TA.AperFunction,SMDPad,CuDef*%
G36*
G01*
X-464650000Y-10237500D02*
X-464650000Y-9762500D01*
G75*
G02*
X-464412500Y-9525000I237500J0D01*
G01*
X-463837500Y-9525000D01*
G75*
G02*
X-463600000Y-9762500I0J-237500D01*
G01*
X-463600000Y-10237500D01*
G75*
G02*
X-463837500Y-10475000I-237500J0D01*
G01*
X-464412500Y-10475000D01*
G75*
G02*
X-464650000Y-10237500I0J237500D01*
G01*
G37*
%TD.AperFunction*%
%TO.P,D19,1*%
%TO.N,Row4*%
%TA.AperFunction,SMDPad,CuDef*%
G36*
G01*
X-466400000Y-10237500D02*
X-466400000Y-9762500D01*
G75*
G02*
X-466162500Y-9525000I237500J0D01*
G01*
X-465587500Y-9525000D01*
G75*
G02*
X-465350000Y-9762500I0J-237500D01*
G01*
X-465350000Y-10237500D01*
G75*
G02*
X-465587500Y-10475000I-237500J0D01*
G01*
X-466162500Y-10475000D01*
G75*
G02*
X-466400000Y-10237500I0J237500D01*
G01*
G37*
%TD.AperFunction*%
%TD*%
%TO.P,D18,2*%
%TO.N,Net-(D18-Pad2)*%
%TA.AperFunction,SMDPad,CuDef*%
G36*
G01*
X-444650000Y-5237500D02*
X-444650000Y-4762500D01*
G75*
G02*
X-444412500Y-4525000I237500J0D01*
G01*
X-443837500Y-4525000D01*
G75*
G02*
X-443600000Y-4762500I0J-237500D01*
G01*
X-443600000Y-5237500D01*
G75*
G02*
X-443837500Y-5475000I-237500J0D01*
G01*
X-444412500Y-5475000D01*
G75*
G02*
X-444650000Y-5237500I0J237500D01*
G01*
G37*
%TD.AperFunction*%
%TO.P,D18,1*%
%TO.N,Row4*%
%TA.AperFunction,SMDPad,CuDef*%
G36*
G01*
X-446400000Y-5237500D02*
X-446400000Y-4762500D01*
G75*
G02*
X-446162500Y-4525000I237500J0D01*
G01*
X-445587500Y-4525000D01*
G75*
G02*
X-445350000Y-4762500I0J-237500D01*
G01*
X-445350000Y-5237500D01*
G75*
G02*
X-445587500Y-5475000I-237500J0D01*
G01*
X-446162500Y-5475000D01*
G75*
G02*
X-446400000Y-5237500I0J237500D01*
G01*
G37*
%TD.AperFunction*%
%TD*%
%TO.P,D17,2*%
%TO.N,Net-(D17-Pad2)*%
%TA.AperFunction,SMDPad,CuDef*%
G36*
G01*
X-424650000Y-10237500D02*
X-424650000Y-9762500D01*
G75*
G02*
X-424412500Y-9525000I237500J0D01*
G01*
X-423837500Y-9525000D01*
G75*
G02*
X-423600000Y-9762500I0J-237500D01*
G01*
X-423600000Y-10237500D01*
G75*
G02*
X-423837500Y-10475000I-237500J0D01*
G01*
X-424412500Y-10475000D01*
G75*
G02*
X-424650000Y-10237500I0J237500D01*
G01*
G37*
%TD.AperFunction*%
%TO.P,D17,1*%
%TO.N,Row4*%
%TA.AperFunction,SMDPad,CuDef*%
G36*
G01*
X-426400000Y-10237500D02*
X-426400000Y-9762500D01*
G75*
G02*
X-426162500Y-9525000I237500J0D01*
G01*
X-425587500Y-9525000D01*
G75*
G02*
X-425350000Y-9762500I0J-237500D01*
G01*
X-425350000Y-10237500D01*
G75*
G02*
X-425587500Y-10475000I-237500J0D01*
G01*
X-426162500Y-10475000D01*
G75*
G02*
X-426400000Y-10237500I0J237500D01*
G01*
G37*
%TD.AperFunction*%
%TD*%
%TO.P,D16,2*%
%TO.N,Net-(D16-Pad2)*%
%TA.AperFunction,SMDPad,CuDef*%
G36*
G01*
X-404650000Y-237500D02*
X-404650000Y237500D01*
G75*
G02*
X-404412500Y475000I237500J0D01*
G01*
X-403837500Y475000D01*
G75*
G02*
X-403600000Y237500I0J-237500D01*
G01*
X-403600000Y-237500D01*
G75*
G02*
X-403837500Y-475000I-237500J0D01*
G01*
X-404412500Y-475000D01*
G75*
G02*
X-404650000Y-237500I0J237500D01*
G01*
G37*
%TD.AperFunction*%
%TO.P,D16,1*%
%TO.N,Row4*%
%TA.AperFunction,SMDPad,CuDef*%
G36*
G01*
X-406400000Y-237500D02*
X-406400000Y237500D01*
G75*
G02*
X-406162500Y475000I237500J0D01*
G01*
X-405587500Y475000D01*
G75*
G02*
X-405350000Y237500I0J-237500D01*
G01*
X-405350000Y-237500D01*
G75*
G02*
X-405587500Y-475000I-237500J0D01*
G01*
X-406162500Y-475000D01*
G75*
G02*
X-406400000Y-237500I0J237500D01*
G01*
G37*
%TD.AperFunction*%
%TD*%
%TO.P,D15,2*%
%TO.N,Net-(D15-Pad2)*%
%TA.AperFunction,SMDPad,CuDef*%
G36*
G01*
X-484650000Y4762500D02*
X-484650000Y5237500D01*
G75*
G02*
X-484412500Y5475000I237500J0D01*
G01*
X-483837500Y5475000D01*
G75*
G02*
X-483600000Y5237500I0J-237500D01*
G01*
X-483600000Y4762500D01*
G75*
G02*
X-483837500Y4525000I-237500J0D01*
G01*
X-484412500Y4525000D01*
G75*
G02*
X-484650000Y4762500I0J237500D01*
G01*
G37*
%TD.AperFunction*%
%TO.P,D15,1*%
%TO.N,Row3*%
%TA.AperFunction,SMDPad,CuDef*%
G36*
G01*
X-486400000Y4762500D02*
X-486400000Y5237500D01*
G75*
G02*
X-486162500Y5475000I237500J0D01*
G01*
X-485587500Y5475000D01*
G75*
G02*
X-485350000Y5237500I0J-237500D01*
G01*
X-485350000Y4762500D01*
G75*
G02*
X-485587500Y4525000I-237500J0D01*
G01*
X-486162500Y4525000D01*
G75*
G02*
X-486400000Y4762500I0J237500D01*
G01*
G37*
%TD.AperFunction*%
%TD*%
%TO.P,D14,2*%
%TO.N,Net-(D14-Pad2)*%
%TA.AperFunction,SMDPad,CuDef*%
G36*
G01*
X-464650000Y9762500D02*
X-464650000Y10237500D01*
G75*
G02*
X-464412500Y10475000I237500J0D01*
G01*
X-463837500Y10475000D01*
G75*
G02*
X-463600000Y10237500I0J-237500D01*
G01*
X-463600000Y9762500D01*
G75*
G02*
X-463837500Y9525000I-237500J0D01*
G01*
X-464412500Y9525000D01*
G75*
G02*
X-464650000Y9762500I0J237500D01*
G01*
G37*
%TD.AperFunction*%
%TO.P,D14,1*%
%TO.N,Row3*%
%TA.AperFunction,SMDPad,CuDef*%
G36*
G01*
X-466400000Y9762500D02*
X-466400000Y10237500D01*
G75*
G02*
X-466162500Y10475000I237500J0D01*
G01*
X-465587500Y10475000D01*
G75*
G02*
X-465350000Y10237500I0J-237500D01*
G01*
X-465350000Y9762500D01*
G75*
G02*
X-465587500Y9525000I-237500J0D01*
G01*
X-466162500Y9525000D01*
G75*
G02*
X-466400000Y9762500I0J237500D01*
G01*
G37*
%TD.AperFunction*%
%TD*%
%TO.P,D13,2*%
%TO.N,Net-(D13-Pad2)*%
%TA.AperFunction,SMDPad,CuDef*%
G36*
G01*
X-444650000Y14762500D02*
X-444650000Y15237500D01*
G75*
G02*
X-444412500Y15475000I237500J0D01*
G01*
X-443837500Y15475000D01*
G75*
G02*
X-443600000Y15237500I0J-237500D01*
G01*
X-443600000Y14762500D01*
G75*
G02*
X-443837500Y14525000I-237500J0D01*
G01*
X-444412500Y14525000D01*
G75*
G02*
X-444650000Y14762500I0J237500D01*
G01*
G37*
%TD.AperFunction*%
%TO.P,D13,1*%
%TO.N,Row3*%
%TA.AperFunction,SMDPad,CuDef*%
G36*
G01*
X-446400000Y14762500D02*
X-446400000Y15237500D01*
G75*
G02*
X-446162500Y15475000I237500J0D01*
G01*
X-445587500Y15475000D01*
G75*
G02*
X-445350000Y15237500I0J-237500D01*
G01*
X-445350000Y14762500D01*
G75*
G02*
X-445587500Y14525000I-237500J0D01*
G01*
X-446162500Y14525000D01*
G75*
G02*
X-446400000Y14762500I0J237500D01*
G01*
G37*
%TD.AperFunction*%
%TD*%
%TO.P,D12,2*%
%TO.N,Net-(D12-Pad2)*%
%TA.AperFunction,SMDPad,CuDef*%
G36*
G01*
X-424650000Y9762500D02*
X-424650000Y10237500D01*
G75*
G02*
X-424412500Y10475000I237500J0D01*
G01*
X-423837500Y10475000D01*
G75*
G02*
X-423600000Y10237500I0J-237500D01*
G01*
X-423600000Y9762500D01*
G75*
G02*
X-423837500Y9525000I-237500J0D01*
G01*
X-424412500Y9525000D01*
G75*
G02*
X-424650000Y9762500I0J237500D01*
G01*
G37*
%TD.AperFunction*%
%TO.P,D12,1*%
%TO.N,Row3*%
%TA.AperFunction,SMDPad,CuDef*%
G36*
G01*
X-426400000Y9762500D02*
X-426400000Y10237500D01*
G75*
G02*
X-426162500Y10475000I237500J0D01*
G01*
X-425587500Y10475000D01*
G75*
G02*
X-425350000Y10237500I0J-237500D01*
G01*
X-425350000Y9762500D01*
G75*
G02*
X-425587500Y9525000I-237500J0D01*
G01*
X-426162500Y9525000D01*
G75*
G02*
X-426400000Y9762500I0J237500D01*
G01*
G37*
%TD.AperFunction*%
%TD*%
%TO.P,D11,2*%
%TO.N,Net-(D11-Pad2)*%
%TA.AperFunction,SMDPad,CuDef*%
G36*
G01*
X-404650000Y4762500D02*
X-404650000Y5237500D01*
G75*
G02*
X-404412500Y5475000I237500J0D01*
G01*
X-403837500Y5475000D01*
G75*
G02*
X-403600000Y5237500I0J-237500D01*
G01*
X-403600000Y4762500D01*
G75*
G02*
X-403837500Y4525000I-237500J0D01*
G01*
X-404412500Y4525000D01*
G75*
G02*
X-404650000Y4762500I0J237500D01*
G01*
G37*
%TD.AperFunction*%
%TO.P,D11,1*%
%TO.N,Row3*%
%TA.AperFunction,SMDPad,CuDef*%
G36*
G01*
X-406400000Y4762500D02*
X-406400000Y5237500D01*
G75*
G02*
X-406162500Y5475000I237500J0D01*
G01*
X-405587500Y5475000D01*
G75*
G02*
X-405350000Y5237500I0J-237500D01*
G01*
X-405350000Y4762500D01*
G75*
G02*
X-405587500Y4525000I-237500J0D01*
G01*
X-406162500Y4525000D01*
G75*
G02*
X-406400000Y4762500I0J237500D01*
G01*
G37*
%TD.AperFunction*%
%TD*%
%TO.P,D10,2*%
%TO.N,Net-(D10-Pad2)*%
%TA.AperFunction,SMDPad,CuDef*%
G36*
G01*
X-484587500Y24762500D02*
X-484587500Y25237500D01*
G75*
G02*
X-484350000Y25475000I237500J0D01*
G01*
X-483775000Y25475000D01*
G75*
G02*
X-483537500Y25237500I0J-237500D01*
G01*
X-483537500Y24762500D01*
G75*
G02*
X-483775000Y24525000I-237500J0D01*
G01*
X-484350000Y24525000D01*
G75*
G02*
X-484587500Y24762500I0J237500D01*
G01*
G37*
%TD.AperFunction*%
%TO.P,D10,1*%
%TO.N,Row2*%
%TA.AperFunction,SMDPad,CuDef*%
G36*
G01*
X-486337500Y24762500D02*
X-486337500Y25237500D01*
G75*
G02*
X-486100000Y25475000I237500J0D01*
G01*
X-485525000Y25475000D01*
G75*
G02*
X-485287500Y25237500I0J-237500D01*
G01*
X-485287500Y24762500D01*
G75*
G02*
X-485525000Y24525000I-237500J0D01*
G01*
X-486100000Y24525000D01*
G75*
G02*
X-486337500Y24762500I0J237500D01*
G01*
G37*
%TD.AperFunction*%
%TD*%
%TO.P,D9,2*%
%TO.N,Net-(D9-Pad2)*%
%TA.AperFunction,SMDPad,CuDef*%
G36*
G01*
X-464650000Y29762500D02*
X-464650000Y30237500D01*
G75*
G02*
X-464412500Y30475000I237500J0D01*
G01*
X-463837500Y30475000D01*
G75*
G02*
X-463600000Y30237500I0J-237500D01*
G01*
X-463600000Y29762500D01*
G75*
G02*
X-463837500Y29525000I-237500J0D01*
G01*
X-464412500Y29525000D01*
G75*
G02*
X-464650000Y29762500I0J237500D01*
G01*
G37*
%TD.AperFunction*%
%TO.P,D9,1*%
%TO.N,Row2*%
%TA.AperFunction,SMDPad,CuDef*%
G36*
G01*
X-466400000Y29762500D02*
X-466400000Y30237500D01*
G75*
G02*
X-466162500Y30475000I237500J0D01*
G01*
X-465587500Y30475000D01*
G75*
G02*
X-465350000Y30237500I0J-237500D01*
G01*
X-465350000Y29762500D01*
G75*
G02*
X-465587500Y29525000I-237500J0D01*
G01*
X-466162500Y29525000D01*
G75*
G02*
X-466400000Y29762500I0J237500D01*
G01*
G37*
%TD.AperFunction*%
%TD*%
%TO.P,D8,2*%
%TO.N,Net-(D8-Pad2)*%
%TA.AperFunction,SMDPad,CuDef*%
G36*
G01*
X-444650000Y34762500D02*
X-444650000Y35237500D01*
G75*
G02*
X-444412500Y35475000I237500J0D01*
G01*
X-443837500Y35475000D01*
G75*
G02*
X-443600000Y35237500I0J-237500D01*
G01*
X-443600000Y34762500D01*
G75*
G02*
X-443837500Y34525000I-237500J0D01*
G01*
X-444412500Y34525000D01*
G75*
G02*
X-444650000Y34762500I0J237500D01*
G01*
G37*
%TD.AperFunction*%
%TO.P,D8,1*%
%TO.N,Row2*%
%TA.AperFunction,SMDPad,CuDef*%
G36*
G01*
X-446400000Y34762500D02*
X-446400000Y35237500D01*
G75*
G02*
X-446162500Y35475000I237500J0D01*
G01*
X-445587500Y35475000D01*
G75*
G02*
X-445350000Y35237500I0J-237500D01*
G01*
X-445350000Y34762500D01*
G75*
G02*
X-445587500Y34525000I-237500J0D01*
G01*
X-446162500Y34525000D01*
G75*
G02*
X-446400000Y34762500I0J237500D01*
G01*
G37*
%TD.AperFunction*%
%TD*%
%TO.P,D7,2*%
%TO.N,Net-(D7-Pad2)*%
%TA.AperFunction,SMDPad,CuDef*%
G36*
G01*
X-424650000Y29762500D02*
X-424650000Y30237500D01*
G75*
G02*
X-424412500Y30475000I237500J0D01*
G01*
X-423837500Y30475000D01*
G75*
G02*
X-423600000Y30237500I0J-237500D01*
G01*
X-423600000Y29762500D01*
G75*
G02*
X-423837500Y29525000I-237500J0D01*
G01*
X-424412500Y29525000D01*
G75*
G02*
X-424650000Y29762500I0J237500D01*
G01*
G37*
%TD.AperFunction*%
%TO.P,D7,1*%
%TO.N,Row2*%
%TA.AperFunction,SMDPad,CuDef*%
G36*
G01*
X-426400000Y29762500D02*
X-426400000Y30237500D01*
G75*
G02*
X-426162500Y30475000I237500J0D01*
G01*
X-425587500Y30475000D01*
G75*
G02*
X-425350000Y30237500I0J-237500D01*
G01*
X-425350000Y29762500D01*
G75*
G02*
X-425587500Y29525000I-237500J0D01*
G01*
X-426162500Y29525000D01*
G75*
G02*
X-426400000Y29762500I0J237500D01*
G01*
G37*
%TD.AperFunction*%
%TD*%
%TO.P,D6,2*%
%TO.N,Net-(D6-Pad2)*%
%TA.AperFunction,SMDPad,CuDef*%
G36*
G01*
X-404587500Y24762500D02*
X-404587500Y25237500D01*
G75*
G02*
X-404350000Y25475000I237500J0D01*
G01*
X-403775000Y25475000D01*
G75*
G02*
X-403537500Y25237500I0J-237500D01*
G01*
X-403537500Y24762500D01*
G75*
G02*
X-403775000Y24525000I-237500J0D01*
G01*
X-404350000Y24525000D01*
G75*
G02*
X-404587500Y24762500I0J237500D01*
G01*
G37*
%TD.AperFunction*%
%TO.P,D6,1*%
%TO.N,Row2*%
%TA.AperFunction,SMDPad,CuDef*%
G36*
G01*
X-406337500Y24762500D02*
X-406337500Y25237500D01*
G75*
G02*
X-406100000Y25475000I237500J0D01*
G01*
X-405525000Y25475000D01*
G75*
G02*
X-405287500Y25237500I0J-237500D01*
G01*
X-405287500Y24762500D01*
G75*
G02*
X-405525000Y24525000I-237500J0D01*
G01*
X-406100000Y24525000D01*
G75*
G02*
X-406337500Y24762500I0J237500D01*
G01*
G37*
%TD.AperFunction*%
%TD*%
%TO.P,D5,2*%
%TO.N,Net-(D5-Pad2)*%
%TA.AperFunction,SMDPad,CuDef*%
G36*
G01*
X-484650000Y45762500D02*
X-484650000Y46237500D01*
G75*
G02*
X-484412500Y46475000I237500J0D01*
G01*
X-483837500Y46475000D01*
G75*
G02*
X-483600000Y46237500I0J-237500D01*
G01*
X-483600000Y45762500D01*
G75*
G02*
X-483837500Y45525000I-237500J0D01*
G01*
X-484412500Y45525000D01*
G75*
G02*
X-484650000Y45762500I0J237500D01*
G01*
G37*
%TD.AperFunction*%
%TO.P,D5,1*%
%TO.N,Row1*%
%TA.AperFunction,SMDPad,CuDef*%
G36*
G01*
X-486400000Y45762500D02*
X-486400000Y46237500D01*
G75*
G02*
X-486162500Y46475000I237500J0D01*
G01*
X-485587500Y46475000D01*
G75*
G02*
X-485350000Y46237500I0J-237500D01*
G01*
X-485350000Y45762500D01*
G75*
G02*
X-485587500Y45525000I-237500J0D01*
G01*
X-486162500Y45525000D01*
G75*
G02*
X-486400000Y45762500I0J237500D01*
G01*
G37*
%TD.AperFunction*%
%TD*%
%TO.P,D4,2*%
%TO.N,Net-(D4-Pad2)*%
%TA.AperFunction,SMDPad,CuDef*%
G36*
G01*
X-464587500Y49762500D02*
X-464587500Y50237500D01*
G75*
G02*
X-464350000Y50475000I237500J0D01*
G01*
X-463775000Y50475000D01*
G75*
G02*
X-463537500Y50237500I0J-237500D01*
G01*
X-463537500Y49762500D01*
G75*
G02*
X-463775000Y49525000I-237500J0D01*
G01*
X-464350000Y49525000D01*
G75*
G02*
X-464587500Y49762500I0J237500D01*
G01*
G37*
%TD.AperFunction*%
%TO.P,D4,1*%
%TO.N,Row1*%
%TA.AperFunction,SMDPad,CuDef*%
G36*
G01*
X-466337500Y49762500D02*
X-466337500Y50237500D01*
G75*
G02*
X-466100000Y50475000I237500J0D01*
G01*
X-465525000Y50475000D01*
G75*
G02*
X-465287500Y50237500I0J-237500D01*
G01*
X-465287500Y49762500D01*
G75*
G02*
X-465525000Y49525000I-237500J0D01*
G01*
X-466100000Y49525000D01*
G75*
G02*
X-466337500Y49762500I0J237500D01*
G01*
G37*
%TD.AperFunction*%
%TD*%
%TO.P,D3,2*%
%TO.N,Net-(D3-Pad2)*%
%TA.AperFunction,SMDPad,CuDef*%
G36*
G01*
X-444650000Y54762500D02*
X-444650000Y55237500D01*
G75*
G02*
X-444412500Y55475000I237500J0D01*
G01*
X-443837500Y55475000D01*
G75*
G02*
X-443600000Y55237500I0J-237500D01*
G01*
X-443600000Y54762500D01*
G75*
G02*
X-443837500Y54525000I-237500J0D01*
G01*
X-444412500Y54525000D01*
G75*
G02*
X-444650000Y54762500I0J237500D01*
G01*
G37*
%TD.AperFunction*%
%TO.P,D3,1*%
%TO.N,Row1*%
%TA.AperFunction,SMDPad,CuDef*%
G36*
G01*
X-446400000Y54762500D02*
X-446400000Y55237500D01*
G75*
G02*
X-446162500Y55475000I237500J0D01*
G01*
X-445587500Y55475000D01*
G75*
G02*
X-445350000Y55237500I0J-237500D01*
G01*
X-445350000Y54762500D01*
G75*
G02*
X-445587500Y54525000I-237500J0D01*
G01*
X-446162500Y54525000D01*
G75*
G02*
X-446400000Y54762500I0J237500D01*
G01*
G37*
%TD.AperFunction*%
%TD*%
%TO.P,D2,2*%
%TO.N,Net-(D2-Pad2)*%
%TA.AperFunction,SMDPad,CuDef*%
G36*
G01*
X-424650000Y49762500D02*
X-424650000Y50237500D01*
G75*
G02*
X-424412500Y50475000I237500J0D01*
G01*
X-423837500Y50475000D01*
G75*
G02*
X-423600000Y50237500I0J-237500D01*
G01*
X-423600000Y49762500D01*
G75*
G02*
X-423837500Y49525000I-237500J0D01*
G01*
X-424412500Y49525000D01*
G75*
G02*
X-424650000Y49762500I0J237500D01*
G01*
G37*
%TD.AperFunction*%
%TO.P,D2,1*%
%TO.N,Row1*%
%TA.AperFunction,SMDPad,CuDef*%
G36*
G01*
X-426400000Y49762500D02*
X-426400000Y50237500D01*
G75*
G02*
X-426162500Y50475000I237500J0D01*
G01*
X-425587500Y50475000D01*
G75*
G02*
X-425350000Y50237500I0J-237500D01*
G01*
X-425350000Y49762500D01*
G75*
G02*
X-425587500Y49525000I-237500J0D01*
G01*
X-426162500Y49525000D01*
G75*
G02*
X-426400000Y49762500I0J237500D01*
G01*
G37*
%TD.AperFunction*%
%TD*%
%TO.P,D1,2*%
%TO.N,Net-(D1-Pad2)*%
%TA.AperFunction,SMDPad,CuDef*%
G36*
G01*
X-404587500Y44762500D02*
X-404587500Y45237500D01*
G75*
G02*
X-404350000Y45475000I237500J0D01*
G01*
X-403775000Y45475000D01*
G75*
G02*
X-403537500Y45237500I0J-237500D01*
G01*
X-403537500Y44762500D01*
G75*
G02*
X-403775000Y44525000I-237500J0D01*
G01*
X-404350000Y44525000D01*
G75*
G02*
X-404587500Y44762500I0J237500D01*
G01*
G37*
%TD.AperFunction*%
%TO.P,D1,1*%
%TO.N,Row1*%
%TA.AperFunction,SMDPad,CuDef*%
G36*
G01*
X-406337500Y44762500D02*
X-406337500Y45237500D01*
G75*
G02*
X-406100000Y45475000I237500J0D01*
G01*
X-405525000Y45475000D01*
G75*
G02*
X-405287500Y45237500I0J-237500D01*
G01*
X-405287500Y44762500D01*
G75*
G02*
X-405525000Y44525000I-237500J0D01*
G01*
X-406100000Y44525000D01*
G75*
G02*
X-406337500Y44762500I0J237500D01*
G01*
G37*
%TD.AperFunction*%
%TD*%
D14*
%TO.P,SW2,2*%
%TO.N,Net-(D2-Pad2)*%
X-421190000Y57540000D03*
%TO.P,SW2,1*%
%TO.N,Col2*%
X-427540000Y60080000D03*
%TD*%
%TO.P,SW1,2*%
%TO.N,Net-(D1-Pad2)*%
X-401190000Y52540000D03*
%TO.P,SW1,1*%
%TO.N,Col1*%
X-407540000Y55080000D03*
%TD*%
%TO.P,SW20,2*%
%TO.N,Net-(D20-Pad2)*%
X-485950000Y-7460000D03*
%TO.P,SW20,1*%
%TO.N,Col5*%
X-492300000Y-4920000D03*
%TD*%
%TO.P,SW19,2*%
%TO.N,Net-(D19-Pad2)*%
X-461190000Y-2460000D03*
%TO.P,SW19,1*%
%TO.N,Col4*%
X-467540000Y80000D03*
%TD*%
%TO.P,SW18,2*%
%TO.N,Net-(D18-Pad2)*%
X-441190000Y2540000D03*
%TO.P,SW18,1*%
%TO.N,Col3*%
X-447540000Y5080000D03*
%TD*%
%TO.P,SW17,2*%
%TO.N,Net-(D17-Pad2)*%
X-421190000Y-2460000D03*
%TO.P,SW17,1*%
%TO.N,Col2*%
X-427540000Y80000D03*
%TD*%
%TO.P,SW16,2*%
%TO.N,Net-(D16-Pad2)*%
X-401190000Y-7460000D03*
%TO.P,SW16,1*%
%TO.N,Col1*%
X-407540000Y-4920000D03*
%TD*%
%TO.P,SW15,2*%
%TO.N,Net-(D15-Pad2)*%
X-481190000Y12540000D03*
%TO.P,SW15,1*%
%TO.N,Col5*%
X-487540000Y15080000D03*
%TD*%
%TO.P,SW14,2*%
%TO.N,Net-(D14-Pad2)*%
X-461190000Y17540000D03*
%TO.P,SW14,1*%
%TO.N,Col4*%
X-467540000Y20080000D03*
%TD*%
%TO.P,SW13,2*%
%TO.N,Net-(D13-Pad2)*%
X-441190000Y22540000D03*
%TO.P,SW13,1*%
%TO.N,Col3*%
X-447540000Y25080000D03*
%TD*%
%TO.P,SW12,2*%
%TO.N,Net-(D12-Pad2)*%
X-421190000Y17540000D03*
%TO.P,SW12,1*%
%TO.N,Col2*%
X-427540000Y20080000D03*
%TD*%
%TO.P,SW11,2*%
%TO.N,Net-(D11-Pad2)*%
X-401190000Y12540000D03*
%TO.P,SW11,1*%
%TO.N,Col1*%
X-407540000Y15080000D03*
%TD*%
%TO.P,SW10,2*%
%TO.N,Net-(D10-Pad2)*%
X-481190000Y32540000D03*
%TO.P,SW10,1*%
%TO.N,Col5*%
X-487540000Y35080000D03*
%TD*%
%TO.P,SW9,2*%
%TO.N,Net-(D9-Pad2)*%
X-461190000Y37540000D03*
%TO.P,SW9,1*%
%TO.N,Col4*%
X-467540000Y40080000D03*
%TD*%
%TO.P,SW8,2*%
%TO.N,Net-(D8-Pad2)*%
X-441190000Y42540000D03*
%TO.P,SW8,1*%
%TO.N,Col3*%
X-447540000Y45080000D03*
%TD*%
%TO.P,SW7,2*%
%TO.N,Net-(D7-Pad2)*%
X-421190000Y37540000D03*
%TO.P,SW7,1*%
%TO.N,Col2*%
X-427540000Y40080000D03*
%TD*%
%TO.P,SW6,2*%
%TO.N,Net-(D6-Pad2)*%
X-401190000Y32460000D03*
%TO.P,SW6,1*%
%TO.N,Col1*%
X-407540000Y35000000D03*
%TD*%
%TO.P,SW5,2*%
%TO.N,Net-(D5-Pad2)*%
X-481190000Y52540000D03*
%TO.P,SW5,1*%
%TO.N,Col5*%
X-487540000Y55080000D03*
%TD*%
%TO.P,SW4,2*%
%TO.N,Net-(D4-Pad2)*%
X-461190000Y57540000D03*
%TO.P,SW4,1*%
%TO.N,Col4*%
X-467540000Y60080000D03*
%TD*%
%TO.P,SW3,2*%
%TO.N,Net-(D3-Pad2)*%
X-441190000Y62540000D03*
%TO.P,SW3,1*%
%TO.N,Col3*%
X-447540000Y65080000D03*
%TD*%
D15*
%TO.P,B1,24*%
%TO.N,N/C*%
X-477380000Y63970000D03*
%TO.P,B1,12*%
%TO.N,Row4*%
X-492620000Y36030000D03*
%TO.P,B1,23*%
%TO.N,GND*%
X-477380000Y61430000D03*
%TO.P,B1,22*%
%TO.N,N/C*%
X-477380000Y58890000D03*
%TO.P,B1,21*%
X-477380000Y56350000D03*
%TO.P,B1,20*%
%TO.N,Col4*%
X-477380000Y53810000D03*
%TO.P,B1,19*%
%TO.N,Col5*%
X-477380000Y51270000D03*
%TO.P,B1,18*%
%TO.N,Row1*%
X-477380000Y48730000D03*
%TO.P,B1,17*%
%TO.N,Row2*%
X-477380000Y46190000D03*
%TO.P,B1,16*%
%TO.N,Row3*%
X-477380000Y43650000D03*
%TO.P,B1,15*%
%TO.N,Col3*%
X-477380000Y41110000D03*
%TO.P,B1,14*%
%TO.N,Col2*%
X-477380000Y38570000D03*
%TO.P,B1,13*%
%TO.N,Col1*%
X-477380000Y36030000D03*
%TO.P,B1,11*%
%TO.N,N/C*%
X-492620000Y38570000D03*
%TO.P,B1,10*%
X-492620000Y41110000D03*
%TO.P,B1,9*%
X-492620000Y43650000D03*
%TO.P,B1,8*%
X-492620000Y46190000D03*
%TO.P,B1,7*%
X-492620000Y48730000D03*
%TO.P,B1,6*%
X-492620000Y51270000D03*
%TO.P,B1,5*%
X-492620000Y53810000D03*
%TO.P,B1,4*%
%TO.N,GND*%
X-492620000Y56350000D03*
%TO.P,B1,3*%
X-492620000Y58890000D03*
%TO.P,B1,2*%
%TO.N,N/C*%
X-492620000Y61430000D03*
D16*
%TO.P,B1,1*%
X-492620000Y63970000D03*
%TD*%
D17*
%TO.N,Net-(D1-Pad2)*%
X-402000000Y46912500D02*
X-403912500Y45000000D01*
X-402000000Y51730000D02*
X-402000000Y46912500D01*
X-401190000Y52540000D02*
X-402000000Y51730000D01*
%TO.N,Row1*%
X-441025000Y50000000D02*
X-446025000Y55000000D01*
X-426025000Y50000000D02*
X-441025000Y50000000D01*
X-476110000Y50000000D02*
X-477380000Y48730000D01*
X-465962500Y50000000D02*
X-476110000Y50000000D01*
X-463962500Y48000000D02*
X-465962500Y50000000D01*
X-451000000Y55000000D02*
X-458000000Y48000000D01*
X-458000000Y48000000D02*
X-463962500Y48000000D01*
X-446025000Y55000000D02*
X-451000000Y55000000D01*
X-420535002Y45000000D02*
X-426025000Y50000000D01*
X-405962500Y45000000D02*
X-420535002Y45000000D01*
X-477380000Y48620000D02*
X-479000000Y47000000D01*
X-481055000Y47000000D02*
X-483305000Y44750000D01*
X-483305000Y44750000D02*
X-484775000Y44750000D01*
X-484775000Y44750000D02*
X-486025000Y46000000D01*
X-479000000Y47000000D02*
X-481055000Y47000000D01*
X-477380000Y48730000D02*
X-477380000Y48620000D01*
%TO.N,Net-(D2-Pad2)*%
X-421190000Y52785000D02*
X-423975000Y50000000D01*
X-421190000Y57540000D02*
X-421190000Y52785000D01*
%TO.N,Net-(D3-Pad2)*%
X-441190000Y57785000D02*
X-443975000Y55000000D01*
X-441190000Y62540000D02*
X-441190000Y57785000D01*
%TO.N,Net-(D4-Pad2)*%
X-461190000Y52722500D02*
X-463912500Y50000000D01*
X-461190000Y57540000D02*
X-461190000Y52722500D01*
%TO.N,Net-(D5-Pad2)*%
X-482000000Y47975000D02*
X-483975000Y46000000D01*
X-482000000Y51730000D02*
X-482000000Y47975000D01*
X-481190000Y52540000D02*
X-482000000Y51730000D01*
%TO.N,Net-(D6-Pad2)*%
X-401190000Y27722500D02*
X-403912500Y25000000D01*
X-401190000Y32460000D02*
X-401190000Y27722500D01*
%TO.N,Row2*%
X-421025000Y25000000D02*
X-405962500Y25000000D01*
X-426025000Y30000000D02*
X-421025000Y25000000D01*
X-441000000Y30000000D02*
X-426025000Y30000000D01*
X-446000000Y35000000D02*
X-441000000Y30000000D01*
X-446025000Y35000000D02*
X-446000000Y35000000D01*
X-470000000Y30000000D02*
X-466025000Y30000000D01*
X-477380000Y46190000D02*
X-472000000Y40810000D01*
X-472000000Y32000000D02*
X-470000000Y30000000D01*
X-472000000Y40810000D02*
X-472000000Y32000000D01*
X-446025000Y34975000D02*
X-446025000Y35000000D01*
X-451000000Y30000000D02*
X-446025000Y34975000D01*
X-461000000Y28000000D02*
X-459000000Y30000000D01*
X-459000000Y30000000D02*
X-451000000Y30000000D01*
X-466025000Y30000000D02*
X-464275000Y28250000D01*
X-464000000Y28000000D02*
X-461000000Y28000000D01*
X-464250000Y28250000D02*
X-464000000Y28000000D01*
X-464275000Y28250000D02*
X-464250000Y28250000D01*
X-479000000Y44570000D02*
X-477380000Y46190000D01*
X-479000000Y33000000D02*
X-479000000Y44570000D01*
X-478000000Y25000000D02*
X-478000000Y32000000D01*
X-480000000Y23000000D02*
X-478000000Y25000000D01*
X-483962500Y23000000D02*
X-480000000Y23000000D01*
X-478000000Y32000000D02*
X-479000000Y33000000D01*
X-485962500Y25000000D02*
X-483962500Y23000000D01*
%TO.N,Net-(D7-Pad2)*%
X-421190000Y32785000D02*
X-423975000Y30000000D01*
X-421190000Y37540000D02*
X-421190000Y32785000D01*
%TO.N,Net-(D8-Pad2)*%
X-441190000Y37785000D02*
X-443975000Y35000000D01*
X-441190000Y42540000D02*
X-441190000Y37785000D01*
%TO.N,Net-(D9-Pad2)*%
X-461190000Y32785000D02*
X-463975000Y30000000D01*
X-461190000Y37540000D02*
X-461190000Y32785000D01*
%TO.N,Net-(D10-Pad2)*%
X-482289999Y26622501D02*
X-483912500Y25000000D01*
X-482289999Y31440001D02*
X-482289999Y26622501D01*
X-481190000Y32540000D02*
X-482289999Y31440001D01*
%TO.N,Net-(D11-Pad2)*%
X-401190000Y7785000D02*
X-403975000Y5000000D01*
X-401190000Y12540000D02*
X-401190000Y7785000D01*
%TO.N,Row3*%
X-441025000Y10000000D02*
X-426025000Y10000000D01*
X-446025000Y15000000D02*
X-441025000Y10000000D01*
X-446025000Y14975000D02*
X-446025000Y15000000D01*
X-464025000Y8000000D02*
X-453000000Y8000000D01*
X-453000000Y8000000D02*
X-446025000Y14975000D01*
X-466025000Y10000000D02*
X-464025000Y8000000D01*
X-466700000Y10000000D02*
X-466025000Y10000000D01*
X-421025000Y5000000D02*
X-406025000Y5000000D01*
X-426025000Y10000000D02*
X-421025000Y5000000D01*
X-472900000Y12900000D02*
X-472900000Y39170000D01*
X-470000000Y10000000D02*
X-472900000Y12900000D01*
X-472900000Y39170000D02*
X-477380000Y43650000D01*
X-466700000Y10000000D02*
X-470000000Y10000000D01*
X-476075001Y3924999D02*
X-470000000Y10000000D01*
X-484949999Y3924999D02*
X-476075001Y3924999D01*
X-486025000Y5000000D02*
X-484949999Y3924999D01*
%TO.N,Net-(D12-Pad2)*%
X-421190000Y12785000D02*
X-423975000Y10000000D01*
X-421190000Y17540000D02*
X-421190000Y12785000D01*
%TO.N,Net-(D13-Pad2)*%
X-441190000Y17785000D02*
X-443975000Y15000000D01*
X-441190000Y22540000D02*
X-441190000Y17785000D01*
%TO.N,Net-(D14-Pad2)*%
X-461190000Y12785000D02*
X-463975000Y10000000D01*
X-461190000Y17540000D02*
X-461190000Y12785000D01*
%TO.N,Net-(D15-Pad2)*%
X-481190000Y7785000D02*
X-483975000Y5000000D01*
X-481190000Y12540000D02*
X-481190000Y7785000D01*
%TO.N,Net-(D16-Pad2)*%
X-403300000Y-5350000D02*
X-401190000Y-7460000D01*
X-403300000Y-675000D02*
X-403300000Y-5350000D01*
X-403975000Y0D02*
X-403300000Y-675000D01*
%TO.N,Row4*%
X-424849999Y-11175001D02*
X-417875001Y-11175001D01*
X-426025000Y-10000000D02*
X-424849999Y-11175001D01*
X-406700000Y0D02*
X-406025000Y0D01*
X-417875001Y-11175001D02*
X-406700000Y0D01*
X-446025000Y-5000000D02*
X-441025000Y-10000000D01*
X-441025000Y-10000000D02*
X-426025000Y-10000000D01*
X-492620000Y4420000D02*
X-483200000Y-5000000D01*
X-483200000Y-5000000D02*
X-480025000Y-5000000D01*
X-492620000Y36030000D02*
X-492620000Y4420000D01*
X-453025000Y-12000000D02*
X-446025000Y-5000000D01*
X-464025000Y-12000000D02*
X-453025000Y-12000000D01*
X-466025000Y-10000000D02*
X-464025000Y-12000000D01*
X-470064998Y-10000000D02*
X-466025000Y-10000000D01*
X-480025000Y-5000000D02*
X-478949999Y-3924999D01*
X-476139999Y-3924999D02*
X-470064998Y-10000000D01*
X-478949999Y-3924999D02*
X-476139999Y-3924999D01*
%TO.N,Net-(D17-Pad2)*%
X-421190000Y-7215000D02*
X-421190000Y-2460000D01*
X-423975000Y-10000000D02*
X-421190000Y-7215000D01*
%TO.N,Net-(D18-Pad2)*%
X-441190000Y-2215000D02*
X-441190000Y2540000D01*
X-443975000Y-5000000D02*
X-441190000Y-2215000D01*
%TO.N,Net-(D19-Pad2)*%
X-461190000Y-7215000D02*
X-461190000Y-2460000D01*
X-463975000Y-10000000D02*
X-461190000Y-7215000D01*
%TO.N,Net-(D20-Pad2)*%
X-477975000Y-5675000D02*
X-477975000Y-5000000D01*
X-479760000Y-7460000D02*
X-477975000Y-5675000D01*
X-485950000Y-7460000D02*
X-479760000Y-7460000D01*
%TO.N,GND*%
X-479920000Y58890000D02*
X-477380000Y61430000D01*
X-492620000Y58890000D02*
X-479920000Y58890000D01*
X-492620000Y58890000D02*
X-492620000Y56350000D01*
%TD*%
D18*
%TO.N,GND*%
X-477127000Y65460583D02*
X-477231150Y65481300D01*
X-477528850Y65481300D01*
X-477820830Y65423222D01*
X-478095869Y65309297D01*
X-478343398Y65143904D01*
X-478553904Y64933398D01*
X-478719297Y64685869D01*
X-478833222Y64410830D01*
X-478891300Y64118850D01*
X-478891300Y63821150D01*
X-478833222Y63529170D01*
X-478719297Y63254131D01*
X-478553904Y63006602D01*
X-478343398Y62796096D01*
X-478180191Y62687045D01*
X-478247563Y62477169D01*
X-477380000Y61609605D01*
X-477365858Y61623748D01*
X-477186253Y61444143D01*
X-477200395Y61430000D01*
X-477186253Y61415858D01*
X-477365858Y61236253D01*
X-477380000Y61250395D01*
X-478247563Y60382831D01*
X-478180191Y60172955D01*
X-478343398Y60063904D01*
X-478553904Y59853398D01*
X-478719297Y59605869D01*
X-478833222Y59330830D01*
X-478891300Y59038850D01*
X-478891300Y58741150D01*
X-478833222Y58449170D01*
X-478719297Y58174131D01*
X-478553904Y57926602D01*
X-478343398Y57716096D01*
X-478199580Y57620000D01*
X-478343398Y57523904D01*
X-478553904Y57313398D01*
X-478719297Y57065869D01*
X-478833222Y56790830D01*
X-478891300Y56498850D01*
X-478891300Y56201150D01*
X-478833222Y55909170D01*
X-478719297Y55634131D01*
X-478553904Y55386602D01*
X-478343398Y55176096D01*
X-478199580Y55080000D01*
X-478343398Y54983904D01*
X-478553904Y54773398D01*
X-478719297Y54525869D01*
X-478833222Y54250830D01*
X-478891300Y53958850D01*
X-478891300Y53661150D01*
X-478833222Y53369170D01*
X-478719297Y53094131D01*
X-478553904Y52846602D01*
X-478343398Y52636096D01*
X-478199580Y52540000D01*
X-478343398Y52443904D01*
X-478553904Y52233398D01*
X-478719297Y51985869D01*
X-478833222Y51710830D01*
X-478891300Y51418850D01*
X-478891300Y51121150D01*
X-478878949Y51059056D01*
X-478973368Y51153475D01*
X-479216589Y51315990D01*
X-479486842Y51427932D01*
X-479773740Y51485000D01*
X-479808261Y51485000D01*
X-479652463Y51718169D01*
X-479521675Y52033919D01*
X-479455000Y52369117D01*
X-479455000Y52710883D01*
X-479521675Y53046081D01*
X-479652463Y53361831D01*
X-479842337Y53645998D01*
X-480084002Y53887663D01*
X-480368169Y54077537D01*
X-480683919Y54208325D01*
X-481019117Y54275000D01*
X-481360883Y54275000D01*
X-481696081Y54208325D01*
X-482011831Y54077537D01*
X-482295998Y53887663D01*
X-482537663Y53645998D01*
X-482727537Y53361831D01*
X-482858325Y53046081D01*
X-482925000Y52710883D01*
X-482925000Y52369117D01*
X-482858325Y52033919D01*
X-482757676Y51790930D01*
X-482760000Y51767332D01*
X-482760000Y51767322D01*
X-482763676Y51730000D01*
X-482760000Y51692677D01*
X-482760000Y51390478D01*
X-482953262Y51679715D01*
X-483320285Y52046738D01*
X-483751859Y52335107D01*
X-484231399Y52533739D01*
X-484740475Y52635000D01*
X-485259525Y52635000D01*
X-485768601Y52533739D01*
X-486248141Y52335107D01*
X-486679715Y52046738D01*
X-487046738Y51679715D01*
X-487335107Y51248141D01*
X-487533739Y50768601D01*
X-487635000Y50259525D01*
X-487635000Y49740475D01*
X-487533739Y49231399D01*
X-487335107Y48751859D01*
X-487046738Y48320285D01*
X-486679715Y47953262D01*
X-486248141Y47664893D01*
X-485768601Y47466261D01*
X-485259525Y47365000D01*
X-484740475Y47365000D01*
X-484231399Y47466261D01*
X-483751859Y47664893D01*
X-483320285Y47953262D01*
X-482953262Y48320285D01*
X-482759999Y48609523D01*
X-482759999Y48289803D01*
X-483936729Y47113072D01*
X-484412500Y47113072D01*
X-484583316Y47096248D01*
X-484747567Y47046423D01*
X-484898942Y46965512D01*
X-485000000Y46882575D01*
X-485101058Y46965512D01*
X-485252433Y47046423D01*
X-485416684Y47096248D01*
X-485587500Y47113072D01*
X-486162500Y47113072D01*
X-486333316Y47096248D01*
X-486497567Y47046423D01*
X-486648942Y46965512D01*
X-486781623Y46856623D01*
X-486890512Y46723942D01*
X-486971423Y46572567D01*
X-487021248Y46408316D01*
X-487038072Y46237500D01*
X-487038072Y45762500D01*
X-487021248Y45591684D01*
X-486971423Y45427433D01*
X-486890512Y45276058D01*
X-486781623Y45143377D01*
X-486648942Y45034488D01*
X-486497567Y44953577D01*
X-486333316Y44903752D01*
X-486162500Y44886928D01*
X-485986729Y44886928D01*
X-485338799Y44238997D01*
X-485315001Y44209999D01*
X-485286003Y44186201D01*
X-485199277Y44115026D01*
X-485067247Y44044454D01*
X-484923986Y44000997D01*
X-484812333Y43990000D01*
X-484812323Y43990000D01*
X-484775000Y43986324D01*
X-484737677Y43990000D01*
X-483342322Y43990000D01*
X-483305000Y43986324D01*
X-483267678Y43990000D01*
X-483267667Y43990000D01*
X-483156014Y44000997D01*
X-483012753Y44044454D01*
X-482880724Y44115026D01*
X-482764999Y44209999D01*
X-482741196Y44239003D01*
X-480740198Y46240000D01*
X-479037322Y46240000D01*
X-479000000Y46236324D01*
X-478962678Y46240000D01*
X-478962667Y46240000D01*
X-478891300Y46247029D01*
X-478891300Y46041150D01*
X-478843576Y45801225D01*
X-479511002Y45133799D01*
X-479540000Y45110001D01*
X-479563798Y45081003D01*
X-479563799Y45081002D01*
X-479634974Y44994276D01*
X-479705546Y44862246D01*
X-479749002Y44718985D01*
X-479763676Y44570000D01*
X-479759999Y44532668D01*
X-479760000Y37127000D01*
X-491579698Y37127000D01*
X-491656602Y37203904D01*
X-491800420Y37300000D01*
X-491656602Y37396096D01*
X-491446096Y37606602D01*
X-491280703Y37854131D01*
X-491166778Y38129170D01*
X-491108700Y38421150D01*
X-491108700Y38718850D01*
X-491166778Y39010830D01*
X-491280703Y39285869D01*
X-491446096Y39533398D01*
X-491656602Y39743904D01*
X-491800420Y39840000D01*
X-491656602Y39936096D01*
X-491446096Y40146602D01*
X-491280703Y40394131D01*
X-491166778Y40669170D01*
X-491108700Y40961150D01*
X-491108700Y41258850D01*
X-491166778Y41550830D01*
X-491280703Y41825869D01*
X-491446096Y42073398D01*
X-491656602Y42283904D01*
X-491800420Y42380000D01*
X-491656602Y42476096D01*
X-491446096Y42686602D01*
X-491280703Y42934131D01*
X-491166778Y43209170D01*
X-491108700Y43501150D01*
X-491108700Y43798850D01*
X-491166778Y44090830D01*
X-491280703Y44365869D01*
X-491446096Y44613398D01*
X-491656602Y44823904D01*
X-491800420Y44920000D01*
X-491656602Y45016096D01*
X-491446096Y45226602D01*
X-491280703Y45474131D01*
X-491166778Y45749170D01*
X-491108700Y46041150D01*
X-491108700Y46338850D01*
X-491166778Y46630830D01*
X-491280703Y46905869D01*
X-491446096Y47153398D01*
X-491656602Y47363904D01*
X-491800420Y47460000D01*
X-491656602Y47556096D01*
X-491446096Y47766602D01*
X-491280703Y48014131D01*
X-491166778Y48289170D01*
X-491108700Y48581150D01*
X-491108700Y48878850D01*
X-491121051Y48940944D01*
X-491026632Y48846525D01*
X-490783411Y48684010D01*
X-490513158Y48572068D01*
X-490226260Y48515000D01*
X-489933740Y48515000D01*
X-489646842Y48572068D01*
X-489376589Y48684010D01*
X-489133368Y48846525D01*
X-488926525Y49053368D01*
X-488764010Y49296589D01*
X-488652068Y49566842D01*
X-488595000Y49853740D01*
X-488595000Y50146260D01*
X-488652068Y50433158D01*
X-488764010Y50703411D01*
X-488926525Y50946632D01*
X-489133368Y51153475D01*
X-489376589Y51315990D01*
X-489646842Y51427932D01*
X-489933740Y51485000D01*
X-490226260Y51485000D01*
X-490513158Y51427932D01*
X-490783411Y51315990D01*
X-491026632Y51153475D01*
X-491121051Y51059056D01*
X-491108700Y51121150D01*
X-491108700Y51418850D01*
X-491166778Y51710830D01*
X-491280703Y51985869D01*
X-491446096Y52233398D01*
X-491656602Y52443904D01*
X-491800420Y52540000D01*
X-491656602Y52636096D01*
X-491446096Y52846602D01*
X-491280703Y53094131D01*
X-491166778Y53369170D01*
X-491108700Y53661150D01*
X-491108700Y53958850D01*
X-491166778Y54250830D01*
X-491280703Y54525869D01*
X-491446096Y54773398D01*
X-491656602Y54983904D01*
X-491819809Y55092955D01*
X-491769113Y55250883D01*
X-489275000Y55250883D01*
X-489275000Y54909117D01*
X-489208325Y54573919D01*
X-489077537Y54258169D01*
X-488887663Y53974002D01*
X-488645998Y53732337D01*
X-488361831Y53542463D01*
X-488046081Y53411675D01*
X-487710883Y53345000D01*
X-487369117Y53345000D01*
X-487033919Y53411675D01*
X-486718169Y53542463D01*
X-486434002Y53732337D01*
X-486192337Y53974002D01*
X-486002463Y54258169D01*
X-485871675Y54573919D01*
X-485805000Y54909117D01*
X-485805000Y55250883D01*
X-485871675Y55586081D01*
X-486002463Y55901831D01*
X-486192337Y56185998D01*
X-486434002Y56427663D01*
X-486718169Y56617537D01*
X-487033919Y56748325D01*
X-487369117Y56815000D01*
X-487710883Y56815000D01*
X-488046081Y56748325D01*
X-488361831Y56617537D01*
X-488645998Y56427663D01*
X-488887663Y56185998D01*
X-489077537Y55901831D01*
X-489208325Y55586081D01*
X-489275000Y55250883D01*
X-491769113Y55250883D01*
X-491752437Y55302831D01*
X-492620000Y56170395D01*
X-492634143Y56156253D01*
X-492813748Y56335858D01*
X-492799605Y56350000D01*
X-492440395Y56350000D01*
X-491572831Y55482437D01*
X-491321071Y55563254D01*
X-491192543Y55831779D01*
X-491118871Y56120219D01*
X-491102887Y56417491D01*
X-491145204Y56712167D01*
X-491244198Y56992927D01*
X-491321071Y57136746D01*
X-491572831Y57217563D01*
X-492440395Y56350000D01*
X-492799605Y56350000D01*
X-492813748Y56364143D01*
X-492634143Y56543748D01*
X-492620000Y56529605D01*
X-491752437Y57397169D01*
X-491823968Y57620000D01*
X-491752437Y57842831D01*
X-492620000Y58710395D01*
X-492634143Y58696253D01*
X-492813748Y58875858D01*
X-492799605Y58890000D01*
X-492440395Y58890000D01*
X-491572831Y58022437D01*
X-491321071Y58103254D01*
X-491192543Y58371779D01*
X-491118871Y58660219D01*
X-491102887Y58957491D01*
X-491145204Y59252167D01*
X-491244198Y59532927D01*
X-491321071Y59676746D01*
X-491572831Y59757563D01*
X-492440395Y58890000D01*
X-492799605Y58890000D01*
X-492813748Y58904143D01*
X-492634143Y59083748D01*
X-492620000Y59069605D01*
X-491752437Y59937169D01*
X-491819809Y60147045D01*
X-491656602Y60256096D01*
X-491446096Y60466602D01*
X-491280703Y60714131D01*
X-491166778Y60989170D01*
X-491108700Y61281150D01*
X-491108700Y61362509D01*
X-478897113Y61362509D01*
X-478854796Y61067833D01*
X-478755802Y60787073D01*
X-478678929Y60643254D01*
X-478427169Y60562437D01*
X-477559605Y61430000D01*
X-478427169Y62297563D01*
X-478678929Y62216746D01*
X-478807457Y61948221D01*
X-478881129Y61659781D01*
X-478897113Y61362509D01*
X-491108700Y61362509D01*
X-491108700Y61578850D01*
X-491166778Y61870830D01*
X-491280703Y62145869D01*
X-491446096Y62393398D01*
X-491543542Y62490844D01*
X-491499520Y62504198D01*
X-491389206Y62563163D01*
X-491292515Y62642515D01*
X-491213163Y62739206D01*
X-491154198Y62849520D01*
X-491117888Y62969218D01*
X-491105628Y63093700D01*
X-491105628Y64846300D01*
X-491117888Y64970782D01*
X-491154198Y65090480D01*
X-491213163Y65200794D01*
X-491292515Y65297485D01*
X-491389206Y65376837D01*
X-491499520Y65435802D01*
X-491619218Y65472112D01*
X-491743700Y65484372D01*
X-492873000Y65484372D01*
X-492873000Y67315000D01*
X-477127000Y67315000D01*
X-477127000Y65460583D01*
%TA.AperFunction,Conductor*%
D19*
G36*
X-477127000Y65460583D02*
G01*
X-477231150Y65481300D01*
X-477528850Y65481300D01*
X-477820830Y65423222D01*
X-478095869Y65309297D01*
X-478343398Y65143904D01*
X-478553904Y64933398D01*
X-478719297Y64685869D01*
X-478833222Y64410830D01*
X-478891300Y64118850D01*
X-478891300Y63821150D01*
X-478833222Y63529170D01*
X-478719297Y63254131D01*
X-478553904Y63006602D01*
X-478343398Y62796096D01*
X-478180191Y62687045D01*
X-478247563Y62477169D01*
X-477380000Y61609605D01*
X-477365858Y61623748D01*
X-477186253Y61444143D01*
X-477200395Y61430000D01*
X-477186253Y61415858D01*
X-477365858Y61236253D01*
X-477380000Y61250395D01*
X-478247563Y60382831D01*
X-478180191Y60172955D01*
X-478343398Y60063904D01*
X-478553904Y59853398D01*
X-478719297Y59605869D01*
X-478833222Y59330830D01*
X-478891300Y59038850D01*
X-478891300Y58741150D01*
X-478833222Y58449170D01*
X-478719297Y58174131D01*
X-478553904Y57926602D01*
X-478343398Y57716096D01*
X-478199580Y57620000D01*
X-478343398Y57523904D01*
X-478553904Y57313398D01*
X-478719297Y57065869D01*
X-478833222Y56790830D01*
X-478891300Y56498850D01*
X-478891300Y56201150D01*
X-478833222Y55909170D01*
X-478719297Y55634131D01*
X-478553904Y55386602D01*
X-478343398Y55176096D01*
X-478199580Y55080000D01*
X-478343398Y54983904D01*
X-478553904Y54773398D01*
X-478719297Y54525869D01*
X-478833222Y54250830D01*
X-478891300Y53958850D01*
X-478891300Y53661150D01*
X-478833222Y53369170D01*
X-478719297Y53094131D01*
X-478553904Y52846602D01*
X-478343398Y52636096D01*
X-478199580Y52540000D01*
X-478343398Y52443904D01*
X-478553904Y52233398D01*
X-478719297Y51985869D01*
X-478833222Y51710830D01*
X-478891300Y51418850D01*
X-478891300Y51121150D01*
X-478878949Y51059056D01*
X-478973368Y51153475D01*
X-479216589Y51315990D01*
X-479486842Y51427932D01*
X-479773740Y51485000D01*
X-479808261Y51485000D01*
X-479652463Y51718169D01*
X-479521675Y52033919D01*
X-479455000Y52369117D01*
X-479455000Y52710883D01*
X-479521675Y53046081D01*
X-479652463Y53361831D01*
X-479842337Y53645998D01*
X-480084002Y53887663D01*
X-480368169Y54077537D01*
X-480683919Y54208325D01*
X-481019117Y54275000D01*
X-481360883Y54275000D01*
X-481696081Y54208325D01*
X-482011831Y54077537D01*
X-482295998Y53887663D01*
X-482537663Y53645998D01*
X-482727537Y53361831D01*
X-482858325Y53046081D01*
X-482925000Y52710883D01*
X-482925000Y52369117D01*
X-482858325Y52033919D01*
X-482757676Y51790930D01*
X-482760000Y51767332D01*
X-482760000Y51767322D01*
X-482763676Y51730000D01*
X-482760000Y51692677D01*
X-482760000Y51390478D01*
X-482953262Y51679715D01*
X-483320285Y52046738D01*
X-483751859Y52335107D01*
X-484231399Y52533739D01*
X-484740475Y52635000D01*
X-485259525Y52635000D01*
X-485768601Y52533739D01*
X-486248141Y52335107D01*
X-486679715Y52046738D01*
X-487046738Y51679715D01*
X-487335107Y51248141D01*
X-487533739Y50768601D01*
X-487635000Y50259525D01*
X-487635000Y49740475D01*
X-487533739Y49231399D01*
X-487335107Y48751859D01*
X-487046738Y48320285D01*
X-486679715Y47953262D01*
X-486248141Y47664893D01*
X-485768601Y47466261D01*
X-485259525Y47365000D01*
X-484740475Y47365000D01*
X-484231399Y47466261D01*
X-483751859Y47664893D01*
X-483320285Y47953262D01*
X-482953262Y48320285D01*
X-482759999Y48609523D01*
X-482759999Y48289803D01*
X-483936729Y47113072D01*
X-484412500Y47113072D01*
X-484583316Y47096248D01*
X-484747567Y47046423D01*
X-484898942Y46965512D01*
X-485000000Y46882575D01*
X-485101058Y46965512D01*
X-485252433Y47046423D01*
X-485416684Y47096248D01*
X-485587500Y47113072D01*
X-486162500Y47113072D01*
X-486333316Y47096248D01*
X-486497567Y47046423D01*
X-486648942Y46965512D01*
X-486781623Y46856623D01*
X-486890512Y46723942D01*
X-486971423Y46572567D01*
X-487021248Y46408316D01*
X-487038072Y46237500D01*
X-487038072Y45762500D01*
X-487021248Y45591684D01*
X-486971423Y45427433D01*
X-486890512Y45276058D01*
X-486781623Y45143377D01*
X-486648942Y45034488D01*
X-486497567Y44953577D01*
X-486333316Y44903752D01*
X-486162500Y44886928D01*
X-485986729Y44886928D01*
X-485338799Y44238997D01*
X-485315001Y44209999D01*
X-485286003Y44186201D01*
X-485199277Y44115026D01*
X-485067247Y44044454D01*
X-484923986Y44000997D01*
X-484812333Y43990000D01*
X-484812323Y43990000D01*
X-484775000Y43986324D01*
X-484737677Y43990000D01*
X-483342322Y43990000D01*
X-483305000Y43986324D01*
X-483267678Y43990000D01*
X-483267667Y43990000D01*
X-483156014Y44000997D01*
X-483012753Y44044454D01*
X-482880724Y44115026D01*
X-482764999Y44209999D01*
X-482741196Y44239003D01*
X-480740198Y46240000D01*
X-479037322Y46240000D01*
X-479000000Y46236324D01*
X-478962678Y46240000D01*
X-478962667Y46240000D01*
X-478891300Y46247029D01*
X-478891300Y46041150D01*
X-478843576Y45801225D01*
X-479511002Y45133799D01*
X-479540000Y45110001D01*
X-479563798Y45081003D01*
X-479563799Y45081002D01*
X-479634974Y44994276D01*
X-479705546Y44862246D01*
X-479749002Y44718985D01*
X-479763676Y44570000D01*
X-479759999Y44532668D01*
X-479760000Y37127000D01*
X-491579698Y37127000D01*
X-491656602Y37203904D01*
X-491800420Y37300000D01*
X-491656602Y37396096D01*
X-491446096Y37606602D01*
X-491280703Y37854131D01*
X-491166778Y38129170D01*
X-491108700Y38421150D01*
X-491108700Y38718850D01*
X-491166778Y39010830D01*
X-491280703Y39285869D01*
X-491446096Y39533398D01*
X-491656602Y39743904D01*
X-491800420Y39840000D01*
X-491656602Y39936096D01*
X-491446096Y40146602D01*
X-491280703Y40394131D01*
X-491166778Y40669170D01*
X-491108700Y40961150D01*
X-491108700Y41258850D01*
X-491166778Y41550830D01*
X-491280703Y41825869D01*
X-491446096Y42073398D01*
X-491656602Y42283904D01*
X-491800420Y42380000D01*
X-491656602Y42476096D01*
X-491446096Y42686602D01*
X-491280703Y42934131D01*
X-491166778Y43209170D01*
X-491108700Y43501150D01*
X-491108700Y43798850D01*
X-491166778Y44090830D01*
X-491280703Y44365869D01*
X-491446096Y44613398D01*
X-491656602Y44823904D01*
X-491800420Y44920000D01*
X-491656602Y45016096D01*
X-491446096Y45226602D01*
X-491280703Y45474131D01*
X-491166778Y45749170D01*
X-491108700Y46041150D01*
X-491108700Y46338850D01*
X-491166778Y46630830D01*
X-491280703Y46905869D01*
X-491446096Y47153398D01*
X-491656602Y47363904D01*
X-491800420Y47460000D01*
X-491656602Y47556096D01*
X-491446096Y47766602D01*
X-491280703Y48014131D01*
X-491166778Y48289170D01*
X-491108700Y48581150D01*
X-491108700Y48878850D01*
X-491121051Y48940944D01*
X-491026632Y48846525D01*
X-490783411Y48684010D01*
X-490513158Y48572068D01*
X-490226260Y48515000D01*
X-489933740Y48515000D01*
X-489646842Y48572068D01*
X-489376589Y48684010D01*
X-489133368Y48846525D01*
X-488926525Y49053368D01*
X-488764010Y49296589D01*
X-488652068Y49566842D01*
X-488595000Y49853740D01*
X-488595000Y50146260D01*
X-488652068Y50433158D01*
X-488764010Y50703411D01*
X-488926525Y50946632D01*
X-489133368Y51153475D01*
X-489376589Y51315990D01*
X-489646842Y51427932D01*
X-489933740Y51485000D01*
X-490226260Y51485000D01*
X-490513158Y51427932D01*
X-490783411Y51315990D01*
X-491026632Y51153475D01*
X-491121051Y51059056D01*
X-491108700Y51121150D01*
X-491108700Y51418850D01*
X-491166778Y51710830D01*
X-491280703Y51985869D01*
X-491446096Y52233398D01*
X-491656602Y52443904D01*
X-491800420Y52540000D01*
X-491656602Y52636096D01*
X-491446096Y52846602D01*
X-491280703Y53094131D01*
X-491166778Y53369170D01*
X-491108700Y53661150D01*
X-491108700Y53958850D01*
X-491166778Y54250830D01*
X-491280703Y54525869D01*
X-491446096Y54773398D01*
X-491656602Y54983904D01*
X-491819809Y55092955D01*
X-491769113Y55250883D01*
X-489275000Y55250883D01*
X-489275000Y54909117D01*
X-489208325Y54573919D01*
X-489077537Y54258169D01*
X-488887663Y53974002D01*
X-488645998Y53732337D01*
X-488361831Y53542463D01*
X-488046081Y53411675D01*
X-487710883Y53345000D01*
X-487369117Y53345000D01*
X-487033919Y53411675D01*
X-486718169Y53542463D01*
X-486434002Y53732337D01*
X-486192337Y53974002D01*
X-486002463Y54258169D01*
X-485871675Y54573919D01*
X-485805000Y54909117D01*
X-485805000Y55250883D01*
X-485871675Y55586081D01*
X-486002463Y55901831D01*
X-486192337Y56185998D01*
X-486434002Y56427663D01*
X-486718169Y56617537D01*
X-487033919Y56748325D01*
X-487369117Y56815000D01*
X-487710883Y56815000D01*
X-488046081Y56748325D01*
X-488361831Y56617537D01*
X-488645998Y56427663D01*
X-488887663Y56185998D01*
X-489077537Y55901831D01*
X-489208325Y55586081D01*
X-489275000Y55250883D01*
X-491769113Y55250883D01*
X-491752437Y55302831D01*
X-492620000Y56170395D01*
X-492634143Y56156253D01*
X-492813748Y56335858D01*
X-492799605Y56350000D01*
X-492440395Y56350000D01*
X-491572831Y55482437D01*
X-491321071Y55563254D01*
X-491192543Y55831779D01*
X-491118871Y56120219D01*
X-491102887Y56417491D01*
X-491145204Y56712167D01*
X-491244198Y56992927D01*
X-491321071Y57136746D01*
X-491572831Y57217563D01*
X-492440395Y56350000D01*
X-492799605Y56350000D01*
X-492813748Y56364143D01*
X-492634143Y56543748D01*
X-492620000Y56529605D01*
X-491752437Y57397169D01*
X-491823968Y57620000D01*
X-491752437Y57842831D01*
X-492620000Y58710395D01*
X-492634143Y58696253D01*
X-492813748Y58875858D01*
X-492799605Y58890000D01*
X-492440395Y58890000D01*
X-491572831Y58022437D01*
X-491321071Y58103254D01*
X-491192543Y58371779D01*
X-491118871Y58660219D01*
X-491102887Y58957491D01*
X-491145204Y59252167D01*
X-491244198Y59532927D01*
X-491321071Y59676746D01*
X-491572831Y59757563D01*
X-492440395Y58890000D01*
X-492799605Y58890000D01*
X-492813748Y58904143D01*
X-492634143Y59083748D01*
X-492620000Y59069605D01*
X-491752437Y59937169D01*
X-491819809Y60147045D01*
X-491656602Y60256096D01*
X-491446096Y60466602D01*
X-491280703Y60714131D01*
X-491166778Y60989170D01*
X-491108700Y61281150D01*
X-491108700Y61362509D01*
X-478897113Y61362509D01*
X-478854796Y61067833D01*
X-478755802Y60787073D01*
X-478678929Y60643254D01*
X-478427169Y60562437D01*
X-477559605Y61430000D01*
X-478427169Y62297563D01*
X-478678929Y62216746D01*
X-478807457Y61948221D01*
X-478881129Y61659781D01*
X-478897113Y61362509D01*
X-491108700Y61362509D01*
X-491108700Y61578850D01*
X-491166778Y61870830D01*
X-491280703Y62145869D01*
X-491446096Y62393398D01*
X-491543542Y62490844D01*
X-491499520Y62504198D01*
X-491389206Y62563163D01*
X-491292515Y62642515D01*
X-491213163Y62739206D01*
X-491154198Y62849520D01*
X-491117888Y62969218D01*
X-491105628Y63093700D01*
X-491105628Y64846300D01*
X-491117888Y64970782D01*
X-491154198Y65090480D01*
X-491213163Y65200794D01*
X-491292515Y65297485D01*
X-491389206Y65376837D01*
X-491499520Y65435802D01*
X-491619218Y65472112D01*
X-491743700Y65484372D01*
X-492873000Y65484372D01*
X-492873000Y67315000D01*
X-477127000Y67315000D01*
X-477127000Y65460583D01*
G37*
%TD.AperFunction*%
%TD*%
M02*
