M48
; DRILL file {KiCad (5.1.9-0-10_14)} date Friday, April 02, 2021 at 12:26:16 AM
; FORMAT={-:-/ absolute / inch / decimal}
; #@! TF.CreationDate,2021-04-02T00:26:16+08:00
; #@! TF.GenerationSoftware,Kicad,Pcbnew,(5.1.9-0-10_14)
; #@! TF.FileFunction,NonPlated,1,2,NPTH
FMAT,2
INCH
T1C0.0669
T2C0.1260
T3C0.1575
%
G90
G05
T1
X-19.4819Y-0.3937
X-19.2945Y1.9685
X-19.2945Y1.1811
X-19.2945Y0.3937
X-19.0819Y-0.3937
X-18.8945Y1.9685
X-18.8945Y1.1811
X-18.8945Y0.3937
X-18.5071Y2.1654
X-18.5071Y1.378
X-18.5071Y0.5906
X-18.5071Y-0.1969
X-18.1071Y2.1654
X-18.1071Y1.378
X-18.1071Y0.5906
X-18.1071Y-0.1969
X-17.7197Y2.3622
X-17.7197Y1.5748
X-17.7197Y0.7874
X-17.7197Y0.0
X-17.3197Y2.3622
X-17.3197Y1.5748
X-17.3197Y0.7874
X-17.3197Y0.0
X-16.9323Y2.1654
X-16.9323Y1.378
X-16.9323Y0.5906
X-16.9323Y-0.1969
X-16.5323Y2.1654
X-16.5323Y1.378
X-16.5323Y0.5906
X-16.5323Y-0.1969
X-16.1449Y1.9685
X-16.1449Y1.178
X-16.1449Y0.3937
X-16.1449Y-0.3937
X-15.7449Y1.9685
X-15.7449Y1.178
X-15.7449Y0.3937
X-15.7449Y-0.3937
T2
X-17.9134Y0.9843
T3
X-19.2819Y-0.3937
X-19.0945Y1.9685
X-19.0945Y1.1811
X-19.0945Y0.3937
X-18.3071Y2.1654
X-18.3071Y1.378
X-18.3071Y0.5906
X-18.3071Y-0.1969
X-17.5197Y2.3622
X-17.5197Y1.5748
X-17.5197Y0.7874
X-17.5197Y0.0
X-16.7323Y2.1654
X-16.7323Y1.378
X-16.7323Y0.5906
X-16.7323Y-0.1969
X-15.9449Y1.9685
X-15.9449Y1.178
X-15.9449Y0.3937
X-15.9449Y-0.3937
T0
M30
